<?xml version="1.0" encoding="UTF-8"?><svg xmlns="http://www.w3.org/2000/svg" viewBox="0 0 256 256"><defs><style>.d{fill:#fff;}.e{fill:#ad360d;}</style></defs><g id="a"/><g id="b"><g id="c"><g><path class="e" d="M128,0C68.2568,0,18.0763,40.9313,3.9641,96.28H15.5163v40.057c0,5.3665,1.6287,9.1997,6.8998,9.1997s7.0913-3.8332,7.0913-9.1997v-40.057h15.9081v38.1401c0,15.525-6.7083,25.2998-22.9993,25.2998-10.7564,0-17.4996-4.2633-20.8418-11.6269,9.6416,61.1461,62.5701,107.9069,126.4258,107.9069,70.6924,0,128-57.3075,128-128S198.6925,0,128,0Zm-43.0809,158.5698h-16.4825v-48.4901h-17.9204v-13.7996h52.3233v13.7996h-17.9204v48.4901Zm49.9296,0l-3.0548-13.2245h-17.081l-3.0551,13.2245h-16.8661l18.7831-62.2897h19.9327l18.7825,62.2897h-17.4412Zm66.9215,0h-16.4832v-24.7241h-13.416v24.7241h-16.4831v-62.2897h16.4831v23.1909h13.416v-23.1909h16.4832v62.2897Z"/><path class="e" d="M123.349,108.5463h-.383c-1.3418,6.3247-2.9711,13.7996-4.3123,19.7407l-.9964,4.3129h11.1924l-.9963-4.3129c-1.3418-5.9411-3.1626-13.416-4.5044-19.7407Z"/><path class="d" d="M22.4161,159.72c16.291,0,22.9993-9.7748,22.9993-25.2998v-38.1401h-15.9081v40.057c0,5.3665-1.8208,9.1997-7.0913,9.1997s-6.8998-3.8332-6.8998-9.1997v-40.057H3.9641c-2.5863,10.1438-3.9641,20.7708-3.9641,31.72,0,6.8368,.542,13.5464,1.5742,20.0931,3.3422,7.3636,10.0855,11.6269,20.8418,11.6269Z"/><polygon class="d" points="102.8395 96.28 50.5162 96.28 50.5162 110.0796 68.4366 110.0796 68.4366 158.5698 84.9191 158.5698 84.9191 110.0796 102.8395 110.0796 102.8395 96.28"/><path class="d" d="M113.5748,96.28l-18.7831,62.2897h16.8661l3.0551-13.2245h17.081l3.0548,13.2245h17.4412l-18.7825-62.2897h-19.9327Zm4.0826,36.3199l.9964-4.3129c1.3412-5.9411,2.9705-13.416,4.3123-19.7407h.383c1.3418,6.3247,3.1626,13.7996,4.5044,19.7407l.9963,4.3129h-11.1924Z"/><polygon class="d" points="185.2871 119.4709 171.8711 119.4709 171.8711 96.28 155.3881 96.28 155.3881 158.5698 171.8711 158.5698 171.8711 133.8456 185.2871 133.8456 185.2871 158.5698 201.7703 158.5698 201.7703 96.28 185.2871 96.28 185.2871 119.4709"/></g></g></g></svg>