<svg xmlns="http://www.w3.org/2000/svg" xmlns:xlink="http://www.w3.org/1999/xlink" viewBox="0 0 67 77"><defs><style>.cls-1{fill:none;}.cls-2{clip-path:url(#clip-path);}.cls-3{fill:#481a52;}.cls-4{fill:#21a595;}</style><clipPath id="clip-path"><rect class="cls-1" width="67" height="77"/></clipPath></defs><g id="Layer_2" data-name="Layer 2"><g id="Layer_1-2" data-name="Layer 1"><g id="Group_65" data-name="Group 65"><g class="cls-2"><g id="Group_64" data-name="Group 64"><path id="Path_44" data-name="Path 44" class="cls-3" d="M51.841,76.291c-1.97-2.028-3.978-4.563-4.088-8.037H8.538V8.317H36.007V20.341a4.269,4.269,0,0,0,4.269,4.269H55.383V59.731c.2-.014.407-.027.612-.027a8.2374,8.2374,0,0,1,3.527.793,8.0943,8.0943,0,0,1,4.4-.742V20.341a4.27,4.27,0,0,0-4.269-4.269H44.545V4.048A4.2679,4.2679,0,0,0,40.278-.221H4.269A4.2679,4.2679,0,0,0,0,4.046V72.523a4.269,4.269,0,0,0,4.269,4.269H52.34c-.163-.162-.329-.328-.5-.5"/><path id="Path_45" data-name="Path 45" class="cls-4" d="M59.428,65.677a4.047,4.047,0,0,0-7.572,1.984c0,1.712.843,3.278,2.908,5.4,1,1.029,2,1.88,2.037,1.916l2.627,2.244,2.628-2.244c.042-.037,1.036-.887,2.037-1.916,2.064-2.125,2.908-3.69,2.908-5.4a4.046,4.046,0,0,0-7.573-1.984"/></g></g></g></g></g></svg>