<?xml version="1.0" standalone="no"?><!DOCTYPE svg PUBLIC "-//W3C//DTD SVG 1.1//EN" "http://www.w3.org/Graphics/SVG/1.1/DTD/svg11.dtd" ><svg xmlns="http://www.w3.org/2000/svg"><metadata>Generated by Glyphter</metadata><defs><font id="utah-design-system" horiz-adv-x="0"><font-face units-per-em="1024" ascent="1024" descent="0" font-family="utah-design-system" font-weight="normal" /><missing-glyph horiz-adv-x="0" /><glyph unicode="&#x0041;" d="M853.57,0.5C853.57,0.5,56.544,0.5,56.544,0.5C25.314,0.5,0,25.814,0,57.044C0,57.044,0,854.07,0,854.07C0,885.301,25.314,910.615,56.544,910.615C56.544,910.615,454.688,910.615,454.688,910.615C454.688,910.615,454.688,797.526,454.688,797.526C454.688,797.526,113.089,797.526,113.089,797.526C113.089,797.526,113.089,113.589,113.089,113.589C113.089,113.589,797.026,113.589,797.026,113.589C797.026,113.589,797.026,455.188,797.026,455.188C797.026,455.188,910.115,455.188,910.115,455.188C910.115,455.188,910.115,57.044,910.115,57.044C910.115,25.814,884.801,0.5,853.57,0.5C853.57,0.5,853.57,0.5,853.57,0.5M569.312,1024.443C569.312,1024.443,569.312,911.411,569.312,911.411C569.312,911.411,830.987,911.411,830.987,911.411C830.987,911.411,432.104,512.472,432.104,512.472C432.104,512.472,512.028,432.547,512.028,432.547C512.028,432.547,910.911,831.43,910.911,831.43C910.911,831.43,910.911,569.812,910.911,569.812C910.911,569.812,1024,569.812,1024,569.812C1024,569.812,1024,1024.443,1024,1024.443C1024,1024.443,569.312,1024.443,569.312,1024.443C569.312,1024.443,569.312,1024.443,569.312,1024.443" class="icon-FontIcon-A"/><glyph unicode="&#x0042;" d="M812.677,918.319C812.677,837.098,900.637,786.319,970.97,826.93C1003.639,845.761,1023.794,880.596,1023.794,918.319C1023.794,999.541,935.834,1050.32,865.441,1009.709C832.772,990.878,812.677,956.043,812.677,918.319M408.072,918.319C408.072,837.098,496.032,786.319,566.424,826.93C599.034,845.761,619.189,880.596,619.189,918.319C619.189,999.541,531.228,1050.32,460.836,1009.709C428.167,990.878,408.072,956.043,408.072,918.319M1,918.319C1,837.098,88.96,786.319,159.292,826.93C191.962,845.761,212.057,880.596,212.057,918.319C212.057,999.541,124.096,1050.32,53.764,1009.709C21.095,990.878,1,956.043,1,918.319M812.677,512.03C812.677,430.748,900.637,379.969,970.97,420.58C1003.639,439.471,1023.794,474.307,1023.794,512.03C1023.794,593.252,935.834,644.03,865.441,603.419C832.772,584.528,812.677,549.693,812.677,512.03M408.072,512.03C408.072,430.748,496.032,379.969,566.424,420.58C599.034,439.471,619.189,474.307,619.189,512.03C619.189,593.252,531.228,644.03,460.836,603.419C428.167,584.528,408.072,549.693,408.072,512.03M1,512.03C1,430.748,88.96,379.969,159.292,420.58C191.962,439.471,212.057,474.307,212.057,512.03C212.057,593.252,124.096,644.03,53.764,603.419C21.095,584.528,1,549.693,1,512.03M812.677,105.74C812.677,24.458,900.637,-26.321,970.97,14.29C1003.639,33.182,1023.794,68.017,1023.794,105.74C1023.794,186.962,935.834,237.74,865.441,197.129C832.772,178.298,812.677,143.403,812.677,105.74M408.072,105.74C408.072,24.458,496.032,-26.321,566.424,14.29C599.034,33.182,619.189,68.017,619.189,105.74C619.189,186.962,531.228,237.74,460.836,197.129C428.167,178.298,408.072,143.403,408.072,105.74M1,105.74C1,24.458,88.96,-26.321,159.292,14.29C191.962,33.182,212.057,68.017,212.057,105.74C212.057,186.962,124.096,237.74,53.764,197.129C21.095,178.298,1,143.403,1,105.74" class="icon-FontIcon-B"/><glyph unicode="&#x0043;" d="M128,160C128,160,128,256,128,256C128,256,192,256,192,256C192,256,192,576,192,576C192,652.442,215.808,720.23,263.373,779.315C310.886,838.4,372.429,875.11,448,889.344C448,889.344,448,960,448,960C448,977.766,454.246,992.87,466.688,1005.312C479.078,1017.754,494.182,1024,512,1024C529.818,1024,544.922,1017.754,557.312,1005.312C569.754,992.87,576,977.766,576,960C576,960,576,889.344,576,889.344C651.571,875.11,713.114,838.656,760.627,780.032C808.243,721.306,832,653.312,832,576C832,576,832,256,832,256C832,256,896,256,896,256C896,256,896,160,896,160C896,160,128,160,128,160C128,160,128,160,128,160M512,0C485.325,0,462.694,9.37,444.058,28.006C425.37,46.694,416,69.325,416,96C416,96,608,96,608,96C608,69.325,598.682,46.694,579.994,28.006C561.306,9.37,538.675,0,512,0C512,0,512,0,512,0M288,256C288,256,736,256,736,256C736,256,736,576,736,576C736,638.208,714.24,691.098,670.669,734.669C627.098,778.24,574.208,800,512,800C449.792,800,396.902,778.24,353.331,734.669C309.76,691.098,288,638.208,288,576C288,576,288,256,288,256C288,256,288,256,288,256" class="icon-FontIcon-C"/><glyph unicode="&#x0044;" d="M512,191.973C529.785,191.973,544.876,198.225,557.325,210.675C569.775,223.07,576.027,238.161,576.027,256C576.027,273.785,569.775,288.876,557.325,301.272C544.876,313.775,529.785,319.973,512,319.973C494.215,319.973,479.124,313.721,466.675,301.272C454.225,288.876,447.973,273.785,447.973,256C447.973,238.161,454.225,223.07,466.675,210.675C479.124,198.225,494.215,191.973,512,191.973C512,191.973,512,191.973,512,191.973M463.98,396.019C463.98,396.019,561.368,396.019,561.368,396.019C561.368,428.84,564.224,452.177,569.991,465.974C575.811,479.717,589.77,497.287,611.975,518.629C643.126,548.81,664.684,574.626,676.648,595.914C688.667,617.256,694.649,640.862,694.649,666.678C694.649,715.507,677.996,755.281,644.689,785.947C611.382,816.613,568.913,831.973,517.336,831.973C472.01,831.973,432.667,819.955,399.36,795.971C365.999,771.988,342.663,739.544,329.351,698.637C329.351,698.637,416.013,662.636,416.013,662.636C424.044,687.535,436.709,706.883,454.009,720.627C471.363,734.37,491.574,741.268,514.695,741.268C539.594,741.268,560.02,734.154,576.027,719.98C591.98,705.752,600.01,687.104,600.01,663.983C600.01,643.557,593.112,625.287,579.315,609.334C565.571,593.327,550.211,577.752,533.288,562.661C502.191,534.205,482.897,510.868,475.352,492.652C467.752,474.435,463.98,442.206,463.98,396.019C463.98,396.019,463.98,396.019,463.98,396.019M512,0C441.775,0,375.539,13.312,313.344,39.99C251.149,66.668,196.716,103.316,149.989,149.989C103.316,196.662,66.668,251.096,39.99,313.29C13.312,375.539,0,441.721,0,512C0,583.087,13.312,649.539,39.99,711.357C66.668,773.066,103.316,827.284,149.989,873.957C196.716,920.63,251.149,957.332,313.344,983.956C375.539,1010.634,441.775,1024,512,1024C583.141,1024,649.593,1010.634,711.357,983.956C773.12,957.332,827.284,920.63,873.957,873.957C920.684,827.284,957.332,773.066,984.01,711.357C1010.688,649.539,1024,583.087,1024,512C1024,441.721,1010.688,375.539,984.01,313.344C957.332,251.096,920.684,196.662,873.957,149.989C827.284,103.316,773.12,66.668,711.357,39.99C649.593,13.312,583.141,0,512,0C512,0,512,0,512,0M512,95.987C627.55,95.987,725.747,136.408,806.643,217.304C887.539,298.2,928.013,396.45,928.013,512C928.013,627.496,887.539,725.747,806.643,806.643C725.747,887.539,627.55,927.96,512,927.96C396.45,927.96,298.253,887.539,217.357,806.643C136.461,725.747,95.987,627.496,95.987,512C95.987,396.45,136.461,298.2,217.357,217.304C298.253,136.408,396.45,95.987,512,95.987C512,95.987,512,95.987,512,95.987" class="icon-FontIcon-D"/><glyph unicode="&#x0045;" d="M146.5,0C146.5,0,146.5,914.261,146.5,914.261C146.5,944.754,157.195,970.638,178.528,991.972C199.862,1013.305,225.746,1024,256.239,1024C256.239,1024,768.182,1024,768.182,1024C798.674,1024,824.559,1013.305,845.892,991.972C867.225,970.638,877.92,944.754,877.92,914.261C877.92,914.261,877.92,0,877.92,0C877.92,0,512.182,146.261,512.182,146.261C512.182,146.261,146.5,0,146.5,0C146.5,0,146.5,0,146.5,0M256.239,163.044C256.239,163.044,512.239,265.159,512.239,265.159C512.239,265.159,768.239,163.044,768.239,163.044C768.239,163.044,768.239,914.261,768.239,914.261C768.239,914.261,256.239,914.261,256.239,914.261C256.239,914.261,256.239,163.044,256.239,163.044C256.239,163.044,256.239,163.044,256.239,163.044M256.239,914.261C256.239,914.261,768.239,914.261,768.239,914.261C768.239,914.261,256.239,914.261,256.239,914.261C256.239,914.261,256.239,914.261,256.239,914.261" class="icon-FontIcon-E"/><glyph unicode="&#x0046;" d="M946.294,0.5C946.294,0.5,582.055,364.682,582.055,364.682C551.564,342.326,518.058,324.806,481.481,312.063C444.903,299.378,406.335,293.063,365.718,293.063C264.177,293.063,177.825,328.617,106.661,399.667C35.554,470.831,0,557.184,0,658.725C0,760.323,35.554,846.675,106.661,917.782C177.825,988.89,264.177,1024.443,365.718,1024.443C467.316,1024.443,553.612,988.89,624.776,917.782C695.883,846.675,731.437,760.323,731.437,658.725C731.437,618.108,725.065,579.54,712.38,542.962C699.694,506.385,682.117,472.879,659.818,442.388C659.818,442.388,1024,78.149,1024,78.149C1024,78.149,946.294,0.5,946.294,0.5C946.294,0.5,946.294,0.5,946.294,0.5M365.718,402.739C436.826,402.739,497.238,427.655,547.013,477.43C596.845,527.205,621.704,587.674,621.704,658.725C621.704,729.832,596.788,790.245,547.013,840.076C497.238,889.851,436.826,914.711,365.718,914.711C294.611,914.711,234.199,889.851,184.424,840.076C134.592,790.301,109.733,729.832,109.733,658.725C109.733,587.674,134.649,527.205,184.424,477.43C234.199,427.655,294.611,402.739,365.718,402.739C365.718,402.739,365.718,402.739,365.718,402.739" class="icon-FontIcon-F"/><glyph unicode="&#x0047;" d="M340.657,119.5C340.657,119.5,0,462.056,0,462.056C0,462.056,100.802,562.923,100.802,562.923C100.802,562.923,340.657,324.968,340.657,324.968C340.657,324.968,923.198,905.479,923.198,905.479C923.198,905.479,1024,802.712,1024,802.712C1024,802.712,340.657,119.5,340.657,119.5C340.657,119.5,340.657,119.5,340.657,119.5" class="icon-FontIcon-G"/><glyph unicode="&#x0048;" d="M341.333,230.667C341.333,230.667,512,332.053,512,332.053C512,332.053,684.053,230.667,684.053,230.667C684.053,230.667,638.667,422.667,638.667,422.667C638.667,422.667,786.72,549.333,786.72,549.333C786.72,549.333,590.667,566.667,590.667,566.667C590.667,566.667,512,749.333,512,749.333C512,749.333,433.387,566.667,433.387,566.667C433.387,566.667,237.333,549.333,237.333,549.333C237.333,549.333,386.72,422.667,386.72,422.667C386.72,422.667,341.333,230.667,341.333,230.667C341.333,230.667,341.333,230.667,341.333,230.667M196,32C196,32,280,386.72,280,386.72C280,386.72,0,625.333,0,625.333C0,625.333,368,657.333,368,657.333C368,657.333,512,992,512,992C512,992,656,656,656,656C656,656,1024,625.333,1024,625.333C1024,625.333,744,386.72,744,386.72C744,386.72,828.053,32,828.053,32C828.053,32,512,220.053,512,220.053C512,220.053,196,32,196,32C196,32,196,32,196,32" class="icon-FontIcon-H"/><glyph unicode="&#x0049;" d="M463.98,256C463.98,256,559.966,256,559.966,256C559.966,256,559.966,576.027,559.966,576.027C559.966,576.027,463.98,576.027,463.98,576.027C463.98,576.027,463.98,256,463.98,256C463.98,256,463.98,256,463.98,256M512,672.013C525.312,672.013,536.63,676.702,545.954,686.026C555.331,695.35,559.966,706.668,559.966,719.98C559.966,733.292,555.331,744.664,545.954,753.987C536.63,763.311,525.312,768,512,768C498.688,768,487.316,763.311,477.992,753.987C468.669,744.664,463.98,733.292,463.98,719.98C463.98,706.668,468.669,695.35,477.992,686.026C487.316,676.648,498.688,672.013,512,672.013C512,672.013,512,672.013,512,672.013M512,0C441.721,0,375.539,13.312,313.344,39.99C251.096,66.668,196.662,103.316,149.989,149.989C103.316,196.716,66.668,251.149,39.99,313.344C13.312,375.539,0,441.775,0,512C0,583.141,13.312,649.593,39.99,711.357C66.668,773.12,103.316,827.284,149.989,873.957C196.662,920.63,251.096,957.332,313.344,984.01C375.539,1010.688,441.721,1024,512,1024C583.087,1024,649.539,1010.688,711.357,984.01C773.066,957.332,827.284,920.684,873.957,873.957C920.63,827.284,957.332,773.12,983.956,711.357C1010.634,649.593,1024,583.141,1024,512C1024,441.775,1010.634,375.539,983.956,313.344C957.332,251.149,920.63,196.716,873.957,149.989C827.284,103.316,773.066,66.668,711.357,39.99C649.539,13.312,583.087,0,512,0C512,0,512,0,512,0M512,95.987C627.496,95.987,725.747,136.461,806.643,217.357C887.539,298.253,927.96,396.45,927.96,512C927.96,627.55,887.539,725.747,806.643,806.643C725.747,887.539,627.496,928.013,512,928.013C396.45,928.013,298.2,887.539,217.304,806.643C136.408,725.747,95.987,627.55,95.987,512C95.987,396.45,136.408,298.253,217.304,217.357C298.2,136.461,396.45,95.987,512,95.987C512,95.987,512,95.987,512,95.987" class="icon-FontIcon-I"/><glyph unicode="&#x004a;" d="M314.714,0C314.714,0,224,90.654,224,90.654C224,90.654,511.985,378.699,511.985,378.699C511.985,378.699,800.03,90.654,800.03,90.654C800.03,90.654,709.316,0,709.316,0C709.316,0,511.985,197.271,511.985,197.271C511.985,197.271,314.714,0,314.714,0C314.714,0,314.714,0,314.714,0M511.985,645.301C511.985,645.301,224,933.406,224,933.406C224,933.406,314.714,1024,314.714,1024C314.714,1024,511.985,826.729,511.985,826.729C511.985,826.729,709.316,1024,709.316,1024C709.316,1024,800.03,933.406,800.03,933.406C800.03,933.406,511.985,645.301,511.985,645.301C511.985,645.301,511.985,645.301,511.985,645.301" class="icon-FontIcon-J"/><glyph unicode="&#x004b;" d="M512.335,0C512.335,0,265.5,246.835,265.5,246.835C265.5,246.835,343.222,324.608,343.222,324.608C343.222,324.608,512.335,155.443,512.335,155.443C512.335,155.443,681.449,324.608,681.449,324.608C681.449,324.608,759.222,246.835,759.222,246.835C759.222,246.835,512.335,0,512.335,0C512.335,0,512.335,0,512.335,0M343.222,699.392C343.222,699.392,265.5,777.165,265.5,777.165C265.5,777.165,512.335,1024,512.335,1024C512.335,1024,759.17,777.165,759.17,777.165C759.17,777.165,681.449,699.392,681.449,699.392C681.449,699.392,512.335,868.557,512.335,868.557C512.335,868.557,343.222,699.392,343.222,699.392C343.222,699.392,343.222,699.392,343.222,699.392" class="icon-FontIcon-K"/><glyph unicode="&#x004c;" d="M512,345.357C512,345.357,728.01,561.368,728.01,561.368C728.01,561.368,659.995,629.329,659.995,629.329C659.995,629.329,512,481.334,512,481.334C512,481.334,364.059,629.329,364.059,629.329C364.059,629.329,295.99,561.368,295.99,561.368C295.99,561.368,512,345.357,512,345.357C512,345.357,512,345.357,512,345.357M512,0C441.775,0,375.539,13.366,313.344,39.99C251.149,66.668,196.716,103.37,150.043,150.043C103.316,196.716,66.668,251.149,39.99,313.344C13.312,375.592,0,441.775,0,512C0,583.141,13.312,649.593,39.99,711.357C66.668,773.12,103.316,827.338,150.043,874.011C196.716,920.684,251.149,957.332,313.344,984.01C375.539,1010.688,441.775,1024,512,1024C583.141,1024,649.593,1010.688,711.357,984.01C773.12,957.332,827.338,920.684,874.011,874.011C920.684,827.338,957.332,773.12,984.01,711.357C1010.688,649.593,1024,583.141,1024,512C1024,441.775,1010.688,375.592,984.01,313.344C957.332,251.149,920.684,196.716,874.011,150.043C827.284,103.37,773.12,66.668,711.357,39.99C649.593,13.366,583.141,0,512,0C512,0,512,0,512,0M512,95.987C627.55,95.987,725.747,136.461,806.643,217.357C887.539,298.253,928.013,396.45,928.013,512C928.013,627.55,887.539,725.8,806.643,806.696C725.747,887.592,627.55,928.013,512,928.013C396.45,928.013,298.253,887.592,217.357,806.696C136.461,725.8,95.987,627.55,95.987,512C95.987,396.45,136.461,298.253,217.357,217.357C298.253,136.461,396.45,95.987,512,95.987C512,95.987,512,95.987,512,95.987" class="icon-FontIcon-L"/><glyph unicode="&#x004d;" d="M512,678.643C512,678.643,295.99,462.632,295.99,462.632C295.99,462.632,364.059,394.671,364.059,394.671C364.059,394.671,512,542.666,512,542.666C512,542.666,659.941,394.671,659.941,394.671C659.941,394.671,728.01,462.632,728.01,462.632C728.01,462.632,512,678.643,512,678.643C512,678.643,512,678.643,512,678.643M512,1024C582.225,1024,648.461,1010.634,710.656,984.01C772.851,957.332,827.284,920.63,873.957,873.957C920.684,827.284,957.332,772.851,984.01,710.656C1010.688,648.408,1024,582.225,1024,512C1024,440.859,1010.688,374.407,984.01,312.643C957.332,250.88,920.684,196.662,873.957,149.989C827.284,103.316,772.851,66.668,710.656,39.99C648.461,13.312,582.225,0,512,0C440.859,0,374.407,13.312,312.643,39.99C250.88,66.668,196.662,103.316,149.989,149.989C103.316,196.662,66.668,250.88,39.99,312.643C13.312,374.407,0,440.859,0,512C0,582.225,13.312,648.408,39.99,710.656C66.668,772.851,103.316,827.284,149.989,873.957C196.716,920.63,250.88,957.332,312.643,983.956C374.407,1010.634,440.859,1024,512,1024C512,1024,512,1024,512,1024M512,927.96C396.45,927.96,298.253,887.539,217.357,806.643C136.461,725.747,95.987,627.55,95.987,512C95.987,396.45,136.461,298.2,217.357,217.304C298.253,136.408,396.45,95.987,512,95.987C627.55,95.987,725.747,136.408,806.643,217.304C887.539,298.2,928.013,396.45,928.013,512C928.013,627.55,887.539,725.747,806.643,806.643C725.747,887.539,627.55,927.96,512,927.96C512,927.96,512,927.96,512,927.96" class="icon-FontIcon-M"/><glyph unicode="&#x004e;" d="M1024,310.749C1024,310.749,915.251,202,915.251,202C915.251,202,512,605.115,512,605.115C512,605.115,108.749,202,108.749,202C108.749,202,0,310.749,0,310.749C0,310.749,512,822.749,512,822.749C512,822.749,1024,310.749,1024,310.749C1024,310.749,1024,310.749,1024,310.749" class="icon-FontIcon-N"/><glyph unicode="&#x004f;" d="M310.749,0C310.749,0,202,108.749,202,108.749C202,108.749,605.115,512,605.115,512C605.115,512,202,915.251,202,915.251C202,915.251,310.749,1024,310.749,1024C310.749,1024,822.749,512,822.749,512C822.749,512,310.749,0,310.749,0C310.749,0,310.749,0,310.749,0" class="icon-FontIcon-O"/><glyph unicode="&#x0050;" d="M0,714C0,714,108.749,822.749,108.749,822.749C108.749,822.749,512,419.634,512,419.634C512,419.634,915.251,822.749,915.251,822.749C915.251,822.749,1024,714,1024,714C1024,714,512,202,512,202C512,202,0,714,0,714C0,714,0,714,0,714" class="icon-FontIcon-P"/><glyph unicode="&#x0051;" d="M714,1024C714,1024,822.749,915.251,822.749,915.251C822.749,915.251,419.634,512,419.634,512C419.634,512,822.749,108.749,822.749,108.749C822.749,108.749,714,0,714,0C714,0,202,512,202,512C202,512,714,1024,714,1024C714,1024,714,1024,714,1024" class="icon-FontIcon-Q"/><glyph unicode="&#x0052;" d="M1024,512C1024,512,933.376,421.376,933.376,421.376C933.376,421.376,576,778.688,576,778.688C576,778.688,576,0,576,0C576,0,448,0,448,0C448,0,448,778.688,448,778.688C448,778.688,90.624,421.376,90.624,421.376C90.624,421.376,0,512,0,512C0,512,512,1024,512,1024C512,1024,1024,512,1024,512C1024,512,1024,512,1024,512" class="icon-FontIcon-R"/><glyph unicode="&#x0053;" d="M512,0C512,0,421.376,90.624,421.376,90.624C421.376,90.624,778.688,448,778.688,448C778.688,448,0,448,0,448C0,448,0,576,0,576C0,576,778.688,576,778.688,576C778.688,576,421.376,933.376,421.376,933.376C421.376,933.376,512,1024,512,1024C512,1024,1024,512,1024,512C1024,512,512,0,512,0C512,0,512,0,512,0" class="icon-FontIcon-S"/><glyph unicode="&#x0054;" d="M0,512C0,512,90.624,602.624,90.624,602.624C90.624,602.624,448,245.312,448,245.312C448,245.312,448,1024,448,1024C448,1024,576,1024,576,1024C576,1024,576,245.312,576,245.312C576,245.312,933.376,602.624,933.376,602.624C933.376,602.624,1024,512,1024,512C1024,512,512,0,512,0C512,0,0,512,0,512C0,512,0,512,0,512" class="icon-FontIcon-T"/><glyph unicode="&#x0055;" d="M512,1024C512,1024,602.624,933.376,602.624,933.376C602.624,933.376,245.312,576,245.312,576C245.312,576,1024,576,1024,576C1024,576,1024,448,1024,448C1024,448,245.312,448,245.312,448C245.312,448,602.624,90.624,602.624,90.624C602.624,90.624,512,0,512,0C512,0,0,512,0,512C0,512,512,1024,512,1024C512,1024,512,1024,512,1024" class="icon-FontIcon-U"/><glyph unicode="&#x0056;" d="M435.2,0C435.2,0,435.2,435.2,435.2,435.2C435.2,435.2,0,435.2,0,435.2C0,435.2,0,588.8,0,588.8C0,588.8,435.2,588.8,435.2,588.8C435.2,588.8,435.2,1024,435.2,1024C435.2,1024,588.8,1024,588.8,1024C588.8,1024,588.8,588.8,588.8,588.8C588.8,588.8,1024,588.8,1024,588.8C1024,588.8,1024,435.2,1024,435.2C1024,435.2,588.8,435.2,588.8,435.2C588.8,435.2,588.8,0,588.8,0C588.8,0,435.2,0,435.2,0C435.2,0,435.2,0,435.2,0" class="icon-FontIcon-V"/><glyph unicode="&#x0057;" d="M0,435.5C0,435.5,0,589.1,0,589.1C0,589.1,1024,589.1,1024,589.1C1024,589.1,1024,435.5,1024,435.5C1024,435.5,0,435.5,0,435.5C0,435.5,0,435.5,0,435.5" class="icon-FontIcon-W"/><glyph unicode="&#x0058;" d="M890.423,0C890.423,0,512,378.423,512,378.423C512,378.423,133.487,0,133.487,0C133.487,0,0,133.577,0,133.577C0,133.577,378.423,512,378.423,512C378.423,512,0,890.423,0,890.423C0,890.513,133.487,1024,133.487,1024C133.487,1024,512,645.577,512,645.577C512,645.577,890.423,1024,890.423,1024C890.423,1024,1024,890.423,1024,890.423C1024,890.423,645.577,512,645.577,512C645.577,512,1024,133.577,1024,133.577C1024,133.577,890.423,0,890.423,0C890.423,0,890.423,0,890.423,0" class="icon-FontIcon-X"/><glyph unicode="&#x0059;" d="M118.696,117.696C118.696,117.696,201.32,117.696,201.32,117.696C201.32,117.696,672.04,588.352,672.04,588.352C672.04,588.352,589.352,671.04,589.352,671.04C589.352,671.04,118.696,200.32,118.696,200.32C118.696,200.32,118.696,117.696,118.696,117.696C118.696,117.696,118.696,117.696,118.696,117.696M921.384,669.568C921.384,669.632,670.632,920.384,670.632,920.384C670.632,920.384,739.24,988.992,739.24,988.992C762.6,1012.352,790.376,1024,822.632,1024C854.888,1024,882.664,1012.352,905.96,988.992C905.96,988.992,989.992,904.96,989.992,904.96C1012.392,882.496,1023.592,854.784,1023.592,821.632C1023.592,788.48,1012.392,760.64,989.992,738.24C989.992,738.24,921.384,669.568,921.384,669.568C921.384,669.568,921.384,669.632,921.384,669.632M838.696,586.944C838.696,586.944,251.752,0,251.752,0C251.752,0,1,0,1,0C1,0,1,250.752,1,250.752C1,250.752,587.944,837.696,587.944,837.696C587.944,837.696,838.696,586.944,838.696,586.944C838.696,586.944,838.696,586.944,838.696,586.944M631.4,628.992C631.4,628.992,589.352,671.04,589.352,671.04C589.352,671.04,672.04,588.352,672.04,588.352C672.04,588.352,631.4,628.992,631.4,628.992C631.4,628.992,631.4,628.992,631.4,628.992" class="icon-FontIcon-Y"/><glyph unicode="&#x005a;" d="M95.879,0C69.255,0,46.619,9.324,27.971,27.971C9.324,46.619,0,69.255,0,95.879C0,95.879,0,798.936,0,798.936C0,825.56,9.324,848.249,27.971,866.897C46.619,885.491,69.255,894.814,95.879,894.814C95.879,894.814,512.647,894.814,512.647,894.814C512.701,894.814,416.822,798.936,416.822,798.936C416.822,798.936,95.879,798.936,95.879,798.936C95.879,798.936,95.879,95.879,95.879,95.879C95.879,95.879,798.936,95.879,798.936,95.879C798.936,95.879,798.936,414.127,798.936,414.127C798.936,414.127,894.814,511.353,894.814,511.353C894.814,511.353,894.814,95.879,894.814,95.879C894.814,69.255,885.491,46.619,866.843,27.971C848.195,9.324,825.613,0,798.936,0C798.936,0,95.879,0,95.879,0C95.879,0,95.879,0,95.879,0M679.128,882.85C679.128,882.85,748.328,813.595,748.328,813.595C748.328,813.595,415.475,483.382,415.475,483.382C415.475,483.382,415.475,415.421,415.475,415.421C415.475,415.421,483.328,415.421,483.328,415.421C483.328,415.421,814.942,745.688,814.942,745.688C814.942,745.688,881.556,677.78,881.556,677.78C881.556,677.78,523.372,319.596,523.372,319.596C523.372,319.596,319.596,319.596,319.596,319.596C319.596,319.596,319.596,521.971,319.596,521.971C319.596,521.971,679.128,882.85,679.128,882.85C679.128,882.85,679.128,882.85,679.128,882.85M881.556,677.78C881.556,677.78,679.128,882.85,679.128,882.85C679.128,882.85,792.307,996.083,792.307,996.083C810.954,1014.676,833.32,1024,859.567,1024C885.706,1024,908.126,1014.676,926.774,996.083C926.774,996.083,996.029,926.774,996.029,926.774C1014.676,908.18,1024,885.76,1024,859.513C1024,833.374,1014.676,810.954,996.029,792.307C996.029,792.307,881.556,677.78,881.556,677.78C881.556,677.78,881.556,677.78,881.556,677.78" class="icon-FontIcon-Z"/><glyph unicode="&#x0061;" d="M354.364,28.5C354.364,28.5,265.493,175.447,265.493,175.447C265.493,175.447,98.389,213.368,98.389,213.368C98.389,213.368,113.812,384.034,113.812,384.034C113.812,384.034,0,512.047,0,512.047C0,512.047,113.812,640.06,113.812,640.06C113.812,640.06,98.389,810.726,98.389,810.726C98.389,810.726,265.493,848.647,265.493,848.647C265.493,848.647,354.364,995.594,354.364,995.594C354.364,995.594,512,927.999,512,927.999C512,927.999,669.636,995.594,669.636,995.594C669.636,995.594,758.507,848.647,758.507,848.647C758.507,848.647,925.611,810.726,925.611,810.726C925.611,810.726,910.188,640.06,910.188,640.06C910.188,640.06,1024,512.047,1024,512.047C1024,512.047,910.188,384.034,910.188,384.034C910.188,384.034,925.611,213.368,925.611,213.368C925.611,213.368,758.507,175.447,758.507,175.447C758.507,175.447,669.636,28.5,669.636,28.5C669.636,28.5,512,96.095,512,96.095C512,96.095,354.364,28.5,354.364,28.5C354.364,28.5,354.364,28.5,354.364,28.5M388.721,136.356C388.721,136.356,512,188.478,512,188.478C512,188.478,635.279,136.356,635.279,136.356C635.279,136.356,703.994,251.339,703.994,251.339C703.994,251.339,834.399,280.962,834.399,280.962C834.399,280.962,822.488,412.487,822.488,412.487C822.488,412.487,910.188,512.047,910.188,512.047C910.188,512.047,822.488,611.607,822.488,611.607C822.488,611.607,834.399,743.132,834.399,743.132C834.399,743.132,703.994,772.755,703.994,772.755C703.994,772.755,635.279,887.738,635.279,887.738C635.279,887.738,512,835.616,512,835.616C512,835.616,388.721,887.738,388.721,887.738C388.721,887.738,320.006,772.755,320.006,772.755C320.006,772.755,189.601,744.353,189.601,744.353C189.601,744.353,201.512,611.607,201.512,611.607C201.512,611.607,113.812,512.047,113.812,512.047C113.812,512.047,202.632,412.487,202.632,412.487C202.632,412.487,189.601,279.792,189.601,279.792C189.652,279.792,320.006,250.117,320.006,250.117C320.006,250.117,388.721,136.356,388.721,136.356C388.721,136.356,388.721,136.356,388.721,136.356M451.582,341.38C451.582,341.38,733.617,622.296,733.617,622.296C733.617,622.296,673.148,682.714,673.148,682.714C673.148,682.714,451.582,462.267,451.582,462.267C451.582,462.267,350.852,561.827,350.852,561.827C350.852,561.827,290.383,501.358,290.383,501.358C290.383,501.358,451.582,341.38,451.582,341.38C451.582,341.38,451.582,341.38,451.582,341.38" class="icon-FontIcon-aa"/><glyph unicode="&#x0062;" d="M384.057,0C384.057,0,363.792,161.684,363.792,161.684C352.151,167.074,338.677,174.242,323.371,183.296C308.119,192.243,294.645,200.758,282.95,208.842C282.95,208.842,133.446,145.516,133.446,145.516C133.446,145.516,5.5,367.832,5.5,367.832C5.5,367.832,133.446,464.842,133.446,464.842C132.53,472.064,131.883,479.879,131.452,488.394C130.967,496.909,130.751,504.778,130.751,512C130.751,518.306,130.967,525.689,131.452,534.259C131.883,542.774,132.53,551.074,133.446,559.158C133.446,559.158,5.5,656.168,5.5,656.168C5.5,656.168,133.446,877.137,133.446,877.137C133.446,877.137,283.004,815.158,283.004,815.158C294.645,823.242,307.903,831.542,322.778,840.057C337.599,848.627,351.289,856.01,363.846,862.316C363.846,862.316,384.057,1024,384.057,1024C384.057,1024,640.057,1024,640.057,1024C640.057,1024,660.267,862.316,660.267,862.316C673.741,855.148,687.215,847.71,700.688,840.057C714.162,832.458,727.151,824.158,739.762,815.158C739.762,815.158,890.613,877.137,890.613,877.137C890.613,877.137,1018.613,656.168,1018.613,656.168C1018.613,656.168,890.613,557.811,890.613,557.811C891.529,549.726,892.015,541.858,892.015,534.259C892.015,534.259,892.015,512,892.015,512C892.015,505.694,891.799,498.526,891.368,490.442C890.883,482.358,890.613,473.843,890.613,464.842C890.613,464.842,1017.266,367.832,1017.266,367.832C1017.266,367.832,889.266,145.516,889.266,145.516C889.266,145.516,739.762,208.842,739.762,208.842C727.151,199.842,713.892,191.326,699.988,183.296C686.083,175.158,672.825,167.99,660.267,161.684C660.267,161.684,640.003,0,640.003,0C640.003,0,384.057,0,384.057,0C384.057,0,384.057,0,384.057,0M509.308,346.328C555.172,346.328,594.246,362.496,626.583,394.833C658.92,427.17,675.088,466.189,675.088,512C675.088,557.811,658.92,596.83,626.583,629.167C594.246,661.504,555.172,677.672,509.308,677.672C464.414,677.672,425.609,661.504,392.788,629.167C360.02,596.83,343.636,557.811,343.636,512C343.636,466.189,360.02,427.17,392.788,394.833C425.609,362.496,464.414,346.328,509.308,346.328C509.308,346.328,509.308,346.328,509.308,346.328M509.308,432.505C487.75,432.505,469.156,440.374,453.419,456.057C437.682,471.795,429.813,490.442,429.813,512C429.813,533.558,437.682,552.205,453.419,567.943C469.156,583.626,487.75,591.495,509.308,591.495C530.866,591.495,549.513,583.626,565.251,567.943C580.988,552.205,588.857,533.558,588.857,512C588.857,490.442,580.988,471.795,565.251,456.057C549.513,440.374,530.866,432.505,509.308,432.505C509.308,432.505,509.308,432.505,509.308,432.505M458.162,86.285C458.162,86.285,565.897,86.285,565.897,86.285C565.897,86.285,582.066,227.705,582.066,227.705C608.151,234.927,632.673,245.491,655.524,259.395C678.43,273.3,700.634,290.6,722.192,311.242C722.192,311.242,852.887,254.653,852.887,254.653C852.941,254.653,908.129,343.579,908.129,343.579C908.129,343.579,792.255,431.158,792.255,431.158C796.783,445.494,799.693,459.183,801.04,472.226C802.388,485.268,803.034,498.526,803.034,512C803.034,524.611,802.388,536.953,801.04,549.08C799.693,561.152,797.214,574.841,793.603,590.147C793.603,590.147,909.53,680.421,909.53,680.421C909.53,680.421,855.582,769.347,855.582,769.347C855.582,769.347,722.192,712.758,722.192,712.758C703.329,731.621,681.34,748.436,656.171,763.257C631.056,778.078,606.804,788.642,583.413,794.947C583.413,794.947,565.897,937.715,565.897,937.715C565.897,937.715,458.162,937.715,458.162,937.715C458.162,937.715,440.646,794.947,440.646,794.947C415.477,788.642,391.225,778.779,367.888,765.305C344.498,751.832,322.078,734.747,300.52,714.105C300.52,714.105,169.825,769.347,169.825,769.347C169.825,769.347,115.93,680.421,115.93,680.421C115.93,680.421,229.109,592.842,229.109,592.842C225.552,578.506,222.857,564.547,221.025,551.074C219.193,537.6,218.33,524.611,218.33,512C218.276,499.389,219.193,486.616,221.025,473.573C222.804,460.584,225.498,446.895,229.109,432.505C229.109,432.505,115.93,343.579,115.93,343.579C115.93,343.579,169.825,254.653,169.825,254.653C169.825,254.653,300.52,309.895,300.52,309.895C321.161,290.169,343.151,273.516,366.541,260.042C389.877,246.568,414.615,236.275,440.646,229.053C440.646,229.053,458.162,86.285,458.162,86.285C458.162,86.285,458.162,86.285,458.162,86.285" class="icon-FontIcon-bb"/><glyph unicode="&#x0063;" d="M320,192C320,192,704,192,704,192C704,192,704,288.028,704,288.028C704,287.972,320,287.972,320,287.972C320,287.972,320,192,320,192C320,192,320,192,320,192M320,384C320,384,704,384,704,384C704,384,704,479.972,704,479.972C704,479.972,320,479.972,320,479.972C320,479.972,320,384,320,384C320,384,320,384,320,384M223.972,0C197.348,0,174.649,9.33,156.046,28.046C137.33,46.706,128,69.348,128,96.028C128,96.028,128,928.028,128,928.028C128,954.652,137.33,977.351,156.046,995.954C174.649,1014.67,197.348,1024,223.972,1024C223.972,1024,640,1024,640,1024C640,1024,896,768,896,768C896,768,896,95.972,896,95.972C896,69.348,886.67,46.706,867.954,28.046C849.351,9.33,826.652,0,800.028,0C800.028,0,224.028,0,224.028,0C224.028,0,224.028,0,224.028,0M576,704C576,704,576,928.028,576,928.028C576,927.972,224.028,927.972,224.028,927.972C224.028,927.972,224.028,95.972,224.028,95.972C224.028,95.972,800.028,95.972,800.028,95.972C800.028,95.972,800.028,704,800.028,704C800.028,704,576,704,576,704C576,704,576,704,576,704M224.028,927.972C224.028,927.972,224.028,675.954,224.028,675.954C224.028,675.954,224.028,927.972,224.028,927.972C224.028,927.972,224.028,95.972,224.028,95.972C224.028,95.972,224.028,927.972,224.028,927.972C224.028,927.972,224.028,927.972,224.028,927.972" class="icon-FontIcon-cc"/><glyph unicode="&#x0064;" d="M109.696,0C79.232,0,53.312,10.688,32,32.064C10.688,53.376,0,79.232,0,109.696C0,109.696,0,914.304,0,914.304C0,944.768,10.688,970.688,32,991.936C53.312,1013.312,79.232,1024,109.696,1024C109.696,1024,731.392,1024,731.392,1024C731.392,1024,1024,731.456,1024,731.456C1024,731.456,1024,109.696,1024,109.696C1024,79.232,1013.312,53.376,991.936,32.064C970.624,10.688,944.768,0,914.24,0C914.24,0,109.696,0,109.696,0C109.696,0,109.696,0,109.696,0M109.696,109.696C109.696,109.696,914.24,109.696,914.24,109.696C914.24,109.696,914.24,658.304,914.24,658.304C914.24,658.304,658.24,658.304,658.24,658.304C658.24,658.304,658.24,914.304,658.24,914.304C658.24,914.304,109.696,914.304,109.696,914.304C109.696,914.304,109.696,109.696,109.696,109.696C109.696,109.696,109.696,109.696,109.696,109.696M219.392,219.456C219.392,219.456,804.544,219.456,804.544,219.456C804.544,219.456,804.544,329.152,804.544,329.152C804.544,329.152,219.392,329.152,219.392,329.152C219.392,329.152,219.392,219.456,219.392,219.456C219.392,219.456,219.392,219.456,219.392,219.456M237.696,676.608C237.696,676.608,512,676.608,512,676.608C512,676.608,512,786.304,512,786.304C512,786.304,237.696,786.304,237.696,786.304C237.696,786.304,237.696,676.608,237.696,676.608C237.696,676.608,237.696,676.608,237.696,676.608M219.392,420.608C219.392,420.608,804.544,420.608,804.544,420.608C804.544,420.608,804.544,530.304,804.544,530.304C804.544,530.304,219.392,530.304,219.392,530.304C219.392,530.304,219.392,420.608,219.392,420.608C219.392,420.608,219.392,420.608,219.392,420.608M109.696,914.304C109.696,914.304,109.696,676.544,109.696,676.544C109.696,676.544,109.696,914.304,109.696,914.304C109.696,914.304,109.696,109.696,109.696,109.696C109.696,109.696,109.696,914.304,109.696,914.304C109.696,914.304,109.696,914.304,109.696,914.304" class="icon-FontIcon-dd"/><glyph unicode="&#x0065;" d="M0,85.5C0,85.5,512,938.833,512,938.833C512,938.833,1024,85.5,1024,85.5C1024,85.5,0,85.5,0,85.5C0,85.5,0,85.5,0,85.5M150.538,170.833C150.538,170.833,873.462,170.833,873.462,170.833C873.462,170.833,512,772.885,512,772.885C512,772.885,150.538,170.833,150.538,170.833C150.538,170.833,150.538,170.833,150.538,170.833M512,227.705C523.846,227.705,533.885,231.872,542.218,240.204C550.5,248.487,554.667,258.576,554.667,270.372C554.667,282.218,550.5,292.308,542.218,300.59C533.885,308.923,523.846,313.039,512,313.039C500.154,313.039,490.115,308.923,481.782,300.59C473.5,292.308,469.333,282.218,469.333,270.372C469.333,258.576,473.5,248.487,481.782,240.204C490.115,231.872,500.154,227.705,512,227.705C512,227.705,512,227.705,512,227.705M469.333,369.961C469.333,369.961,554.667,369.961,554.667,369.961C554.667,369.961,554.667,597.5,554.667,597.5C554.667,597.5,469.333,597.5,469.333,597.5C469.333,597.5,469.333,369.961,469.333,369.961C469.333,369.961,469.333,369.961,469.333,369.961" class="icon-FontIcon-ee"/><glyph unicode="&#x0066;" d="M512,256C525.312,256,536.63,260.689,546.008,270.013C555.331,279.336,560.02,290.708,560.02,304.02C560.02,317.332,555.331,328.65,546.008,337.974C536.63,347.352,525.312,351.987,512,351.987C498.688,351.987,487.37,347.352,477.992,337.974C468.669,328.65,463.98,317.332,463.98,304.02C463.98,290.708,468.669,279.336,477.992,270.013C487.37,260.689,498.688,256,512,256C512,256,512,256,512,256M463.98,448.027C463.98,447.973,560.02,447.973,560.02,447.973C560.02,447.973,560.02,768,560.02,768C560.02,768,463.98,768,463.98,768C463.98,768,463.98,447.973,463.98,447.973C463.98,447.973,463.98,447.973,463.98,447.973M512,0C441.775,0,375.539,13.312,313.344,39.99C251.149,66.668,196.716,103.316,150.043,149.989C103.316,196.716,66.668,251.149,39.99,313.344C13.312,375.539,0,441.775,0,512C0,583.141,13.312,649.593,39.99,711.357C66.668,773.12,103.316,827.284,149.989,873.957C196.716,920.63,251.149,957.332,313.344,984.01C375.539,1010.688,441.775,1024,512,1024C583.141,1024,649.593,1010.688,711.357,984.01C773.12,957.332,827.338,920.684,874.011,873.957C920.684,827.284,957.332,773.12,984.01,711.357C1010.688,649.593,1024,583.141,1024,512C1024,441.775,1010.688,375.539,984.01,313.344C957.332,251.149,920.684,196.716,874.011,149.989C827.284,103.316,773.12,66.668,711.357,39.99C649.593,13.312,583.141,0,512,0C512,0,512,0,512,0M512,95.987C627.55,95.987,725.747,136.461,806.643,217.357C887.539,298.253,928.013,396.45,928.013,512C928.013,627.55,887.539,725.747,806.643,806.643C725.747,887.539,627.55,928.013,512,928.013C396.45,928.013,298.253,887.539,217.357,806.643C136.461,725.747,95.987,627.55,95.987,512C95.987,396.45,136.461,298.253,217.357,217.357C298.253,136.461,396.45,95.987,512,95.987C512,95.987,512,95.987,512,95.987" class="icon-FontIcon-ff"/><glyph unicode="&#x0067;" d="M160,0C133.12,0,110.72,9.6,92.16,28.16C73.6,46.72,64,69.76,64,96C64,96,64,832,64,832C64,832,160,832,160,832C160,832,160,96,160,96C160,96,768,96,768,96C768,96,768,0,768,0C768,0,160,0,160,0C160,0,160,0,160,0M352,192C325.12,192,302.72,201.6,284.16,220.16C265.6,238.72,256,261.76,256,288C256,288,256,928,256,928C256,954.88,265.6,977.28,284.16,995.84C302.72,1014.4,325.76,1024,352,1024C352,1024,864,1024,864,1024C890.88,1024,913.28,1014.4,931.84,995.84C950.4,977.28,960,954.24,960,928C960,928,960,288,960,288C960,261.12,950.4,238.72,931.84,220.16C913.28,201.6,890.24,192,864,192C864,192,352,192,352,192C352,192,352,192,352,192M352,288C352,288,864,288,864,288C864,288,864,928,864,928C864,928,352,928,352,928C352,928,352,288,352,288C352,288,352,288,352,288M352,288C352,288,352,928,352,928C352,928,352,288,352,288C352,288,352,288,352,288" class="icon-FontIcon-gg"/></font>
</defs>
</svg>
