<?xml version="1.0" encoding="UTF-8"?>
<svg id="Layer_1" data-name="Layer 1" xmlns="http://www.w3.org/2000/svg" viewBox="0 0 352.72 492.2">
  <defs>
    <style>
      .cls-1 {
        stroke-width: .05px;
      }

      .cls-1, .cls-2, .cls-3 {
        stroke: #5e5e5e;
      }

      .cls-1, .cls-3 {
        fill: #5e5e5e;
      }

      .cls-4 {
        stroke-width: 0px;
      }

      .cls-2 {
        fill: none;
        stroke-linejoin: round;
      }

      .cls-2, .cls-3 {
        stroke-width: 2px;
      }

      .cls-5 {
        stroke: #006aec;
      }

      .cls-5, .cls-6 {
        fill: #fff;
        stroke-width: 4px;
      }

      .cls-6 {
        stroke: #6db1ff;
      }
    </style>
  </defs>
  <g>
    <path class="cls-5" d="m263,410.2c0,44.2-35.8,80-80,80s-80-35.8-80-80,35.83-80,80-80,80,35.83,80,80Z"/>
    <path class="cls-6" d="m162,82c0,44.2-35.82,80-80,80S2,126.2,2,82,37.82,2,82,2s80,35.82,80,80Z"/>
    <path class="cls-6" d="m350.72,82c0,44.2-35.82,80-80,80s-80-35.8-80-80S226.54,2,270.72,2s80,35.82,80,80Z"/>
    <path class="cls-2" d="m82.02,165l.06,3.07.24,3.8.38,3.63.5,3.44.64,3.3.74,3.18.86,3.08.98,3,1.1,2.96,1.23,2.92,1.36,2.9,1.53,2.9,1.7,2.94,1.9,3,2.13,3.07,2.45,3.2,2.83,3.42,3.36,3.72,4.13,4.22,5.54,5.2,9.74,8.35,23.94,19.97,5.54,5.2,4.14,4.2,3.36,3.73,2.82,3.42,2.45,3.2,2.14,3.1,1.88,2.98,1.7,2.93,1.52,2.9,1.36,2.9,1.23,2.93,1.1,2.95.97,3.02.86,3.08.7,3.04"/>
    <path class="cls-1" d="m81.97,164h1.03l.02,1-2,.06-.02-1.08.97.02Z"/>
    <path class="cls-3" d="m182.68,325l-6.06-13.73,9.23-.94-3.17,14.67Z"/>
    <path class="cls-2" d="m275.8,164.84l.06,2.63-.08,3.47-.2,3.33-.36,3.22-.47,3.12-.6,3.06-.7,3-.84,2.98-.95,2.97-1.12,2.97-1.26,3-1.44,3.04-1.65,3.13-1.88,3.24-2.18,3.42-2.54,3.65-3.05,4-3.77,4.52-5,5.5-8,8.12-27.9,27.07-5.06,5.6-3.84,4.6-3.12,4.1-2.6,3.73-2.24,3.5-1.94,3.34-1.7,3.23-1.5,3.15-1.3,3.1-1.15,3.08-1,3.08-.87,3.1-.46,1.96"/>
    <path class="cls-1" d="m276.8,164.84l-2,.04v-1l1.8-.08.2-.02v1.06Z"/>
    <path class="cls-3" d="m183.37,325l-3-14.7,9.2,1.03-6.2,13.67Z"/>
  </g>
  <g>
    <path class="cls-4" d="m48.05,67.99l1.63-1.91c1.12,1.07,2.64,1.79,4.1,1.79,1.77,0,2.74-.8,2.74-2.03,0-1.29-1.01-1.71-2.44-2.31l-2.15-.93c-1.55-.64-3.18-1.87-3.18-4.17,0-2.51,2.21-4.43,5.28-4.43,1.84,0,3.62.76,4.85,2.01l-1.43,1.77c-1-.85-2.07-1.35-3.41-1.35-1.49,0-2.46.7-2.46,1.85,0,1.24,1.2,1.69,2.5,2.23l2.12.89c1.87.78,3.18,1.96,3.18,4.24,0,2.55-2.12,4.67-5.65,4.67-2.13,0-4.17-.84-5.67-2.3Z"/>
    <path class="cls-4" d="m61.67,54.56c0-.93.73-1.57,1.71-1.57s1.71.63,1.71,1.57-.73,1.57-1.71,1.57-1.71-.65-1.71-1.57Zm.32,3.64h2.77v11.81h-2.77v-11.81Z"/>
    <path class="cls-4" d="m68.29,58.2h2.27l.21,1.61h.08c1-1.04,2.15-1.9,3.63-1.9,1.73,0,2.72.79,3.26,2.12,1.13-1.2,2.3-2.12,3.8-2.12,2.49,0,3.65,1.71,3.65,4.69v7.41h-2.77v-7.05c0-1.94-.58-2.67-1.82-2.67-.75,0-1.56.48-2.47,1.47v8.25h-2.77v-7.05c0-1.94-.58-2.67-1.82-2.67-.73,0-1.56.48-2.47,1.47v8.25h-2.77v-11.81Z"/>
    <path class="cls-4" d="m88.55,58.2h2.27l.21,1.26h.08c1-.86,2.26-1.55,3.56-1.55,2.95,0,4.65,2.37,4.65,6.01,0,4.04-2.41,6.38-5.04,6.38-1.05,0-2.08-.47-3.04-1.3l.09,1.96v3.72h-2.77v-16.49Zm7.92,5.75c0-2.36-.77-3.75-2.57-3.75-.86,0-1.66.43-2.58,1.33v5.5c.85.72,1.68.98,2.37.98,1.58,0,2.78-1.38,2.78-4.06Z"/>
    <path class="cls-4" d="m101.97,66.97v-13.95h2.77v14.09c0,.68.31.92.6.92.12,0,.22,0,.43-.05l.35,2.07c-.34.13-.8.24-1.46.24-1.96,0-2.68-1.27-2.68-3.33Z"/>
    <path class="cls-4" d="m107.71,64.11c0-3.84,2.66-6.2,5.44-6.2,3.19,0,4.88,2.31,4.88,5.61,0,.53-.06,1.06-.12,1.35h-7.5c.23,2.1,1.58,3.29,3.48,3.29,1.01,0,1.88-.32,2.74-.86l.94,1.72c-1.13.76-2.55,1.28-4.05,1.28-3.26,0-5.82-2.29-5.82-6.19Zm7.93-1.14c0-1.82-.81-2.92-2.42-2.92-1.38,0-2.59,1.03-2.83,2.92h5.25Z"/>
    <path class="cls-4" d="m18.19,91.05c0-5.15,3.22-8.21,7.21-8.21,1.97,0,3.54.94,4.53,1.99l-1.49,1.8c-.81-.81-1.75-1.37-2.98-1.37-2.56,0-4.4,2.16-4.4,5.69s1.69,5.76,4.33,5.76c1.4,0,2.47-.64,3.36-1.62l1.49,1.75c-1.27,1.48-2.91,2.29-4.95,2.29-3.95,0-7.09-2.9-7.09-8.1Z"/>
    <path class="cls-4" d="m31.85,92.96c0-3.93,2.67-6.2,5.62-6.2s5.62,2.27,5.62,6.2-2.67,6.19-5.62,6.19-5.62-2.27-5.62-6.19Zm8.39,0c0-2.37-1.04-3.94-2.77-3.94s-2.77,1.58-2.77,3.94,1.04,3.92,2.77,3.92,2.77-1.56,2.77-3.92Z"/>
    <path class="cls-4" d="m45.83,87.05h2.27l.21,1.61h.08c1-1.04,2.15-1.9,3.63-1.9,1.73,0,2.72.79,3.26,2.12,1.13-1.2,2.3-2.12,3.8-2.12,2.49,0,3.65,1.71,3.65,4.69v7.41h-2.77v-7.05c0-1.94-.58-2.67-1.82-2.67-.75,0-1.56.48-2.47,1.47v8.25h-2.77v-7.05c0-1.94-.58-2.67-1.82-2.67-.73,0-1.56.48-2.47,1.47v8.25h-2.77v-11.81Z"/>
    <path class="cls-4" d="m66.1,87.05h2.27l.21,1.26h.08c1-.86,2.26-1.55,3.56-1.55,2.95,0,4.65,2.37,4.65,6.01,0,4.04-2.41,6.38-5.04,6.38-1.05,0-2.08-.47-3.04-1.3l.09,1.96v3.72h-2.77v-16.49Zm7.92,5.75c0-2.36-.77-3.75-2.57-3.75-.86,0-1.66.43-2.58,1.33v5.5c.85.72,1.68.98,2.37.98,1.58,0,2.78-1.38,2.78-4.06Z"/>
    <path class="cls-4" d="m78.88,92.96c0-3.93,2.67-6.2,5.62-6.2s5.62,2.27,5.62,6.2-2.67,6.19-5.62,6.19-5.62-2.27-5.62-6.19Zm8.39,0c0-2.37-1.04-3.94-2.77-3.94s-2.77,1.58-2.77,3.94,1.04,3.92,2.77,3.92,2.77-1.56,2.77-3.92Z"/>
    <path class="cls-4" d="m92.86,87.05h2.27l.21,1.6h.08c1.06-1.03,2.26-1.89,3.88-1.89,2.53,0,3.64,1.71,3.64,4.69v7.41h-2.77v-7.05c0-1.94-.56-2.67-1.84-2.67-1.04,0-1.72.51-2.69,1.47v8.25h-2.77v-11.81Z"/>
    <path class="cls-4" d="m105.54,92.96c0-3.84,2.66-6.2,5.44-6.2,3.19,0,4.88,2.31,4.88,5.61,0,.53-.06,1.06-.12,1.35h-7.5c.23,2.1,1.58,3.29,3.48,3.29,1.01,0,1.88-.32,2.74-.86l.94,1.72c-1.13.76-2.55,1.28-4.05,1.28-3.26,0-5.82-2.29-5.82-6.19Zm7.93-1.14c0-1.82-.81-2.92-2.42-2.92-1.38,0-2.59,1.03-2.83,2.92h5.25Z"/>
    <path class="cls-4" d="m118.51,87.05h2.27l.21,1.6h.08c1.06-1.03,2.26-1.89,3.88-1.89,2.53,0,3.64,1.71,3.64,4.69v7.41h-2.77v-7.05c0-1.94-.56-2.67-1.84-2.67-1.04,0-1.72.51-2.69,1.47v8.25h-2.77v-11.81Z"/>
    <path class="cls-4" d="m132.39,94.88v-5.63h-1.68v-2.08l1.83-.12.33-3.22h2.3v3.22h3.01v2.2h-3.01v5.62c0,1.39.54,2.07,1.67,2.07.4,0,.88-.13,1.23-.27l.47,2.04c-.64.21-1.47.43-2.41.43-2.72,0-3.73-1.72-3.73-4.27Z"/>
    <path class="cls-4" d="m139.24,97.5l1.29-1.76c1.05.82,2.06,1.32,3.26,1.32,1.29,0,1.9-.61,1.9-1.41,0-.99-1.28-1.43-2.54-1.91-1.55-.58-3.32-1.47-3.32-3.44s1.65-3.53,4.3-3.53c1.65,0,2.96.67,3.92,1.41l-1.27,1.7c-.83-.61-1.66-1.03-2.59-1.03-1.19,0-1.75.57-1.75,1.31,0,.93,1.19,1.29,2.47,1.76,1.6.6,3.39,1.37,3.39,3.57,0,2.03-1.61,3.67-4.59,3.67-1.62,0-3.32-.69-4.47-1.65Z"/>
  </g>
  <g>
    <path class="cls-4" d="m235.75,67.99l1.63-1.91c1.12,1.07,2.63,1.79,4.1,1.79,1.77,0,2.74-.8,2.74-2.03,0-1.29-1.01-1.71-2.44-2.31l-2.15-.93c-1.55-.64-3.18-1.87-3.18-4.17,0-2.51,2.21-4.43,5.28-4.43,1.84,0,3.62.76,4.85,2.01l-1.43,1.77c-1-.85-2.07-1.35-3.41-1.35-1.49,0-2.46.7-2.46,1.85,0,1.24,1.2,1.69,2.5,2.23l2.12.89c1.87.78,3.18,1.96,3.18,4.24,0,2.55-2.12,4.67-5.65,4.67-2.13,0-4.17-.84-5.67-2.3Z"/>
    <path class="cls-4" d="m249.37,54.56c0-.93.73-1.57,1.71-1.57s1.71.63,1.71,1.57-.73,1.57-1.71,1.57-1.71-.65-1.71-1.57Zm.32,3.64h2.77v11.81h-2.77v-11.81Z"/>
    <path class="cls-4" d="m255.99,58.2h2.27l.21,1.61h.08c1-1.04,2.15-1.9,3.63-1.9,1.73,0,2.72.79,3.26,2.12,1.13-1.2,2.3-2.12,3.8-2.12,2.49,0,3.65,1.71,3.65,4.69v7.41h-2.77v-7.05c0-1.94-.58-2.67-1.82-2.67-.75,0-1.56.48-2.47,1.47v8.25h-2.77v-7.05c0-1.94-.58-2.67-1.82-2.67-.73,0-1.56.48-2.47,1.47v8.25h-2.77v-11.81Z"/>
    <path class="cls-4" d="m276.25,58.2h2.27l.21,1.26h.08c1-.86,2.26-1.55,3.56-1.55,2.95,0,4.65,2.37,4.65,6.01,0,4.04-2.41,6.38-5.04,6.38-1.05,0-2.08-.47-3.04-1.3l.09,1.96v3.72h-2.77v-16.49Zm7.92,5.75c0-2.36-.77-3.75-2.57-3.75-.86,0-1.66.43-2.58,1.33v5.5c.85.72,1.68.98,2.37.98,1.58,0,2.78-1.38,2.78-4.06Z"/>
    <path class="cls-4" d="m289.67,66.97v-13.95h2.77v14.09c0,.68.31.92.6.92.12,0,.22,0,.43-.05l.35,2.07c-.34.13-.8.24-1.46.24-1.96,0-2.68-1.27-2.68-3.33Z"/>
    <path class="cls-4" d="m295.41,64.11c0-3.84,2.67-6.2,5.45-6.2,3.19,0,4.88,2.31,4.88,5.61,0,.53-.06,1.06-.12,1.35h-7.5c.23,2.1,1.58,3.29,3.48,3.29,1.01,0,1.88-.32,2.74-.86l.94,1.72c-1.13.76-2.55,1.28-4.05,1.28-3.26,0-5.82-2.29-5.82-6.19Zm7.93-1.14c0-1.82-.81-2.92-2.42-2.92-1.38,0-2.59,1.03-2.83,2.92h5.25Z"/>
    <path class="cls-4" d="m205.89,91.05c0-5.15,3.22-8.21,7.21-8.21,1.97,0,3.54.94,4.53,1.99l-1.49,1.8c-.81-.81-1.75-1.37-2.98-1.37-2.56,0-4.4,2.16-4.4,5.69s1.69,5.76,4.33,5.76c1.4,0,2.47-.64,3.36-1.62l1.49,1.75c-1.27,1.48-2.92,2.29-4.95,2.29-3.95,0-7.09-2.9-7.09-8.1Z"/>
    <path class="cls-4" d="m219.55,92.96c0-3.93,2.67-6.2,5.62-6.2s5.62,2.27,5.62,6.2-2.67,6.19-5.62,6.19-5.62-2.27-5.62-6.19Zm8.39,0c0-2.37-1.04-3.94-2.77-3.94s-2.77,1.58-2.77,3.94,1.04,3.92,2.77,3.92,2.77-1.56,2.77-3.92Z"/>
    <path class="cls-4" d="m233.53,87.05h2.27l.21,1.61h.08c1-1.04,2.14-1.9,3.63-1.9,1.73,0,2.72.79,3.26,2.12,1.13-1.2,2.3-2.12,3.8-2.12,2.49,0,3.65,1.71,3.65,4.69v7.41h-2.77v-7.05c0-1.94-.58-2.67-1.82-2.67-.75,0-1.56.48-2.47,1.47v8.25h-2.77v-7.05c0-1.94-.58-2.67-1.82-2.67-.73,0-1.56.48-2.47,1.47v8.25h-2.77v-11.81Z"/>
    <path class="cls-4" d="m253.8,87.05h2.27l.21,1.26h.08c1-.86,2.26-1.55,3.56-1.55,2.95,0,4.65,2.37,4.65,6.01,0,4.04-2.41,6.38-5.04,6.38-1.05,0-2.08-.47-3.04-1.3l.09,1.96v3.72h-2.77v-16.49Zm7.92,5.75c0-2.36-.77-3.75-2.57-3.75-.86,0-1.66.43-2.58,1.33v5.5c.85.72,1.68.98,2.37.98,1.58,0,2.78-1.38,2.78-4.06Z"/>
    <path class="cls-4" d="m266.58,92.96c0-3.93,2.67-6.2,5.62-6.2s5.62,2.27,5.62,6.2-2.67,6.19-5.62,6.19-5.62-2.27-5.62-6.19Zm8.39,0c0-2.37-1.04-3.94-2.77-3.94s-2.77,1.58-2.77,3.94,1.04,3.92,2.77,3.92,2.77-1.56,2.77-3.92Z"/>
    <path class="cls-4" d="m280.56,87.05h2.27l.21,1.6h.08c1.06-1.03,2.26-1.89,3.88-1.89,2.53,0,3.64,1.71,3.64,4.69v7.41h-2.77v-7.05c0-1.94-.56-2.67-1.84-2.67-1.04,0-1.72.51-2.69,1.47v8.25h-2.77v-11.81Z"/>
    <path class="cls-4" d="m293.24,92.96c0-3.84,2.67-6.2,5.45-6.2,3.19,0,4.88,2.31,4.88,5.61,0,.53-.06,1.06-.12,1.35h-7.5c.23,2.1,1.58,3.29,3.48,3.29,1.01,0,1.88-.32,2.74-.86l.94,1.72c-1.13.76-2.55,1.28-4.05,1.28-3.26,0-5.82-2.29-5.82-6.19Zm7.93-1.14c0-1.82-.81-2.92-2.42-2.92-1.38,0-2.59,1.03-2.83,2.92h5.25Z"/>
    <path class="cls-4" d="m306.21,87.05h2.27l.21,1.6h.08c1.06-1.03,2.26-1.89,3.88-1.89,2.53,0,3.64,1.71,3.64,4.69v7.41h-2.77v-7.05c0-1.94-.56-2.67-1.84-2.67-1.04,0-1.72.51-2.69,1.47v8.25h-2.77v-11.81Z"/>
    <path class="cls-4" d="m320.09,94.88v-5.63h-1.68v-2.08l1.83-.12.33-3.22h2.3v3.22h3.01v2.2h-3.01v5.62c0,1.39.54,2.07,1.67,2.07.4,0,.88-.13,1.23-.27l.47,2.04c-.64.21-1.47.43-2.42.43-2.72,0-3.73-1.72-3.73-4.27Z"/>
    <path class="cls-4" d="m326.94,97.5l1.29-1.76c1.05.82,2.06,1.32,3.26,1.32,1.29,0,1.9-.61,1.9-1.41,0-.99-1.28-1.43-2.54-1.91-1.55-.58-3.32-1.47-3.32-3.44s1.65-3.53,4.3-3.53c1.64,0,2.96.67,3.92,1.41l-1.27,1.7c-.83-.61-1.66-1.03-2.59-1.03-1.19,0-1.75.57-1.75,1.31,0,.93,1.19,1.29,2.47,1.76,1.6.6,3.39,1.37,3.39,3.57,0,2.03-1.61,3.67-4.59,3.67-1.62,0-3.32-.69-4.47-1.65Z"/>
  </g>
  <g>
    <path class="cls-4" d="m136.04,389.2c0-5.15,3.22-8.21,7.21-8.21,1.97,0,3.54.94,4.53,1.99l-1.49,1.8c-.81-.81-1.75-1.37-2.98-1.37-2.56,0-4.4,2.16-4.4,5.69s1.69,5.76,4.33,5.76c1.4,0,2.47-.64,3.36-1.62l1.49,1.75c-1.27,1.48-2.91,2.29-4.95,2.29-3.95,0-7.09-2.9-7.09-8.1Z"/>
    <path class="cls-4" d="m149.7,391.11c0-3.93,2.67-6.21,5.62-6.21s5.62,2.27,5.62,6.21-2.67,6.19-5.62,6.19-5.62-2.27-5.62-6.19Zm8.39,0c0-2.37-1.04-3.94-2.77-3.94s-2.77,1.58-2.77,3.94,1.04,3.92,2.77,3.92,2.77-1.56,2.77-3.92Z"/>
    <path class="cls-4" d="m163.68,385.2h2.27l.21,1.61h.08c1-1.04,2.15-1.9,3.63-1.9,1.73,0,2.72.79,3.26,2.12,1.13-1.2,2.3-2.12,3.8-2.12,2.49,0,3.65,1.71,3.65,4.7v7.41h-2.77v-7.05c0-1.94-.58-2.67-1.82-2.67-.75,0-1.56.48-2.47,1.47v8.25h-2.77v-7.05c0-1.94-.58-2.67-1.82-2.67-.73,0-1.56.48-2.47,1.47v8.25h-2.77v-11.81Z"/>
    <path class="cls-4" d="m183.95,385.2h2.27l.21,1.26h.08c1-.86,2.26-1.55,3.56-1.55,2.95,0,4.65,2.37,4.65,6.01,0,4.04-2.41,6.38-5.04,6.38-1.05,0-2.08-.47-3.04-1.3l.09,1.96v3.72h-2.77v-16.49Zm7.92,5.75c0-2.36-.77-3.75-2.57-3.75-.86,0-1.66.43-2.58,1.33v5.5c.85.72,1.68.98,2.37.98,1.58,0,2.78-1.38,2.78-4.06Z"/>
    <path class="cls-4" d="m197.36,393.97v-13.95h2.77v14.09c0,.68.31.92.6.92.12,0,.22,0,.43-.05l.35,2.07c-.34.13-.8.24-1.46.24-1.96,0-2.68-1.27-2.68-3.33Z"/>
    <path class="cls-4" d="m203.1,391.11c0-3.84,2.67-6.21,5.45-6.21,3.19,0,4.88,2.31,4.88,5.61,0,.53-.06,1.06-.12,1.35h-7.5c.23,2.1,1.58,3.29,3.48,3.29,1.01,0,1.88-.32,2.74-.86l.94,1.72c-1.13.76-2.55,1.28-4.05,1.28-3.26,0-5.82-2.29-5.82-6.19Zm7.93-1.13c0-1.82-.81-2.92-2.42-2.92-1.38,0-2.59,1.03-2.83,2.92h5.25Z"/>
    <path class="cls-4" d="m218.1,390.85l-3.49-5.66h2.98l1.31,2.24c.34.65.72,1.34,1.08,1.99h.1c.3-.65.63-1.34.93-1.99l1.12-2.24h2.88l-3.49,5.96,3.74,5.85h-2.98l-1.44-2.34c-.39-.69-.78-1.41-1.19-2.09h-.1c-.35.67-.7,1.38-1.05,2.09l-1.25,2.34h-2.88l3.74-6.16Z"/>
    <path class="cls-4" d="m115.54,418.05c0-5.15,3.22-8.21,7.21-8.21,1.97,0,3.54.94,4.53,1.99l-1.49,1.8c-.81-.81-1.75-1.37-2.98-1.37-2.56,0-4.4,2.16-4.4,5.7s1.69,5.76,4.33,5.76c1.4,0,2.47-.64,3.36-1.62l1.49,1.75c-1.27,1.48-2.91,2.29-4.95,2.29-3.95,0-7.09-2.9-7.09-8.1Z"/>
    <path class="cls-4" d="m129.2,419.96c0-3.93,2.67-6.2,5.62-6.2s5.62,2.27,5.62,6.2-2.67,6.19-5.62,6.19-5.62-2.27-5.62-6.19Zm8.39,0c0-2.37-1.04-3.94-2.77-3.94s-2.77,1.58-2.77,3.94,1.04,3.92,2.77,3.92,2.77-1.56,2.77-3.92Z"/>
    <path class="cls-4" d="m143.18,414.05h2.27l.21,1.61h.08c1-1.04,2.15-1.9,3.63-1.9,1.73,0,2.72.79,3.26,2.12,1.13-1.2,2.3-2.12,3.8-2.12,2.49,0,3.65,1.71,3.65,4.69v7.41h-2.77v-7.05c0-1.94-.58-2.67-1.82-2.67-.75,0-1.56.48-2.47,1.47v8.25h-2.77v-7.05c0-1.94-.58-2.67-1.82-2.67-.73,0-1.56.48-2.47,1.47v8.25h-2.77v-11.81Z"/>
    <path class="cls-4" d="m163.45,414.05h2.27l.21,1.26h.08c1-.86,2.26-1.55,3.56-1.55,2.95,0,4.65,2.37,4.65,6.01,0,4.04-2.41,6.38-5.04,6.38-1.05,0-2.08-.47-3.04-1.3l.09,1.96v3.72h-2.77v-16.49Zm7.92,5.75c0-2.36-.77-3.75-2.57-3.75-.86,0-1.66.43-2.58,1.33v5.5c.85.72,1.68.98,2.37.98,1.58,0,2.78-1.38,2.78-4.06Z"/>
    <path class="cls-4" d="m176.23,419.96c0-3.93,2.67-6.2,5.62-6.2s5.62,2.27,5.62,6.2-2.67,6.19-5.62,6.19-5.62-2.27-5.62-6.19Zm8.39,0c0-2.37-1.04-3.94-2.77-3.94s-2.77,1.58-2.77,3.94,1.04,3.92,2.77,3.92,2.77-1.56,2.77-3.92Z"/>
    <path class="cls-4" d="m190.21,414.05h2.27l.21,1.6h.08c1.06-1.03,2.26-1.89,3.88-1.89,2.53,0,3.64,1.71,3.64,4.69v7.41h-2.77v-7.05c0-1.94-.56-2.67-1.84-2.67-1.04,0-1.72.51-2.69,1.47v8.25h-2.77v-11.81Z"/>
    <path class="cls-4" d="m202.89,419.96c0-3.84,2.66-6.2,5.44-6.2,3.19,0,4.88,2.31,4.88,5.61,0,.53-.06,1.06-.12,1.35h-7.5c.23,2.1,1.58,3.29,3.48,3.29,1.01,0,1.88-.32,2.74-.86l.94,1.72c-1.12.76-2.55,1.28-4.05,1.28-3.26,0-5.82-2.29-5.82-6.19Zm7.93-1.13c0-1.82-.81-2.92-2.42-2.92-1.38,0-2.59,1.03-2.83,2.92h5.25Z"/>
    <path class="cls-4" d="m215.86,414.05h2.27l.21,1.6h.08c1.06-1.03,2.26-1.89,3.88-1.89,2.53,0,3.64,1.71,3.64,4.69v7.41h-2.77v-7.05c0-1.94-.56-2.67-1.84-2.67-1.04,0-1.72.51-2.69,1.47v8.25h-2.77v-11.81Z"/>
    <path class="cls-4" d="m229.74,421.88v-5.63h-1.68v-2.08l1.83-.12.33-3.22h2.3v3.22h3.01v2.2h-3.01v5.62c0,1.39.54,2.07,1.67,2.07.4,0,.88-.13,1.23-.27l.47,2.04c-.64.21-1.47.43-2.41.43-2.72,0-3.73-1.72-3.73-4.27Z"/>
    <path class="cls-4" d="m236.59,424.5l1.29-1.76c1.05.82,2.06,1.32,3.26,1.32,1.29,0,1.89-.61,1.89-1.41,0-.99-1.28-1.43-2.54-1.91-1.55-.58-3.32-1.47-3.32-3.44s1.66-3.53,4.3-3.53c1.65,0,2.96.67,3.92,1.41l-1.27,1.7c-.83-.61-1.66-1.03-2.59-1.03-1.19,0-1.75.57-1.75,1.31,0,.93,1.19,1.29,2.47,1.76,1.6.6,3.39,1.37,3.39,3.57,0,2.03-1.61,3.67-4.59,3.67-1.62,0-3.32-.69-4.47-1.64Z"/>
  </g>
</svg>
