<?xml version="1.0" encoding="UTF-8"?>
<svg id="Layer_1" data-name="Layer 1" viewBox="0 0 544 492.2">
  <defs>
    <style>
      .cls-1 {
        stroke-width: .05px;
      }

      .cls-1, .cls-2, .cls-3 {
        stroke: #5e5e5e;
      }

      .cls-1, .cls-3 {
        fill: #5e5e5e;
      }

      .cls-4 {
        stroke-width: 0px;
      }

      .cls-2 {
        fill: none;
        stroke-linejoin: round;
      }

      .cls-2, .cls-3 {
        stroke-width: 2px;
      }

      .cls-5 {
        stroke: #006aec;
      }

      .cls-5, .cls-6, .cls-7 {
        fill: #fff;
        stroke-width: 4px;
      }

      .cls-6 {
        stroke: #fc9432;
      }

      .cls-7 {
        stroke: #6db1ff;
      }
    </style>
  </defs>
  <g>
    <path class="cls-2" d="m461.98,165l-.03,1.2-.13,2.12-.22,2.06-.3,2.02-.37,1.98-.46,1.95-.54,1.92-.62,1.92-.7,1.9-.8,1.92-.9,1.9-1.02,1.95-1.14,1.96-1.27,2.02-1.42,2.05-1.6,2.1-1.8,2.2-2.06,2.26-2.34,2.38-2.68,2.52-3.1,2.68-3.66,2.9-4.35,3.15-5.32,3.53-6.7,4.05-8.94,4.9-13.52,6.7-71.5,32.44-8.93,4.9-6.7,4.05-5.32,3.53-4.35,3.16-3.65,2.9-3.1,2.68-2.7,2.5-2.32,2.4-2.04,2.26-1.8,2.2-1.6,2.1-1.43,2.05-1.27,2-1.14,1.96-1,1.94-.92,1.92-.8,1.9"/>
    <path class="cls-1" d="m461.97,164h1.03l-.02,1.05-2-.04.02-1.03.97.02Z"/>
    <path class="cls-3" d="m272.6,325.02l-1.92-14.88,9.1,1.72-7.18,13.16Z"/>
    <path class="cls-2" d="m272,165v144.7"/>
    <path class="cls-1" d="m271.97,164h1.03v1.03h-2v-1.06l.97.03Z"/>
    <path class="cls-3" d="m272,324.97l-4.63-14.27h9.27l-4.64,14.27Z"/>
    <path class="cls-2" d="m82.02,165l.03,1.2.13,2.12.22,2.06.3,2.02.37,1.98.46,1.95.54,1.92.62,1.92.7,1.9.8,1.92.9,1.9,1.02,1.95,1.14,1.96,1.27,2.02,1.42,2.05,1.6,2.1,1.8,2.2,2.06,2.26,2.34,2.38,2.68,2.52,3.1,2.68,3.66,2.9,4.35,3.15,5.32,3.53,6.7,4.05,8.94,4.9,13.53,6.7,71.48,32.44,8.95,4.9,6.7,4.05,5.32,3.53,4.35,3.16,3.65,2.9,3.1,2.68,2.7,2.5,2.32,2.4,2.04,2.26,1.8,2.2,1.6,2.1,1.43,2.05,1.27,2,1.14,1.96,1,1.94.92,1.92.8,1.9"/>
    <path class="cls-1" d="m81.97,164h1.03l.02,1-2,.05-.02-1.08.97.03Z"/>
    <path class="cls-3" d="m271.4,325.02l-7.2-13.16,9.12-1.72-1.92,14.88Z"/>
    <path class="cls-6" d="m352,410.2c0,44.18-35.82,80-80,80s-80-35.82-80-80,35.82-80,80-80,80,35.82,80,80Z"/>
    <path class="cls-5" d="m542,82c0,44.18-35.82,80-80,80s-80-35.82-80-80S417.82,2,462,2s80,35.82,80,80Z"/>
    <path class="cls-7" d="m162,82c0,44.18-35.82,80-80,80S2,126.18,2,82,37.82,2,82,2s80,35.82,80,80Zm190,0c0,44.18-35.82,80-80,80s-80-35.82-80-80S227.82,2,272,2s80,35.82,80,80Z"/>
  </g>
  <g>
    <path class="cls-4" d="m234.78,72.74l1.63-1.91c1.12,1.07,2.64,1.79,4.1,1.79,1.77,0,2.74-.8,2.74-2.03,0-1.29-1.01-1.71-2.44-2.31l-2.15-.93c-1.55-.64-3.18-1.87-3.18-4.17,0-2.51,2.21-4.43,5.28-4.43,1.84,0,3.62.76,4.85,2.01l-1.43,1.77c-1-.85-2.07-1.35-3.41-1.35-1.49,0-2.46.7-2.46,1.85,0,1.24,1.2,1.69,2.5,2.23l2.12.89c1.87.78,3.18,1.96,3.18,4.24,0,2.55-2.12,4.67-5.65,4.67-2.13,0-4.17-.84-5.67-2.3Z"/>
    <path class="cls-4" d="m248.4,59.31c0-.93.73-1.57,1.71-1.57s1.71.63,1.71,1.57-.73,1.57-1.71,1.57-1.71-.65-1.71-1.57Zm.32,3.64h2.77v11.81h-2.77v-11.81Z"/>
    <path class="cls-4" d="m255.02,62.94h2.27l.21,1.61h.08c1-1.04,2.15-1.9,3.63-1.9,1.73,0,2.72.79,3.26,2.12,1.13-1.2,2.3-2.12,3.8-2.12,2.49,0,3.65,1.71,3.65,4.69v7.41h-2.77v-7.05c0-1.94-.58-2.67-1.82-2.67-.75,0-1.56.48-2.47,1.47v8.25h-2.77v-7.05c0-1.94-.58-2.67-1.82-2.67-.73,0-1.56.48-2.47,1.47v8.25h-2.77v-11.81Z"/>
    <path class="cls-4" d="m275.29,62.94h2.27l.21,1.26h.08c1-.86,2.26-1.55,3.56-1.55,2.95,0,4.65,2.37,4.65,6.01,0,4.04-2.41,6.38-5.04,6.38-1.05,0-2.08-.47-3.04-1.3l.09,1.96v3.72h-2.77v-16.49Zm7.92,5.75c0-2.36-.77-3.75-2.57-3.75-.86,0-1.66.43-2.58,1.33v5.5c.85.72,1.68.98,2.37.98,1.58,0,2.78-1.38,2.78-4.06Z"/>
    <path class="cls-4" d="m288.7,71.72v-13.95h2.77v14.09c0,.68.31.92.6.92.12,0,.22,0,.43-.05l.35,2.07c-.34.13-.8.24-1.46.24-1.96,0-2.68-1.27-2.68-3.33Z"/>
    <path class="cls-4" d="m294.44,68.86c0-3.84,2.67-6.2,5.45-6.2,3.19,0,4.88,2.31,4.88,5.61,0,.53-.06,1.06-.12,1.35h-7.5c.23,2.1,1.58,3.29,3.48,3.29,1.01,0,1.88-.32,2.74-.86l.94,1.72c-1.13.76-2.55,1.28-4.05,1.28-3.26,0-5.82-2.29-5.82-6.19Zm7.93-1.14c0-1.82-.81-2.92-2.42-2.92-1.38,0-2.59,1.03-2.83,2.92h5.25Z"/>
    <path class="cls-4" d="m204.93,95.8c0-5.15,3.22-8.21,7.21-8.21,1.97,0,3.54.94,4.53,1.99l-1.49,1.8c-.81-.81-1.75-1.37-2.98-1.37-2.56,0-4.4,2.16-4.4,5.69s1.69,5.76,4.33,5.76c1.4,0,2.47-.64,3.36-1.62l1.49,1.75c-1.27,1.48-2.91,2.29-4.95,2.29-3.95,0-7.09-2.9-7.09-8.1Z"/>
    <path class="cls-4" d="m218.58,97.71c0-3.93,2.67-6.2,5.62-6.2s5.62,2.27,5.62,6.2-2.67,6.19-5.62,6.19-5.62-2.27-5.62-6.19Zm8.39,0c0-2.37-1.04-3.94-2.77-3.94s-2.77,1.58-2.77,3.94,1.04,3.92,2.77,3.92,2.77-1.56,2.77-3.92Z"/>
    <path class="cls-4" d="m232.56,91.8h2.27l.21,1.61h.08c1-1.04,2.15-1.9,3.63-1.9,1.73,0,2.72.79,3.26,2.12,1.13-1.2,2.3-2.12,3.8-2.12,2.49,0,3.65,1.71,3.65,4.69v7.41h-2.77v-7.05c0-1.94-.58-2.67-1.82-2.67-.75,0-1.56.48-2.47,1.47v8.25h-2.77v-7.05c0-1.94-.58-2.67-1.82-2.67-.73,0-1.56.48-2.47,1.47v8.25h-2.77v-11.81Z"/>
    <path class="cls-4" d="m252.83,91.8h2.27l.21,1.26h.08c1-.86,2.26-1.55,3.56-1.55,2.95,0,4.65,2.37,4.65,6.01,0,4.04-2.41,6.38-5.04,6.38-1.05,0-2.08-.47-3.04-1.3l.09,1.96v3.72h-2.77v-16.49Zm7.92,5.75c0-2.36-.77-3.75-2.57-3.75-.86,0-1.66.43-2.58,1.33v5.5c.85.72,1.68.98,2.37.98,1.58,0,2.78-1.38,2.78-4.06Z"/>
    <path class="cls-4" d="m265.61,97.71c0-3.93,2.67-6.2,5.62-6.2s5.62,2.27,5.62,6.2-2.67,6.19-5.62,6.19-5.62-2.27-5.62-6.19Zm8.39,0c0-2.37-1.04-3.94-2.77-3.94s-2.77,1.58-2.77,3.94,1.04,3.92,2.77,3.92,2.77-1.56,2.77-3.92Z"/>
    <path class="cls-4" d="m279.59,91.8h2.27l.21,1.6h.08c1.06-1.03,2.26-1.89,3.88-1.89,2.53,0,3.64,1.71,3.64,4.69v7.41h-2.77v-7.05c0-1.94-.56-2.67-1.84-2.67-1.04,0-1.72.51-2.69,1.47v8.25h-2.77v-11.81Z"/>
    <path class="cls-4" d="m292.27,97.71c0-3.84,2.67-6.2,5.45-6.2,3.19,0,4.88,2.31,4.88,5.61,0,.53-.06,1.06-.12,1.35h-7.5c.23,2.1,1.58,3.29,3.48,3.29,1.01,0,1.88-.32,2.74-.86l.94,1.72c-1.13.76-2.55,1.28-4.05,1.28-3.26,0-5.82-2.29-5.82-6.19Zm7.93-1.14c0-1.82-.81-2.92-2.42-2.92-1.38,0-2.59,1.03-2.83,2.92h5.25Z"/>
    <path class="cls-4" d="m305.24,91.8h2.27l.21,1.6h.08c1.06-1.03,2.26-1.89,3.88-1.89,2.53,0,3.64,1.71,3.64,4.69v7.41h-2.77v-7.05c0-1.94-.56-2.67-1.84-2.67-1.04,0-1.72.51-2.69,1.47v8.25h-2.77v-11.81Z"/>
    <path class="cls-4" d="m319.12,99.63v-5.63h-1.68v-2.08l1.83-.12.33-3.22h2.3v3.22h3.01v2.2h-3.01v5.62c0,1.39.54,2.07,1.67,2.07.4,0,.88-.13,1.23-.27l.47,2.04c-.64.21-1.47.43-2.42.43-2.72,0-3.73-1.72-3.73-4.27Z"/>
    <path class="cls-4" d="m325.97,102.25l1.29-1.76c1.05.82,2.06,1.32,3.26,1.32,1.29,0,1.9-.61,1.9-1.41,0-.99-1.28-1.43-2.54-1.91-1.55-.58-3.32-1.47-3.32-3.44s1.65-3.53,4.3-3.53c1.64,0,2.96.67,3.92,1.41l-1.27,1.7c-.83-.61-1.66-1.03-2.59-1.03-1.19,0-1.75.57-1.75,1.31,0,.93,1.19,1.29,2.47,1.76,1.6.6,3.39,1.37,3.39,3.57,0,2.03-1.61,3.67-4.59,3.67-1.62,0-3.32-.69-4.47-1.65Z"/>
  </g>
  <g>
    <path class="cls-4" d="m51.05,72.74l1.63-1.91c1.12,1.07,2.64,1.79,4.1,1.79,1.77,0,2.74-.8,2.74-2.03,0-1.29-1.01-1.71-2.44-2.31l-2.15-.93c-1.55-.64-3.18-1.87-3.18-4.17,0-2.51,2.21-4.43,5.28-4.43,1.84,0,3.62.76,4.85,2.01l-1.43,1.77c-1-.85-2.07-1.35-3.41-1.35-1.49,0-2.46.7-2.46,1.85,0,1.24,1.2,1.69,2.5,2.23l2.12.89c1.87.78,3.18,1.96,3.18,4.24,0,2.55-2.12,4.67-5.65,4.67-2.13,0-4.17-.84-5.67-2.3Z"/>
    <path class="cls-4" d="m64.67,59.31c0-.93.73-1.57,1.71-1.57s1.71.63,1.71,1.57-.73,1.57-1.71,1.57-1.71-.65-1.71-1.57Zm.32,3.64h2.77v11.81h-2.77v-11.81Z"/>
    <path class="cls-4" d="m71.29,62.94h2.27l.21,1.61h.08c1-1.04,2.15-1.9,3.63-1.9,1.73,0,2.72.79,3.26,2.12,1.13-1.2,2.3-2.12,3.8-2.12,2.49,0,3.65,1.71,3.65,4.69v7.41h-2.77v-7.05c0-1.94-.58-2.67-1.82-2.67-.75,0-1.56.48-2.47,1.47v8.25h-2.77v-7.05c0-1.94-.58-2.67-1.82-2.67-.73,0-1.56.48-2.47,1.47v8.25h-2.77v-11.81Z"/>
    <path class="cls-4" d="m91.55,62.94h2.27l.21,1.26h.08c1-.86,2.26-1.55,3.56-1.55,2.95,0,4.65,2.37,4.65,6.01,0,4.04-2.41,6.38-5.04,6.38-1.05,0-2.08-.47-3.04-1.3l.09,1.96v3.72h-2.77v-16.49Zm7.92,5.75c0-2.36-.77-3.75-2.57-3.75-.86,0-1.66.43-2.58,1.33v5.5c.85.72,1.68.98,2.37.98,1.58,0,2.78-1.38,2.78-4.06Z"/>
    <path class="cls-4" d="m104.97,71.72v-13.95h2.77v14.09c0,.68.31.92.6.92.12,0,.22,0,.43-.05l.35,2.07c-.34.13-.8.24-1.46.24-1.96,0-2.68-1.27-2.68-3.33Z"/>
    <path class="cls-4" d="m110.71,68.86c0-3.84,2.66-6.2,5.44-6.2,3.19,0,4.88,2.31,4.88,5.61,0,.53-.06,1.06-.12,1.35h-7.5c.23,2.1,1.58,3.29,3.48,3.29,1.01,0,1.88-.32,2.74-.86l.94,1.72c-1.13.76-2.55,1.28-4.05,1.28-3.26,0-5.82-2.29-5.82-6.19Zm7.93-1.14c0-1.82-.81-2.92-2.42-2.92-1.38,0-2.59,1.03-2.83,2.92h5.25Z"/>
    <path class="cls-4" d="m21.19,95.8c0-5.15,3.22-8.21,7.21-8.21,1.97,0,3.54.94,4.53,1.99l-1.49,1.8c-.81-.81-1.75-1.37-2.98-1.37-2.56,0-4.4,2.16-4.4,5.69s1.69,5.76,4.33,5.76c1.4,0,2.47-.64,3.36-1.62l1.49,1.75c-1.27,1.48-2.91,2.29-4.95,2.29-3.95,0-7.09-2.9-7.09-8.1Z"/>
    <path class="cls-4" d="m34.85,97.71c0-3.93,2.67-6.2,5.62-6.2s5.62,2.27,5.62,6.2-2.67,6.19-5.62,6.19-5.62-2.27-5.62-6.19Zm8.39,0c0-2.37-1.04-3.94-2.77-3.94s-2.77,1.58-2.77,3.94,1.04,3.92,2.77,3.92,2.77-1.56,2.77-3.92Z"/>
    <path class="cls-4" d="m48.83,91.8h2.27l.21,1.61h.08c1-1.04,2.15-1.9,3.63-1.9,1.73,0,2.72.79,3.26,2.12,1.13-1.2,2.3-2.12,3.8-2.12,2.49,0,3.65,1.71,3.65,4.69v7.41h-2.77v-7.05c0-1.94-.58-2.67-1.82-2.67-.75,0-1.56.48-2.47,1.47v8.25h-2.77v-7.05c0-1.94-.58-2.67-1.82-2.67-.73,0-1.56.48-2.47,1.47v8.25h-2.77v-11.81Z"/>
    <path class="cls-4" d="m69.1,91.8h2.27l.21,1.26h.08c1-.86,2.26-1.55,3.56-1.55,2.95,0,4.65,2.37,4.65,6.01,0,4.04-2.41,6.38-5.04,6.38-1.05,0-2.08-.47-3.04-1.3l.09,1.96v3.72h-2.77v-16.49Zm7.92,5.75c0-2.36-.77-3.75-2.57-3.75-.86,0-1.66.43-2.58,1.33v5.5c.85.72,1.68.98,2.37.98,1.58,0,2.78-1.38,2.78-4.06Z"/>
    <path class="cls-4" d="m81.88,97.71c0-3.93,2.67-6.2,5.62-6.2s5.62,2.27,5.62,6.2-2.67,6.19-5.62,6.19-5.62-2.27-5.62-6.19Zm8.39,0c0-2.37-1.04-3.94-2.77-3.94s-2.77,1.58-2.77,3.94,1.04,3.92,2.77,3.92,2.77-1.56,2.77-3.92Z"/>
    <path class="cls-4" d="m95.86,91.8h2.27l.21,1.6h.08c1.06-1.03,2.26-1.89,3.88-1.89,2.53,0,3.64,1.71,3.64,4.69v7.41h-2.77v-7.05c0-1.94-.56-2.67-1.84-2.67-1.04,0-1.72.51-2.69,1.47v8.25h-2.77v-11.81Z"/>
    <path class="cls-4" d="m108.54,97.71c0-3.84,2.66-6.2,5.44-6.2,3.19,0,4.88,2.31,4.88,5.61,0,.53-.06,1.06-.12,1.35h-7.5c.23,2.1,1.58,3.29,3.48,3.29,1.01,0,1.88-.32,2.74-.86l.94,1.72c-1.13.76-2.55,1.28-4.05,1.28-3.26,0-5.82-2.29-5.82-6.19Zm7.93-1.14c0-1.82-.81-2.92-2.42-2.92-1.38,0-2.59,1.03-2.83,2.92h5.25Z"/>
    <path class="cls-4" d="m121.51,91.8h2.27l.21,1.6h.08c1.06-1.03,2.26-1.89,3.88-1.89,2.53,0,3.64,1.71,3.64,4.69v7.41h-2.77v-7.05c0-1.94-.56-2.67-1.84-2.67-1.04,0-1.72.51-2.69,1.47v8.25h-2.77v-11.81Z"/>
    <path class="cls-4" d="m135.39,99.63v-5.63h-1.68v-2.08l1.83-.12.33-3.22h2.3v3.22h3.01v2.2h-3.01v5.62c0,1.39.54,2.07,1.67,2.07.4,0,.88-.13,1.23-.27l.47,2.04c-.64.21-1.47.43-2.41.43-2.72,0-3.73-1.72-3.73-4.27Z"/>
    <path class="cls-4" d="m142.24,102.25l1.29-1.76c1.05.82,2.06,1.32,3.26,1.32,1.29,0,1.9-.61,1.9-1.41,0-.99-1.28-1.43-2.54-1.91-1.55-.58-3.32-1.47-3.32-3.44s1.65-3.53,4.3-3.53c1.65,0,2.96.67,3.92,1.41l-1.27,1.7c-.83-.61-1.66-1.03-2.59-1.03-1.19,0-1.75.57-1.75,1.31,0,.93,1.19,1.29,2.47,1.76,1.6.6,3.39,1.37,3.39,3.57,0,2.03-1.61,3.67-4.59,3.67-1.62,0-3.32-.69-4.47-1.65Z"/>
  </g>
  <g>
    <path class="cls-4" d="m420.11,66.95c0-5.15,3.22-8.21,7.21-8.21,1.97,0,3.54.94,4.53,1.99l-1.49,1.8c-.81-.81-1.75-1.37-2.98-1.37-2.56,0-4.4,2.16-4.4,5.69s1.69,5.76,4.33,5.76c1.4,0,2.47-.64,3.36-1.62l1.49,1.75c-1.27,1.48-2.92,2.29-4.95,2.29-3.95,0-7.09-2.9-7.09-8.1Z"/>
    <path class="cls-4" d="m433.77,68.86c0-3.93,2.67-6.2,5.62-6.2s5.62,2.27,5.62,6.2-2.67,6.19-5.62,6.19-5.62-2.27-5.62-6.19Zm8.39,0c0-2.37-1.04-3.94-2.77-3.94s-2.77,1.58-2.77,3.94,1.04,3.92,2.77,3.92,2.77-1.56,2.77-3.92Z"/>
    <path class="cls-4" d="m447.75,62.94h2.27l.21,1.61h.08c1-1.04,2.15-1.9,3.63-1.9,1.73,0,2.72.79,3.26,2.12,1.13-1.2,2.3-2.12,3.8-2.12,2.49,0,3.65,1.71,3.65,4.69v7.41h-2.77v-7.05c0-1.94-.58-2.67-1.82-2.67-.75,0-1.56.48-2.47,1.47v8.25h-2.77v-7.05c0-1.94-.58-2.67-1.82-2.67-.73,0-1.56.48-2.47,1.47v8.25h-2.77v-11.81Z"/>
    <path class="cls-4" d="m468.02,62.94h2.27l.21,1.26h.08c1-.86,2.26-1.55,3.56-1.55,2.95,0,4.65,2.37,4.65,6.01,0,4.04-2.41,6.38-5.04,6.38-1.05,0-2.08-.47-3.04-1.3l.09,1.96v3.72h-2.77v-16.49Zm7.92,5.75c0-2.36-.77-3.75-2.57-3.75-.86,0-1.66.43-2.58,1.33v5.5c.85.72,1.68.98,2.37.98,1.58,0,2.78-1.38,2.78-4.06Z"/>
    <path class="cls-4" d="m481.43,71.72v-13.95h2.77v14.09c0,.68.31.92.6.92.12,0,.22,0,.43-.05l.35,2.07c-.34.13-.8.24-1.46.24-1.96,0-2.68-1.27-2.68-3.33Z"/>
    <path class="cls-4" d="m487.17,68.86c0-3.84,2.66-6.2,5.45-6.2,3.19,0,4.88,2.31,4.88,5.61,0,.53-.06,1.06-.12,1.35h-7.5c.23,2.1,1.58,3.29,3.48,3.29,1.01,0,1.88-.32,2.74-.86l.94,1.72c-1.12.76-2.55,1.28-4.05,1.28-3.26,0-5.82-2.29-5.82-6.19Zm7.93-1.14c0-1.82-.81-2.92-2.42-2.92-1.38,0-2.59,1.03-2.83,2.92h5.25Z"/>
    <path class="cls-4" d="m502.17,68.6l-3.49-5.66h2.98l1.31,2.24c.34.65.72,1.34,1.08,1.99h.1c.3-.65.63-1.34.93-1.99l1.12-2.24h2.88l-3.49,5.96,3.74,5.85h-2.98l-1.44-2.34c-.39-.69-.78-1.41-1.19-2.09h-.1c-.35.67-.7,1.38-1.05,2.09l-1.25,2.34h-2.88l3.74-6.16Z"/>
    <path class="cls-4" d="m399.62,95.8c0-5.15,3.22-8.21,7.21-8.21,1.97,0,3.54.94,4.53,1.99l-1.49,1.8c-.81-.81-1.75-1.37-2.98-1.37-2.56,0-4.4,2.16-4.4,5.69s1.69,5.76,4.33,5.76c1.39,0,2.47-.64,3.36-1.62l1.49,1.75c-1.27,1.48-2.91,2.29-4.95,2.29-3.95,0-7.09-2.9-7.09-8.1Z"/>
    <path class="cls-4" d="m413.27,97.71c0-3.93,2.67-6.2,5.62-6.2s5.62,2.27,5.62,6.2-2.67,6.19-5.62,6.19-5.62-2.27-5.62-6.19Zm8.39,0c0-2.37-1.04-3.94-2.77-3.94s-2.77,1.58-2.77,3.94,1.04,3.92,2.77,3.92,2.77-1.56,2.77-3.92Z"/>
    <path class="cls-4" d="m427.25,91.8h2.27l.21,1.61h.08c1-1.04,2.14-1.9,3.63-1.9,1.73,0,2.72.79,3.26,2.12,1.13-1.2,2.3-2.12,3.8-2.12,2.49,0,3.64,1.71,3.64,4.69v7.41h-2.77v-7.05c0-1.94-.58-2.67-1.82-2.67-.75,0-1.56.48-2.47,1.47v8.25h-2.77v-7.05c0-1.94-.58-2.67-1.82-2.67-.73,0-1.56.48-2.47,1.47v8.25h-2.77v-11.81Z"/>
    <path class="cls-4" d="m447.52,91.8h2.27l.21,1.26h.08c1-.86,2.26-1.55,3.56-1.55,2.95,0,4.65,2.37,4.65,6.01,0,4.04-2.41,6.38-5.04,6.38-1.05,0-2.08-.47-3.04-1.3l.09,1.96v3.72h-2.77v-16.49Zm7.92,5.75c0-2.36-.77-3.75-2.57-3.75-.86,0-1.66.43-2.58,1.33v5.5c.85.72,1.68.98,2.37.98,1.58,0,2.78-1.38,2.78-4.06Z"/>
    <path class="cls-4" d="m460.3,97.71c0-3.93,2.67-6.2,5.62-6.2s5.62,2.27,5.62,6.2-2.67,6.19-5.62,6.19-5.62-2.27-5.62-6.19Zm8.39,0c0-2.37-1.04-3.94-2.77-3.94s-2.77,1.58-2.77,3.94,1.04,3.92,2.77,3.92,2.77-1.56,2.77-3.92Z"/>
    <path class="cls-4" d="m474.28,91.8h2.27l.21,1.6h.08c1.06-1.03,2.26-1.89,3.88-1.89,2.53,0,3.64,1.71,3.64,4.69v7.41h-2.77v-7.05c0-1.94-.56-2.67-1.84-2.67-1.04,0-1.72.51-2.69,1.47v8.25h-2.77v-11.81Z"/>
    <path class="cls-4" d="m486.96,97.71c0-3.84,2.67-6.2,5.45-6.2,3.19,0,4.88,2.31,4.88,5.61,0,.53-.06,1.06-.12,1.35h-7.5c.23,2.1,1.58,3.29,3.48,3.29,1.01,0,1.88-.32,2.74-.86l.94,1.72c-1.13.76-2.55,1.28-4.05,1.28-3.26,0-5.82-2.29-5.82-6.19Zm7.93-1.14c0-1.82-.81-2.92-2.42-2.92-1.38,0-2.59,1.03-2.83,2.92h5.25Z"/>
    <path class="cls-4" d="m499.93,91.8h2.27l.21,1.6h.08c1.06-1.03,2.26-1.89,3.88-1.89,2.53,0,3.64,1.71,3.64,4.69v7.41h-2.77v-7.05c0-1.94-.56-2.67-1.84-2.67-1.04,0-1.72.51-2.69,1.47v8.25h-2.77v-11.81Z"/>
    <path class="cls-4" d="m513.81,99.63v-5.63h-1.68v-2.08l1.83-.12.33-3.22h2.3v3.22h3.01v2.2h-3.01v5.62c0,1.39.54,2.07,1.67,2.07.4,0,.88-.13,1.23-.27l.47,2.04c-.64.21-1.47.43-2.41.43-2.72,0-3.73-1.72-3.73-4.27Z"/>
    <path class="cls-4" d="m520.66,102.25l1.29-1.76c1.05.82,2.06,1.32,3.26,1.32,1.29,0,1.89-.61,1.89-1.41,0-.99-1.28-1.43-2.54-1.91-1.55-.58-3.32-1.47-3.32-3.44s1.66-3.53,4.3-3.53c1.64,0,2.96.67,3.92,1.41l-1.27,1.7c-.83-.61-1.66-1.03-2.59-1.03-1.19,0-1.75.57-1.75,1.31,0,.93,1.19,1.29,2.47,1.76,1.6.6,3.39,1.37,3.39,3.57,0,2.03-1.61,3.67-4.59,3.67-1.62,0-3.32-.69-4.47-1.65Z"/>
  </g>
  <g>
    <path class="cls-4" d="m237.21,398.47h4.95c3.49,0,6.08,1.21,6.08,4.85s-2.6,5.1-5.98,5.1h-2.26v5.78h-2.79v-15.73Zm4.82,7.71c2.35,0,3.46-.93,3.46-2.87s-1.22-2.62-3.56-2.62h-1.93v5.48h2.03Z"/>
    <path class="cls-4" d="m249.42,411.03c0-2.53,2.1-3.85,6.94-4.37-.04-1.27-.55-2.33-2.15-2.33-1.17,0-2.28.53-3.32,1.16l-1.02-1.85c1.3-.82,2.97-1.55,4.85-1.55,2.95,0,4.41,1.82,4.41,5.11v6.99h-2.27l-.21-1.31h-.08c-1.06.9-2.27,1.6-3.67,1.6-2.07,0-3.49-1.4-3.49-3.46Zm6.94,0v-2.66c-3.2.4-4.27,1.24-4.27,2.43,0,1.04.71,1.5,1.7,1.5s1.69-.47,2.57-1.28Z"/>
    <path class="cls-4" d="m262.49,410.22v-5.63h-1.68v-2.08l1.83-.12.33-3.22h2.3v3.22h3.01v2.2h-3.01v5.62c0,1.39.54,2.07,1.67,2.07.4,0,.88-.13,1.23-.27l.47,2.04c-.64.21-1.47.43-2.41.43-2.72,0-3.73-1.72-3.73-4.27Z"/>
    <path class="cls-4" d="m270.69,410.22v-5.63h-1.68v-2.08l1.83-.12.33-3.22h2.3v3.22h3.01v2.2h-3.01v5.62c0,1.39.54,2.07,1.67,2.07.4,0,.88-.13,1.23-.27l.47,2.04c-.64.21-1.47.43-2.42.43-2.72,0-3.73-1.72-3.73-4.27Z"/>
    <path class="cls-4" d="m277.79,408.3c0-3.84,2.67-6.21,5.45-6.21,3.19,0,4.88,2.31,4.88,5.61,0,.53-.06,1.06-.12,1.35h-7.5c.23,2.1,1.58,3.29,3.48,3.29,1.01,0,1.88-.32,2.74-.86l.94,1.72c-1.13.76-2.55,1.28-4.05,1.28-3.26,0-5.82-2.29-5.82-6.18Zm7.93-1.14c0-1.82-.81-2.92-2.42-2.92-1.38,0-2.59,1.03-2.83,2.92h5.25Z"/>
    <path class="cls-4" d="m290.76,402.39h2.27l.21,2.11h.08c.84-1.54,2.09-2.4,3.36-2.4.6,0,.98.08,1.34.24l-.48,2.4c-.41-.12-.72-.19-1.21-.19-.94,0-2.08.64-2.79,2.44v7.21h-2.77v-11.81Z"/>
    <path class="cls-4" d="m299.72,402.39h2.27l.21,1.6h.08c1.06-1.03,2.26-1.89,3.88-1.89,2.53,0,3.64,1.71,3.64,4.69v7.41h-2.77v-7.05c0-1.94-.56-2.67-1.84-2.67-1.04,0-1.72.51-2.69,1.47v8.25h-2.77v-11.81Z"/>
  </g>
</svg>
