<?xml version="1.0" encoding="UTF-8"?>
<svg id="Layer_1" data-name="Layer 1" xmlns="http://www.w3.org/2000/svg" viewBox="0 0 1107.6 492.2">
  <defs>
    <style>
      .cls-1 {
        stroke-width: .05px;
      }

      .cls-1, .cls-2, .cls-3 {
        stroke: #5e5e5e;
      }

      .cls-1, .cls-3 {
        fill: #5e5e5e;
      }

      .cls-4 {
        stroke-width: 0px;
      }

      .cls-2 {
        fill: none;
        stroke-linejoin: round;
      }

      .cls-2, .cls-3 {
        stroke-width: 2px;
      }

      .cls-5 {
        stroke: #ba23f6;
      }

      .cls-5, .cls-6, .cls-7, .cls-8 {
        fill: #fff;
        stroke-width: 4px;
      }

      .cls-6 {
        stroke: #006aec;
      }

      .cls-7 {
        stroke: #fc9432;
      }

      .cls-8 {
        stroke: #6db1ff;
      }
    </style>
  </defs>
  <g>
    <path class="cls-5" d="m633.8,410.2c0,44.18-35.82,80-80,80s-80-35.82-80-80,35.82-80,80-80,80,35.82,80,80Z"/>
    <path class="cls-6" d="m916.88,82c0,44.18-35.82,80-80,80s-80-35.82-80-80S792.7,2,836.88,2s80,35.82,80,80Z"/>
    <path class="cls-8" d="m350.72,82c0,44.18-35.82,80-80,80s-80-35.82-80-80S226.54,2,270.72,2s80,35.82,80,80Zm188.72,0c0,44.18-35.82,80-80,80s-80-35.82-80-80S415.26,2,459.44,2s80,35.82,80,80Z"/>
    <path class="cls-2" d="m836.86,165v.48l-.1,1.45-.15,1.43-.2,1.4-.27,1.4-.32,1.4-.38,1.37-.45,1.4-.52,1.38-.6,1.42-.66,1.43-.77,1.46-.86,1.5-.97,1.5-1.1,1.58-1.22,1.63-1.4,1.7-1.6,1.76-1.8,1.86-2.1,1.96-2.42,2.08-2.82,2.24-3.33,2.4-3.96,2.65-4.8,2.9-5.94,3.26-7.52,3.73-9.88,4.4-13.8,5.43-22,7.6-121.12,37.48-13.8,5.44-9.88,4.4-7.52,3.7-5.93,3.27-4.8,2.9-3.98,2.64-3.33,2.4-2.82,2.24-2.42,2.1-2.1,1.95-1.8,1.84-1.6,1.77-1.4,1.7-1.23,1.62-1.1,1.57-.96,1.5-.48.86"/>
    <path class="cls-1" d="m836.85,164h1.03l-.02,1.05-2-.04.02-1.03.97.02Z"/>
    <path class="cls-3" d="m554.65,325.08l-.7-14.98,8.94,2.44-8.24,12.54Z"/>
    <path class="cls-2" d="m459.46,165l.07,3.34.25,4.05.4,3.82.54,3.63.66,3.47.8,3.34.9,3.23,1,3.14,1.16,3.08,1.28,3.04,1.42,3.03,1.6,3.02,1.76,3.07,2,3.13,2.25,3.24,2.6,3.43,3.05,3.68,3.72,4.13,4.85,4.95,7.65,7.15,26.06,23.35,4.84,4.94,3.72,4.12,3.05,3.7,2.6,3.4,2.25,3.26,2,3.13,1.76,3.08,1.6,3.03,1.42,3.04,1.28,3.04,1.15,3.1,1.02,3.13.9,3.24.8,3.34.17.93"/>
    <path class="cls-1" d="m459.4,164h1.04l.02,1-2,.05-.02-1.08.96.03Z"/>
    <path class="cls-3" d="m553.5,324.98l-6-13.76,9.24-.88-3.24,14.64Z"/>
    <path class="cls-6" d="m728.16,82c0,44.18-35.82,80-80,80s-80-35.82-80-80S603.98,2,648.16,2s80,35.82,80,80Z"/>
    <path class="cls-7" d="m162,82c0,44.18-35.82,80-80,80S2,126.18,2,82,37.82,2,82,2s80,35.82,80,80Zm943.6,0c0,44.18-35.82,80-80,80s-80-35.82-80-80S981.42,2,1025.6,2s80,35.82,80,80Z"/>
    <path class="cls-2" d="m1025.58,165l-.05.78-.1.87-.12.87-.16.88-.2.87-.25.88-.3.9-.34.9-.4.92-.43.94-.5.97-.58,1-.65,1.02-.74,1.06-.85,1.1-.96,1.18-1.1,1.23-1.28,1.3-1.48,1.4-1.73,1.48-2.02,1.6-2.4,1.75-2.9,1.9-3.47,2.12-4.3,2.36-5.37,2.66-6.9,3.06-9.03,3.56-12.33,4.28-17.72,5.32-27.84,7.1-54.97,11.5-203.78,38.2-27.84,7.08-17.72,5.33-12.33,4.27-9.04,3.57-6.9,3.06-5.36,2.67-4.3,2.35-3.48,2.1-2.88,1.92-2.4,1.74-2.03,1.6-1.73,1.5-1.48,1.38-1.27,1.3-.68.75"/>
    <path class="cls-1" d="m1025.57,164h1.03l-.02,1.05-2-.04.02-1.03.97.02Z"/>
    <path class="cls-3" d="m555.07,325.23l1.33-14.95,8.53,3.64-9.86,11.31Z"/>
    <path class="cls-2" d="m648.14,165l-.07,3.34-.25,4.05-.4,3.82-.54,3.63-.66,3.47-.8,3.34-.9,3.23-1,3.14-1.16,3.08-1.28,3.04-1.42,3.03-1.6,3.02-1.76,3.07-2,3.13-2.25,3.24-2.6,3.43-3.05,3.68-3.72,4.13-4.84,4.95-7.66,7.15-26.05,23.35-4.85,4.94-3.72,4.12-3.05,3.7-2.6,3.4-2.25,3.26-2,3.13-1.76,3.08-1.6,3.03-1.42,3.04-1.28,3.04-1.15,3.1-1.02,3.13-.9,3.24-.8,3.34-.16.93"/>
    <path class="cls-1" d="m648.13,164h1.03l-.02,1.05-2-.04.02-1.03.97.02Z"/>
    <path class="cls-3" d="m554.1,324.98l-3.24-14.64,9.23.88-5.99,13.76Z"/>
    <path class="cls-2" d="m270.74,165v.48l.1,1.45.15,1.43.2,1.4.27,1.4.32,1.4.38,1.37.45,1.4.52,1.38.6,1.42.66,1.43.77,1.46.86,1.5.97,1.5,1.1,1.58,1.22,1.63,1.4,1.7,1.6,1.76,1.8,1.86,2.1,1.96,2.42,2.08,2.82,2.24,3.33,2.4,3.96,2.65,4.8,2.9,5.94,3.26,7.52,3.73,9.88,4.4,13.8,5.43,22,7.6,121.12,37.48,13.8,5.44,9.88,4.4,7.52,3.7,5.93,3.27,4.8,2.9,3.98,2.64,3.33,2.4,2.82,2.24,2.42,2.1,2.1,1.95,1.8,1.84,1.6,1.77,1.4,1.7,1.23,1.62,1.1,1.57.96,1.5.48.86"/>
    <path class="cls-1" d="m270.7,164h1.02l.02,1-2,.05-.02-1.08.98.03Z"/>
    <path class="cls-3" d="m552.95,325.08l-8.24-12.54,8.96-2.44-.72,14.98Z"/>
    <path class="cls-2" d="m82.03,165l.04.78.1.87.13.87.16.88.2.87.25.88.3.9.34.9.4.92.43.94.5.97.58,1,.65,1.02.74,1.06.85,1.1.96,1.18,1.1,1.23,1.28,1.3,1.48,1.4,1.73,1.48,2.03,1.6,2.4,1.75,2.88,1.9,3.5,2.12,4.28,2.36,5.37,2.66,6.9,3.05,9.03,3.56,12.33,4.28,17.72,5.32,27.84,7.1,54.97,11.5,203.78,38.2,27.84,7.08,17.72,5.33,12.33,4.27,9.04,3.57,6.9,3.06,5.36,2.67,4.3,2.35,3.48,2.1,2.88,1.92,2.4,1.74,2.03,1.6,1.73,1.5,1.48,1.38,1.27,1.3.68.75"/>
    <path class="cls-1" d="m81.97,164h1.03l.02,1-2,.05-.02-1.08.97.03Z"/>
    <path class="cls-3" d="m552.53,325.23l-9.86-11.3,8.53-3.65,1.33,14.95Z"/>
  </g>
  <g>
    <path class="cls-4" d="m425.49,70.57l1.63-1.91c1.12,1.07,2.64,1.79,4.1,1.79,1.77,0,2.74-.8,2.74-2.03,0-1.29-1.01-1.71-2.44-2.31l-2.15-.93c-1.55-.64-3.18-1.87-3.18-4.17,0-2.51,2.21-4.43,5.28-4.43,1.84,0,3.62.76,4.85,2.01l-1.43,1.77c-1-.85-2.07-1.35-3.41-1.35-1.49,0-2.46.7-2.46,1.85,0,1.24,1.2,1.69,2.5,2.23l2.12.89c1.87.78,3.18,1.96,3.18,4.24,0,2.55-2.12,4.67-5.65,4.67-2.13,0-4.17-.84-5.67-2.3Z"/>
    <path class="cls-4" d="m439.11,57.14c0-.93.73-1.57,1.71-1.57s1.71.63,1.71,1.57-.73,1.57-1.71,1.57-1.71-.65-1.71-1.57Zm.32,3.64h2.77v11.81h-2.77v-11.81Z"/>
    <path class="cls-4" d="m445.73,60.78h2.27l.21,1.61h.08c1-1.04,2.15-1.9,3.63-1.9,1.73,0,2.72.79,3.26,2.12,1.13-1.2,2.3-2.12,3.8-2.12,2.49,0,3.65,1.71,3.65,4.69v7.41h-2.77v-7.05c0-1.94-.58-2.67-1.82-2.67-.75,0-1.56.48-2.47,1.47v8.25h-2.77v-7.05c0-1.94-.58-2.67-1.82-2.67-.73,0-1.56.48-2.47,1.47v8.25h-2.77v-11.81Z"/>
    <path class="cls-4" d="m465.99,60.78h2.27l.21,1.26h.08c1-.86,2.26-1.55,3.56-1.55,2.95,0,4.65,2.37,4.65,6.01,0,4.04-2.41,6.38-5.04,6.38-1.05,0-2.08-.47-3.04-1.3l.09,1.96v3.72h-2.77v-16.49Zm7.92,5.75c0-2.36-.77-3.75-2.57-3.75-.86,0-1.66.43-2.58,1.33v5.5c.85.72,1.68.98,2.37.98,1.58,0,2.78-1.38,2.78-4.06Z"/>
    <path class="cls-4" d="m479.41,69.55v-13.95h2.77v14.09c0,.68.31.92.6.92.12,0,.22,0,.43-.05l.35,2.07c-.34.13-.8.24-1.46.24-1.96,0-2.68-1.27-2.68-3.33Z"/>
    <path class="cls-4" d="m485.15,66.69c0-3.84,2.66-6.2,5.44-6.2,3.19,0,4.88,2.31,4.88,5.61,0,.53-.06,1.06-.12,1.35h-7.5c.23,2.1,1.58,3.29,3.48,3.29,1.01,0,1.88-.32,2.74-.86l.94,1.72c-1.13.76-2.55,1.28-4.05,1.28-3.26,0-5.82-2.29-5.82-6.19Zm7.93-1.14c0-1.82-.81-2.92-2.42-2.92-1.38,0-2.59,1.03-2.83,2.92h5.25Z"/>
    <path class="cls-4" d="m395.63,93.63c0-5.15,3.22-8.21,7.21-8.21,1.97,0,3.54.94,4.53,1.99l-1.49,1.8c-.81-.81-1.75-1.37-2.98-1.37-2.56,0-4.4,2.16-4.4,5.69s1.69,5.76,4.33,5.76c1.4,0,2.47-.64,3.36-1.62l1.49,1.75c-1.27,1.48-2.91,2.29-4.95,2.29-3.95,0-7.09-2.9-7.09-8.1Z"/>
    <path class="cls-4" d="m409.29,95.55c0-3.93,2.67-6.2,5.62-6.2s5.62,2.27,5.62,6.2-2.67,6.19-5.62,6.19-5.62-2.27-5.62-6.19Zm8.39,0c0-2.37-1.04-3.94-2.77-3.94s-2.77,1.58-2.77,3.94,1.04,3.92,2.77,3.92,2.77-1.56,2.77-3.92Z"/>
    <path class="cls-4" d="m423.27,89.63h2.27l.21,1.61h.08c1-1.04,2.15-1.9,3.63-1.9,1.73,0,2.72.79,3.26,2.12,1.13-1.2,2.3-2.12,3.8-2.12,2.49,0,3.65,1.71,3.65,4.69v7.41h-2.77v-7.05c0-1.94-.58-2.67-1.82-2.67-.75,0-1.56.48-2.47,1.47v8.25h-2.77v-7.05c0-1.94-.58-2.67-1.82-2.67-.73,0-1.56.48-2.47,1.47v8.25h-2.77v-11.81Z"/>
    <path class="cls-4" d="m443.54,89.63h2.27l.21,1.26h.08c1-.86,2.26-1.55,3.56-1.55,2.95,0,4.65,2.37,4.65,6.01,0,4.04-2.41,6.38-5.04,6.38-1.05,0-2.08-.47-3.04-1.3l.09,1.96v3.72h-2.77v-16.49Zm7.92,5.75c0-2.36-.77-3.75-2.57-3.75-.86,0-1.66.43-2.58,1.33v5.5c.85.72,1.68.98,2.37.98,1.58,0,2.78-1.38,2.78-4.06Z"/>
    <path class="cls-4" d="m456.32,95.55c0-3.93,2.67-6.2,5.62-6.2s5.62,2.27,5.62,6.2-2.67,6.19-5.62,6.19-5.62-2.27-5.62-6.19Zm8.39,0c0-2.37-1.04-3.94-2.77-3.94s-2.77,1.58-2.77,3.94,1.04,3.92,2.77,3.92,2.77-1.56,2.77-3.92Z"/>
    <path class="cls-4" d="m470.3,89.63h2.27l.21,1.6h.08c1.06-1.03,2.26-1.89,3.88-1.89,2.53,0,3.64,1.71,3.64,4.69v7.41h-2.77v-7.05c0-1.94-.56-2.67-1.84-2.67-1.04,0-1.72.51-2.69,1.47v8.25h-2.77v-11.81Z"/>
    <path class="cls-4" d="m482.98,95.55c0-3.84,2.66-6.2,5.44-6.2,3.19,0,4.88,2.31,4.88,5.61,0,.53-.06,1.06-.12,1.35h-7.5c.23,2.1,1.58,3.29,3.48,3.29,1.01,0,1.88-.32,2.74-.86l.94,1.72c-1.13.76-2.55,1.28-4.05,1.28-3.26,0-5.82-2.29-5.82-6.19Zm7.93-1.14c0-1.82-.81-2.92-2.42-2.92-1.38,0-2.59,1.03-2.83,2.92h5.25Z"/>
    <path class="cls-4" d="m495.95,89.63h2.27l.21,1.6h.08c1.06-1.03,2.26-1.89,3.88-1.89,2.53,0,3.64,1.71,3.64,4.69v7.41h-2.77v-7.05c0-1.94-.56-2.67-1.84-2.67-1.04,0-1.72.51-2.69,1.47v8.25h-2.77v-11.81Z"/>
    <path class="cls-4" d="m509.83,97.46v-5.63h-1.68v-2.08l1.83-.12.33-3.22h2.3v3.22h3.01v2.2h-3.01v5.62c0,1.39.54,2.07,1.67,2.07.4,0,.88-.13,1.23-.27l.47,2.04c-.64.21-1.47.43-2.41.43-2.72,0-3.73-1.72-3.73-4.27Z"/>
    <path class="cls-4" d="m516.68,100.09l1.29-1.76c1.05.82,2.06,1.32,3.26,1.32,1.29,0,1.9-.61,1.9-1.41,0-.99-1.28-1.43-2.54-1.91-1.55-.58-3.32-1.47-3.32-3.44s1.65-3.53,4.3-3.53c1.65,0,2.96.67,3.92,1.41l-1.27,1.7c-.83-.61-1.66-1.03-2.59-1.03-1.19,0-1.75.57-1.75,1.31,0,.93,1.19,1.29,2.47,1.76,1.6.6,3.39,1.37,3.39,3.57,0,2.03-1.61,3.67-4.59,3.67-1.62,0-3.32-.69-4.47-1.65Z"/>
  </g>
  <g>
    <path class="cls-4" d="m234.75,70.57l1.63-1.91c1.12,1.07,2.64,1.79,4.1,1.79,1.77,0,2.74-.8,2.74-2.03,0-1.29-1.01-1.71-2.44-2.31l-2.15-.93c-1.55-.64-3.18-1.87-3.18-4.17,0-2.51,2.21-4.43,5.28-4.43,1.84,0,3.62.76,4.85,2.01l-1.43,1.77c-1-.85-2.07-1.35-3.41-1.35-1.49,0-2.46.7-2.46,1.85,0,1.24,1.2,1.69,2.5,2.23l2.12.89c1.87.78,3.18,1.96,3.18,4.24,0,2.55-2.12,4.67-5.65,4.67-2.13,0-4.17-.84-5.67-2.3Z"/>
    <path class="cls-4" d="m248.37,57.14c0-.93.73-1.57,1.71-1.57s1.71.63,1.71,1.57-.73,1.57-1.71,1.57-1.71-.65-1.71-1.57Zm.32,3.64h2.77v11.81h-2.77v-11.81Z"/>
    <path class="cls-4" d="m254.99,60.78h2.27l.21,1.61h.08c1-1.04,2.15-1.9,3.63-1.9,1.73,0,2.72.79,3.26,2.12,1.13-1.2,2.3-2.12,3.8-2.12,2.49,0,3.65,1.71,3.65,4.69v7.41h-2.77v-7.05c0-1.94-.58-2.67-1.82-2.67-.75,0-1.56.48-2.47,1.47v8.25h-2.77v-7.05c0-1.94-.58-2.67-1.82-2.67-.73,0-1.56.48-2.47,1.47v8.25h-2.77v-11.81Z"/>
    <path class="cls-4" d="m275.25,60.78h2.27l.21,1.26h.08c1-.86,2.26-1.55,3.56-1.55,2.95,0,4.65,2.37,4.65,6.01,0,4.04-2.41,6.38-5.04,6.38-1.05,0-2.08-.47-3.04-1.3l.09,1.96v3.72h-2.77v-16.49Zm7.92,5.75c0-2.36-.77-3.75-2.57-3.75-.86,0-1.66.43-2.58,1.33v5.5c.85.72,1.68.98,2.37.98,1.58,0,2.78-1.38,2.78-4.06Z"/>
    <path class="cls-4" d="m288.67,69.55v-13.95h2.77v14.09c0,.68.31.92.6.92.12,0,.22,0,.43-.05l.35,2.07c-.34.13-.8.24-1.46.24-1.96,0-2.68-1.27-2.68-3.33Z"/>
    <path class="cls-4" d="m294.41,66.69c0-3.84,2.66-6.2,5.44-6.2,3.19,0,4.88,2.31,4.88,5.61,0,.53-.06,1.06-.12,1.35h-7.5c.23,2.1,1.58,3.29,3.48,3.29,1.01,0,1.88-.32,2.74-.86l.94,1.72c-1.13.76-2.55,1.28-4.05,1.28-3.26,0-5.82-2.29-5.82-6.19Zm7.93-1.14c0-1.82-.81-2.92-2.42-2.92-1.38,0-2.59,1.03-2.83,2.92h5.25Z"/>
    <path class="cls-4" d="m204.9,93.63c0-5.15,3.22-8.21,7.21-8.21,1.97,0,3.54.94,4.53,1.99l-1.49,1.8c-.81-.81-1.75-1.37-2.98-1.37-2.56,0-4.4,2.16-4.4,5.69s1.69,5.76,4.33,5.76c1.4,0,2.47-.64,3.36-1.62l1.49,1.75c-1.27,1.48-2.91,2.29-4.95,2.29-3.95,0-7.09-2.9-7.09-8.1Z"/>
    <path class="cls-4" d="m218.55,95.55c0-3.93,2.67-6.2,5.62-6.2s5.62,2.27,5.62,6.2-2.67,6.19-5.62,6.19-5.62-2.27-5.62-6.19Zm8.39,0c0-2.37-1.04-3.94-2.77-3.94s-2.77,1.58-2.77,3.94,1.04,3.92,2.77,3.92,2.77-1.56,2.77-3.92Z"/>
    <path class="cls-4" d="m232.53,89.63h2.27l.21,1.61h.08c1-1.04,2.15-1.9,3.63-1.9,1.73,0,2.72.79,3.26,2.12,1.13-1.2,2.3-2.12,3.8-2.12,2.49,0,3.65,1.71,3.65,4.69v7.41h-2.77v-7.05c0-1.94-.58-2.67-1.82-2.67-.75,0-1.56.48-2.47,1.47v8.25h-2.77v-7.05c0-1.94-.58-2.67-1.82-2.67-.73,0-1.56.48-2.47,1.47v8.25h-2.77v-11.81Z"/>
    <path class="cls-4" d="m252.8,89.63h2.27l.21,1.26h.08c1-.86,2.26-1.55,3.56-1.55,2.95,0,4.65,2.37,4.65,6.01,0,4.04-2.41,6.38-5.04,6.38-1.05,0-2.08-.47-3.04-1.3l.09,1.96v3.72h-2.77v-16.49Zm7.92,5.75c0-2.36-.77-3.75-2.57-3.75-.86,0-1.66.43-2.58,1.33v5.5c.85.72,1.68.98,2.37.98,1.58,0,2.78-1.38,2.78-4.06Z"/>
    <path class="cls-4" d="m265.58,95.55c0-3.93,2.67-6.2,5.62-6.2s5.62,2.27,5.62,6.2-2.67,6.19-5.62,6.19-5.62-2.27-5.62-6.19Zm8.39,0c0-2.37-1.04-3.94-2.77-3.94s-2.77,1.58-2.77,3.94,1.04,3.92,2.77,3.92,2.77-1.56,2.77-3.92Z"/>
    <path class="cls-4" d="m279.56,89.63h2.27l.21,1.6h.08c1.06-1.03,2.26-1.89,3.88-1.89,2.53,0,3.64,1.71,3.64,4.69v7.41h-2.77v-7.05c0-1.94-.56-2.67-1.84-2.67-1.04,0-1.72.51-2.69,1.47v8.25h-2.77v-11.81Z"/>
    <path class="cls-4" d="m292.24,95.55c0-3.84,2.66-6.2,5.44-6.2,3.19,0,4.88,2.31,4.88,5.61,0,.53-.06,1.06-.12,1.35h-7.5c.23,2.1,1.58,3.29,3.48,3.29,1.01,0,1.88-.32,2.74-.86l.94,1.72c-1.13.76-2.55,1.28-4.05,1.28-3.26,0-5.82-2.29-5.82-6.19Zm7.93-1.14c0-1.82-.81-2.92-2.42-2.92-1.38,0-2.59,1.03-2.83,2.92h5.25Z"/>
    <path class="cls-4" d="m305.21,89.63h2.27l.21,1.6h.08c1.06-1.03,2.26-1.89,3.88-1.89,2.53,0,3.64,1.71,3.64,4.69v7.41h-2.77v-7.05c0-1.94-.56-2.67-1.84-2.67-1.04,0-1.72.51-2.69,1.47v8.25h-2.77v-11.81Z"/>
    <path class="cls-4" d="m319.09,97.46v-5.63h-1.68v-2.08l1.83-.12.33-3.22h2.3v3.22h3.01v2.2h-3.01v5.62c0,1.39.54,2.07,1.67,2.07.4,0,.88-.13,1.23-.27l.47,2.04c-.64.21-1.47.43-2.41.43-2.72,0-3.73-1.72-3.73-4.27Z"/>
    <path class="cls-4" d="m325.94,100.09l1.29-1.76c1.05.82,2.06,1.32,3.26,1.32,1.29,0,1.9-.61,1.9-1.41,0-.99-1.28-1.43-2.54-1.91-1.55-.58-3.32-1.47-3.32-3.44s1.65-3.53,4.3-3.53c1.65,0,2.96.67,3.92,1.41l-1.27,1.7c-.83-.61-1.66-1.03-2.59-1.03-1.19,0-1.75.57-1.75,1.31,0,.93,1.19,1.29,2.47,1.76,1.6.6,3.39,1.37,3.39,3.57,0,2.03-1.61,3.67-4.59,3.67-1.62,0-3.32-.69-4.47-1.65Z"/>
  </g>
  <g>
    <path class="cls-4" d="m604.83,64.78c0-5.15,3.22-8.21,7.21-8.21,1.97,0,3.54.94,4.53,1.99l-1.49,1.8c-.81-.81-1.75-1.37-2.98-1.37-2.56,0-4.4,2.16-4.4,5.69s1.69,5.76,4.33,5.76c1.4,0,2.47-.64,3.36-1.62l1.49,1.75c-1.27,1.48-2.92,2.29-4.95,2.29-3.95,0-7.09-2.9-7.09-8.1Z"/>
    <path class="cls-4" d="m618.49,66.69c0-3.93,2.67-6.2,5.62-6.2s5.62,2.27,5.62,6.2-2.67,6.19-5.62,6.19-5.62-2.27-5.62-6.19Zm8.39,0c0-2.37-1.04-3.94-2.77-3.94s-2.77,1.58-2.77,3.94,1.04,3.92,2.77,3.92,2.77-1.56,2.77-3.92Z"/>
    <path class="cls-4" d="m632.47,60.78h2.27l.21,1.61h.08c1-1.04,2.14-1.9,3.63-1.9,1.73,0,2.72.79,3.26,2.12,1.13-1.2,2.3-2.12,3.8-2.12,2.49,0,3.65,1.71,3.65,4.69v7.41h-2.77v-7.05c0-1.94-.58-2.67-1.82-2.67-.75,0-1.56.48-2.47,1.47v8.25h-2.77v-7.05c0-1.94-.58-2.67-1.82-2.67-.73,0-1.56.48-2.47,1.47v8.25h-2.77v-11.81Z"/>
    <path class="cls-4" d="m652.74,60.78h2.27l.21,1.26h.08c1-.86,2.26-1.55,3.56-1.55,2.95,0,4.65,2.37,4.65,6.01,0,4.04-2.41,6.38-5.04,6.38-1.05,0-2.08-.47-3.04-1.3l.09,1.96v3.72h-2.77v-16.49Zm7.92,5.75c0-2.36-.77-3.75-2.57-3.75-.86,0-1.66.43-2.58,1.33v5.5c.85.72,1.68.98,2.37.98,1.58,0,2.78-1.38,2.78-4.06Z"/>
    <path class="cls-4" d="m666.15,69.55v-13.95h2.77v14.09c0,.68.31.92.6.92.12,0,.22,0,.43-.05l.35,2.07c-.34.13-.8.24-1.46.24-1.96,0-2.68-1.27-2.68-3.33Z"/>
    <path class="cls-4" d="m671.89,66.69c0-3.84,2.66-6.2,5.44-6.2,3.19,0,4.88,2.31,4.88,5.61,0,.53-.06,1.06-.12,1.35h-7.5c.23,2.1,1.58,3.29,3.48,3.29,1.01,0,1.88-.32,2.74-.86l.94,1.72c-1.12.76-2.55,1.28-4.05,1.28-3.26,0-5.82-2.29-5.82-6.19Zm7.93-1.14c0-1.82-.81-2.92-2.42-2.92-1.38,0-2.59,1.03-2.83,2.92h5.25Z"/>
    <path class="cls-4" d="m686.89,66.43l-3.49-5.66h2.98l1.31,2.24c.34.65.72,1.34,1.08,1.99h.1c.3-.65.63-1.34.93-1.99l1.12-2.24h2.88l-3.49,5.96,3.74,5.85h-2.98l-1.44-2.34c-.39-.69-.78-1.41-1.19-2.09h-.1c-.35.67-.7,1.38-1.05,2.09l-1.25,2.34h-2.88l3.74-6.16Z"/>
    <path class="cls-4" d="m584.33,93.63c0-5.15,3.22-8.21,7.21-8.21,1.97,0,3.54.94,4.53,1.99l-1.49,1.8c-.81-.81-1.75-1.37-2.98-1.37-2.56,0-4.4,2.16-4.4,5.69s1.69,5.76,4.33,5.76c1.4,0,2.47-.64,3.36-1.62l1.49,1.75c-1.27,1.48-2.92,2.29-4.95,2.29-3.95,0-7.09-2.9-7.09-8.1Z"/>
    <path class="cls-4" d="m597.99,95.55c0-3.93,2.67-6.2,5.62-6.2s5.62,2.27,5.62,6.2-2.67,6.19-5.62,6.19-5.62-2.27-5.62-6.19Zm8.39,0c0-2.37-1.04-3.94-2.77-3.94s-2.77,1.58-2.77,3.94,1.04,3.92,2.77,3.92,2.77-1.56,2.77-3.92Z"/>
    <path class="cls-4" d="m611.97,89.63h2.27l.21,1.61h.08c1-1.04,2.14-1.9,3.63-1.9,1.73,0,2.72.79,3.26,2.12,1.13-1.2,2.3-2.12,3.8-2.12,2.49,0,3.65,1.71,3.65,4.69v7.41h-2.77v-7.05c0-1.94-.58-2.67-1.82-2.67-.75,0-1.56.48-2.47,1.47v8.25h-2.77v-7.05c0-1.94-.58-2.67-1.82-2.67-.73,0-1.56.48-2.47,1.47v8.25h-2.77v-11.81Z"/>
    <path class="cls-4" d="m632.24,89.63h2.27l.21,1.26h.08c1-.86,2.26-1.55,3.56-1.55,2.95,0,4.65,2.37,4.65,6.01,0,4.04-2.41,6.38-5.04,6.38-1.05,0-2.08-.47-3.04-1.3l.09,1.96v3.72h-2.77v-16.49Zm7.92,5.75c0-2.36-.77-3.75-2.57-3.75-.86,0-1.66.43-2.58,1.33v5.5c.85.72,1.68.98,2.37.98,1.58,0,2.78-1.38,2.78-4.06Z"/>
    <path class="cls-4" d="m645.02,95.55c0-3.93,2.67-6.2,5.62-6.2s5.62,2.27,5.62,6.2-2.67,6.19-5.62,6.19-5.62-2.27-5.62-6.19Zm8.39,0c0-2.37-1.04-3.94-2.77-3.94s-2.77,1.58-2.77,3.94,1.04,3.92,2.77,3.92,2.77-1.56,2.77-3.92Z"/>
    <path class="cls-4" d="m659,89.63h2.27l.21,1.6h.08c1.06-1.03,2.26-1.89,3.88-1.89,2.53,0,3.64,1.71,3.64,4.69v7.41h-2.77v-7.05c0-1.94-.56-2.67-1.84-2.67-1.04,0-1.72.51-2.69,1.47v8.25h-2.77v-11.81Z"/>
    <path class="cls-4" d="m671.68,95.55c0-3.84,2.67-6.2,5.45-6.2,3.19,0,4.88,2.31,4.88,5.61,0,.53-.06,1.06-.12,1.35h-7.5c.23,2.1,1.58,3.29,3.48,3.29,1.01,0,1.88-.32,2.74-.86l.94,1.72c-1.13.76-2.55,1.28-4.05,1.28-3.26,0-5.82-2.29-5.82-6.19Zm7.93-1.14c0-1.82-.81-2.92-2.42-2.92-1.38,0-2.59,1.03-2.83,2.92h5.25Z"/>
    <path class="cls-4" d="m684.65,89.63h2.27l.21,1.6h.08c1.06-1.03,2.26-1.89,3.88-1.89,2.53,0,3.64,1.71,3.64,4.69v7.41h-2.77v-7.05c0-1.94-.56-2.67-1.84-2.67-1.04,0-1.72.51-2.69,1.47v8.25h-2.77v-11.81Z"/>
    <path class="cls-4" d="m698.53,97.46v-5.63h-1.68v-2.08l1.83-.12.33-3.22h2.3v3.22h3.01v2.2h-3.01v5.62c0,1.39.54,2.07,1.67,2.07.4,0,.88-.13,1.23-.27l.47,2.04c-.64.21-1.47.43-2.42.43-2.72,0-3.73-1.72-3.73-4.27Z"/>
    <path class="cls-4" d="m705.38,100.09l1.29-1.76c1.05.82,2.06,1.32,3.26,1.32,1.29,0,1.9-.61,1.9-1.41,0-.99-1.28-1.43-2.54-1.91-1.55-.58-3.32-1.47-3.32-3.44s1.65-3.53,4.3-3.53c1.64,0,2.96.67,3.92,1.41l-1.27,1.7c-.83-.61-1.66-1.03-2.59-1.03-1.19,0-1.75.57-1.75,1.31,0,.93,1.19,1.29,2.47,1.76,1.6.6,3.39,1.37,3.39,3.57,0,2.03-1.61,3.67-4.59,3.67-1.62,0-3.32-.69-4.47-1.65Z"/>
  </g>
  <g>
    <path class="cls-4" d="m793.55,64.78c0-5.15,3.22-8.21,7.21-8.21,1.97,0,3.54.94,4.53,1.99l-1.49,1.8c-.81-.81-1.75-1.37-2.98-1.37-2.56,0-4.4,2.16-4.4,5.69s1.69,5.76,4.33,5.76c1.39,0,2.47-.64,3.36-1.62l1.49,1.75c-1.27,1.48-2.91,2.29-4.95,2.29-3.95,0-7.09-2.9-7.09-8.1Z"/>
    <path class="cls-4" d="m807.21,66.69c0-3.93,2.67-6.2,5.62-6.2s5.62,2.27,5.62,6.2-2.67,6.19-5.62,6.19-5.62-2.27-5.62-6.19Zm8.39,0c0-2.37-1.04-3.94-2.77-3.94s-2.77,1.58-2.77,3.94,1.04,3.92,2.77,3.92,2.77-1.56,2.77-3.92Z"/>
    <path class="cls-4" d="m821.19,60.78h2.27l.21,1.61h.08c1-1.04,2.15-1.9,3.63-1.9,1.73,0,2.72.79,3.26,2.12,1.13-1.2,2.3-2.12,3.8-2.12,2.49,0,3.65,1.71,3.65,4.69v7.41h-2.77v-7.05c0-1.94-.58-2.67-1.82-2.67-.75,0-1.56.48-2.47,1.47v8.25h-2.77v-7.05c0-1.94-.58-2.67-1.82-2.67-.73,0-1.56.48-2.47,1.47v8.25h-2.77v-11.81Z"/>
    <path class="cls-4" d="m841.46,60.78h2.27l.21,1.26h.08c1-.86,2.26-1.55,3.56-1.55,2.95,0,4.65,2.37,4.65,6.01,0,4.04-2.41,6.38-5.04,6.38-1.05,0-2.08-.47-3.04-1.3l.09,1.96v3.72h-2.77v-16.49Zm7.92,5.75c0-2.36-.77-3.75-2.57-3.75-.86,0-1.66.43-2.58,1.33v5.5c.85.72,1.68.98,2.37.98,1.58,0,2.78-1.38,2.78-4.06Z"/>
    <path class="cls-4" d="m854.87,69.55v-13.95h2.77v14.09c0,.68.31.92.6.92.12,0,.22,0,.43-.05l.35,2.07c-.34.13-.8.24-1.46.24-1.96,0-2.68-1.27-2.68-3.33Z"/>
    <path class="cls-4" d="m860.61,66.69c0-3.84,2.67-6.2,5.45-6.2,3.19,0,4.88,2.31,4.88,5.61,0,.53-.06,1.06-.12,1.35h-7.5c.23,2.1,1.58,3.29,3.48,3.29,1.01,0,1.88-.32,2.74-.86l.94,1.72c-1.13.76-2.55,1.28-4.05,1.28-3.26,0-5.82-2.29-5.82-6.19Zm7.93-1.14c0-1.82-.81-2.92-2.42-2.92-1.38,0-2.59,1.03-2.83,2.92h5.25Z"/>
    <path class="cls-4" d="m875.61,66.43l-3.49-5.66h2.98l1.31,2.24c.34.65.72,1.34,1.08,1.99h.1c.3-.65.63-1.34.93-1.99l1.12-2.24h2.88l-3.49,5.96,3.74,5.85h-2.98l-1.44-2.34c-.39-.69-.78-1.41-1.19-2.09h-.1c-.35.67-.7,1.38-1.05,2.09l-1.25,2.34h-2.88l3.74-6.16Z"/>
    <path class="cls-4" d="m773.05,93.63c0-5.15,3.22-8.21,7.21-8.21,1.97,0,3.54.94,4.53,1.99l-1.49,1.8c-.81-.81-1.75-1.37-2.98-1.37-2.56,0-4.4,2.16-4.4,5.69s1.69,5.76,4.33,5.76c1.39,0,2.47-.64,3.36-1.62l1.49,1.75c-1.27,1.48-2.91,2.29-4.95,2.29-3.95,0-7.09-2.9-7.09-8.1Z"/>
    <path class="cls-4" d="m786.71,95.55c0-3.93,2.67-6.2,5.62-6.2s5.62,2.27,5.62,6.2-2.67,6.19-5.62,6.19-5.62-2.27-5.62-6.19Zm8.39,0c0-2.37-1.04-3.94-2.77-3.94s-2.77,1.58-2.77,3.94,1.04,3.92,2.77,3.92,2.77-1.56,2.77-3.92Z"/>
    <path class="cls-4" d="m800.69,89.63h2.27l.21,1.61h.08c1-1.04,2.15-1.9,3.63-1.9,1.73,0,2.72.79,3.26,2.12,1.13-1.2,2.3-2.12,3.8-2.12,2.49,0,3.65,1.71,3.65,4.69v7.41h-2.77v-7.05c0-1.94-.58-2.67-1.82-2.67-.75,0-1.56.48-2.47,1.47v8.25h-2.77v-7.05c0-1.94-.58-2.67-1.82-2.67-.73,0-1.56.48-2.47,1.47v8.25h-2.77v-11.81Z"/>
    <path class="cls-4" d="m820.96,89.63h2.27l.21,1.26h.08c1-.86,2.26-1.55,3.56-1.55,2.95,0,4.65,2.37,4.65,6.01,0,4.04-2.41,6.38-5.04,6.38-1.05,0-2.08-.47-3.04-1.3l.09,1.96v3.72h-2.77v-16.49Zm7.92,5.75c0-2.36-.77-3.75-2.57-3.75-.86,0-1.66.43-2.58,1.33v5.5c.85.72,1.68.98,2.37.98,1.58,0,2.78-1.38,2.78-4.06Z"/>
    <path class="cls-4" d="m833.74,95.55c0-3.93,2.67-6.2,5.62-6.2s5.62,2.27,5.62,6.2-2.67,6.19-5.62,6.19-5.62-2.27-5.62-6.19Zm8.39,0c0-2.37-1.04-3.94-2.77-3.94s-2.77,1.58-2.77,3.94,1.04,3.92,2.77,3.92,2.77-1.56,2.77-3.92Z"/>
    <path class="cls-4" d="m847.72,89.63h2.27l.21,1.6h.08c1.06-1.03,2.26-1.89,3.88-1.89,2.53,0,3.64,1.71,3.64,4.69v7.41h-2.77v-7.05c0-1.94-.56-2.67-1.84-2.67-1.04,0-1.72.51-2.69,1.47v8.25h-2.77v-11.81Z"/>
    <path class="cls-4" d="m860.4,95.55c0-3.84,2.66-6.2,5.44-6.2,3.19,0,4.88,2.31,4.88,5.61,0,.53-.06,1.06-.12,1.35h-7.5c.23,2.1,1.58,3.29,3.48,3.29,1.01,0,1.88-.32,2.74-.86l.94,1.72c-1.12.76-2.55,1.28-4.05,1.28-3.26,0-5.82-2.29-5.82-6.19Zm7.93-1.14c0-1.82-.81-2.92-2.42-2.92-1.38,0-2.59,1.03-2.83,2.92h5.25Z"/>
    <path class="cls-4" d="m873.37,89.63h2.27l.21,1.6h.08c1.06-1.03,2.26-1.89,3.88-1.89,2.53,0,3.64,1.71,3.64,4.69v7.41h-2.77v-7.05c0-1.94-.56-2.67-1.84-2.67-1.04,0-1.72.51-2.69,1.47v8.25h-2.77v-11.81Z"/>
    <path class="cls-4" d="m887.25,97.46v-5.63h-1.68v-2.08l1.83-.12.33-3.22h2.3v3.22h3.01v2.2h-3.01v5.62c0,1.39.54,2.07,1.67,2.07.4,0,.88-.13,1.23-.27l.47,2.04c-.64.21-1.47.43-2.41.43-2.72,0-3.73-1.72-3.73-4.27Z"/>
    <path class="cls-4" d="m894.1,100.09l1.29-1.76c1.05.82,2.06,1.32,3.26,1.32,1.29,0,1.89-.61,1.89-1.41,0-.99-1.28-1.43-2.54-1.91-1.55-.58-3.32-1.47-3.32-3.44s1.66-3.53,4.3-3.53c1.65,0,2.96.67,3.92,1.41l-1.27,1.7c-.83-.61-1.66-1.03-2.59-1.03-1.19,0-1.75.57-1.75,1.31,0,.93,1.19,1.29,2.47,1.76,1.6.6,3.39,1.37,3.39,3.57,0,2.03-1.61,3.67-4.59,3.67-1.62,0-3.32-.69-4.47-1.65Z"/>
  </g>
  <g>
    <path class="cls-4" d="m990.49,66.27h4.95c3.49,0,6.08,1.21,6.08,4.85s-2.6,5.1-5.98,5.1h-2.26v5.78h-2.79v-15.73Zm4.82,7.71c2.35,0,3.46-.93,3.46-2.87s-1.22-2.62-3.56-2.62h-1.93v5.48h2.03Z"/>
    <path class="cls-4" d="m1002.7,78.83c0-2.53,2.1-3.85,6.94-4.37-.04-1.27-.55-2.33-2.14-2.33-1.17,0-2.28.53-3.32,1.16l-1.02-1.85c1.3-.82,2.97-1.55,4.85-1.55,2.95,0,4.41,1.82,4.41,5.11v6.99h-2.27l-.21-1.31h-.08c-1.06.9-2.27,1.6-3.67,1.6-2.07,0-3.49-1.4-3.49-3.46Zm6.94,0v-2.66c-3.2.4-4.27,1.24-4.27,2.43,0,1.04.71,1.5,1.7,1.5s1.69-.47,2.57-1.28Z"/>
    <path class="cls-4" d="m1015.77,78.02v-5.63h-1.68v-2.08l1.83-.13.33-3.22h2.3v3.22h3.01v2.2h-3.01v5.62c0,1.39.54,2.07,1.67,2.07.4,0,.88-.13,1.23-.27l.47,2.04c-.64.21-1.47.43-2.42.43-2.72,0-3.73-1.72-3.73-4.27Z"/>
    <path class="cls-4" d="m1023.97,78.02v-5.63h-1.68v-2.08l1.83-.13.33-3.22h2.3v3.22h3.01v2.2h-3.01v5.62c0,1.39.54,2.07,1.67,2.07.4,0,.88-.13,1.23-.27l.47,2.04c-.64.21-1.47.43-2.41.43-2.72,0-3.73-1.72-3.73-4.27Z"/>
    <path class="cls-4" d="m1031.07,76.1c0-3.84,2.66-6.2,5.44-6.2,3.19,0,4.88,2.31,4.88,5.61,0,.53-.06,1.06-.12,1.35h-7.5c.23,2.1,1.58,3.29,3.48,3.29,1.01,0,1.88-.32,2.74-.86l.94,1.72c-1.12.76-2.55,1.28-4.05,1.28-3.26,0-5.82-2.29-5.82-6.19Zm7.93-1.14c0-1.82-.81-2.92-2.42-2.92-1.38,0-2.59,1.03-2.83,2.92h5.25Z"/>
    <path class="cls-4" d="m1044.04,70.19h2.27l.21,2.11h.08c.84-1.54,2.09-2.4,3.36-2.4.6,0,.98.08,1.34.24l-.48,2.4c-.41-.12-.72-.19-1.21-.19-.94,0-2.08.64-2.79,2.44v7.2h-2.77v-11.81Z"/>
    <path class="cls-4" d="m1053,70.19h2.27l.21,1.6h.08c1.06-1.03,2.26-1.89,3.88-1.89,2.53,0,3.64,1.71,3.64,4.69v7.41h-2.77v-7.05c0-1.94-.56-2.67-1.84-2.67-1.04,0-1.72.51-2.69,1.47v8.25h-2.77v-11.81Z"/>
  </g>
  <g>
    <path class="cls-4" d="m512.09,396.82h-4.54v-2.35h11.87v2.35h-4.54v13.38h-2.79v-13.38Z"/>
    <path class="cls-4" d="m519.31,404.3c0-3.84,2.66-6.21,5.44-6.21,3.19,0,4.88,2.31,4.88,5.61,0,.53-.06,1.06-.12,1.35h-7.5c.23,2.1,1.58,3.29,3.48,3.29,1.01,0,1.88-.32,2.74-.86l.94,1.72c-1.13.76-2.55,1.28-4.05,1.28-3.26,0-5.82-2.29-5.82-6.18Zm7.93-1.14c0-1.82-.81-2.92-2.42-2.92-1.38,0-2.59,1.03-2.83,2.92h5.25Z"/>
    <path class="cls-4" d="m532.28,398.39h2.27l.21,1.61h.08c1-1.04,2.15-1.9,3.63-1.9,1.73,0,2.72.79,3.26,2.12,1.13-1.2,2.3-2.12,3.8-2.12,2.49,0,3.65,1.71,3.65,4.69v7.41h-2.77v-7.05c0-1.94-.58-2.67-1.82-2.67-.75,0-1.56.48-2.47,1.47v8.25h-2.77v-7.05c0-1.94-.58-2.67-1.82-2.67-.73,0-1.56.48-2.47,1.47v8.25h-2.77v-11.81Z"/>
    <path class="cls-4" d="m552.55,398.39h2.27l.21,1.26h.08c1-.86,2.26-1.55,3.56-1.55,2.95,0,4.65,2.37,4.65,6.01,0,4.04-2.41,6.38-5.04,6.38-1.05,0-2.08-.47-3.04-1.3l.09,1.96v3.72h-2.77v-16.49Zm7.92,5.75c0-2.36-.77-3.75-2.57-3.75-.86,0-1.66.43-2.58,1.33v5.5c.85.72,1.68.98,2.37.98,1.58,0,2.78-1.38,2.78-4.06Z"/>
    <path class="cls-4" d="m565.97,407.16v-13.95h2.77v14.09c0,.68.31.92.6.92.12,0,.22,0,.43-.05l.35,2.07c-.34.13-.8.24-1.46.24-1.96,0-2.68-1.27-2.68-3.33Z"/>
    <path class="cls-4" d="m571.85,407.03c0-2.53,2.1-3.85,6.95-4.37-.04-1.27-.55-2.33-2.15-2.33-1.17,0-2.28.53-3.32,1.16l-1.02-1.85c1.3-.82,2.97-1.55,4.85-1.55,2.95,0,4.41,1.82,4.41,5.11v6.99h-2.27l-.21-1.31h-.08c-1.06.9-2.27,1.6-3.67,1.6-2.07,0-3.49-1.4-3.49-3.46Zm6.95,0v-2.66c-3.2.4-4.27,1.24-4.27,2.43,0,1.04.71,1.5,1.7,1.5s1.69-.47,2.57-1.28Z"/>
    <path class="cls-4" d="m584.92,406.22v-5.63h-1.68v-2.08l1.83-.12.33-3.22h2.3v3.22h3.01v2.2h-3.01v5.62c0,1.39.54,2.07,1.67,2.07.4,0,.88-.13,1.23-.27l.47,2.04c-.64.21-1.47.43-2.42.43-2.72,0-3.73-1.72-3.73-4.27Z"/>
    <path class="cls-4" d="m592.02,404.3c0-3.84,2.66-6.21,5.44-6.21,3.19,0,4.88,2.31,4.88,5.61,0,.53-.06,1.06-.12,1.35h-7.5c.23,2.1,1.58,3.29,3.48,3.29,1.01,0,1.88-.32,2.74-.86l.94,1.72c-1.12.76-2.55,1.28-4.05,1.28-3.26,0-5.82-2.29-5.82-6.18Zm7.93-1.14c0-1.82-.81-2.92-2.42-2.92-1.38,0-2.59,1.03-2.83,2.92h5.25Z"/>
  </g>
  <g>
    <path class="cls-4" d="m44.89,66.27h4.95c3.49,0,6.08,1.21,6.08,4.85s-2.6,5.1-5.98,5.1h-2.26v5.78h-2.79v-15.73Zm4.82,7.71c2.35,0,3.46-.93,3.46-2.87s-1.22-2.62-3.56-2.62h-1.93v5.48h2.03Z"/>
    <path class="cls-4" d="m57.1,78.83c0-2.53,2.1-3.85,6.94-4.37-.04-1.27-.55-2.33-2.15-2.33-1.17,0-2.28.53-3.32,1.16l-1.02-1.85c1.3-.82,2.97-1.55,4.85-1.55,2.95,0,4.41,1.82,4.41,5.11v6.99h-2.27l-.21-1.31h-.08c-1.06.9-2.27,1.6-3.67,1.6-2.07,0-3.49-1.4-3.49-3.46Zm6.94,0v-2.66c-3.2.4-4.27,1.24-4.27,2.43,0,1.04.71,1.5,1.7,1.5s1.69-.47,2.57-1.28Z"/>
    <path class="cls-4" d="m70.17,78.02v-5.63h-1.68v-2.08l1.83-.13.33-3.22h2.3v3.22h3.01v2.2h-3.01v5.62c0,1.39.54,2.07,1.67,2.07.4,0,.88-.13,1.23-.27l.47,2.04c-.64.21-1.47.43-2.41.43-2.72,0-3.73-1.72-3.73-4.27Z"/>
    <path class="cls-4" d="m78.37,78.02v-5.63h-1.68v-2.08l1.83-.13.33-3.22h2.3v3.22h3.01v2.2h-3.01v5.62c0,1.39.54,2.07,1.67,2.07.4,0,.88-.13,1.23-.27l.47,2.04c-.64.21-1.47.43-2.41.43-2.72,0-3.73-1.72-3.73-4.27Z"/>
    <path class="cls-4" d="m85.47,76.1c0-3.84,2.66-6.2,5.44-6.2,3.19,0,4.88,2.31,4.88,5.61,0,.53-.06,1.06-.12,1.35h-7.5c.23,2.1,1.58,3.29,3.48,3.29,1.01,0,1.88-.32,2.74-.86l.94,1.72c-1.13.76-2.55,1.28-4.05,1.28-3.26,0-5.82-2.29-5.82-6.19Zm7.93-1.14c0-1.82-.81-2.92-2.42-2.92-1.38,0-2.59,1.03-2.83,2.92h5.25Z"/>
    <path class="cls-4" d="m98.44,70.19h2.27l.21,2.11h.08c.84-1.54,2.09-2.4,3.36-2.4.6,0,.98.08,1.34.24l-.48,2.4c-.41-.12-.72-.19-1.21-.19-.94,0-2.08.64-2.79,2.44v7.2h-2.77v-11.81Z"/>
    <path class="cls-4" d="m107.4,70.19h2.27l.21,1.6h.08c1.06-1.03,2.26-1.89,3.88-1.89,2.53,0,3.64,1.71,3.64,4.69v7.41h-2.77v-7.05c0-1.94-.56-2.67-1.84-2.67-1.04,0-1.72.51-2.69,1.47v8.25h-2.77v-11.81Z"/>
  </g>
</svg>