<?xml version="1.0" encoding="UTF-8"?>
<svg id="design-system-logo" xmlns="http://www.w3.org/2000/svg" viewBox="0 0 222.561 222.561">
  <g>
    <g>
      <path shape-rendering="geometricPrecision" d="m122.9819,66.3027c-1.167-5.165-2.75-11.6631-3.916-17.1621h-.333c-1.167,5.499-2.583,11.9971-3.749,17.1621l-.8663,3.75h9.7305l-.8661-3.75Z" class="ds-logo-gray" />
      <path shape-rendering="geometricPrecision" d="m209.7133,118.0049l-2.9229-7.998h-.2207c.4414,4.082,1.3242,9.2666,1.3242,13.6797v10.3701h-9.0469v-35.8545h9.5977l6.0127,15.9971,2.9238,8.0537h.2207c-.4414-3.8613-1.3242-9.2676-1.3242-13.6807v-10.3701h5.5143C215.3174,42.9078,168.3136,0,111.2805,0,76.6566,0,45.7274,15.8138,25.3178,40.6115v32.6902c0,4.665,1.416,7.998,5.999,7.998s6.165-3.333,6.165-7.998v-34.8252h13.8301v33.1582c0,13.4971-5.832,21.9951-19.9951,21.9951s-20.3291-8.498-20.3291-21.9951v-8.6277C3.9465,77.6091,0,93.9838,0,111.2805c0,20.1232,5.3426,38.9982,14.6849,55.2859l.1476-.1777c2.7031,2.042,5.9023,3.4756,9.1562,3.4756,2.8682,0,3.9717-.9375,3.9717-2.0957,0-2.0967-1.875-2.5381-5.1846-3.917l-4.4688-1.875c-4.1367-1.5449-7.5566-4.7998-7.5566-9.9844,0-6.123,5.5156-11.1426,13.6797-11.1426,4.2471,0,8.7705,1.5449,12.2461,4.7988l-4.7441,5.958c-2.5928-1.71-4.6338-2.5928-8.0537-2.5928-2.0957,0-3.5303.7725-3.5303,2.4268,0,1.6553,2.041,2.2617,5.627,3.5859l4.1367,1.71c4.7988,1.7646,7.5566,4.8535,7.5566,9.8184,0,6.0674-5.0742,11.4736-14.3418,11.4736-.3721,0-.7515-.0286-1.1291-.0495,20.299,27.0681,52.6451,44.5822,89.0829,44.5822,53.6522,0,98.4326-37.9706,108.9437-88.5043h-4.4981l-6.0127-16.0518Zm-62.7939-79.5283h14.3301v20.1621h11.6641v-20.1621h14.3301v54.1533h-14.3301v-21.4941h-11.6641v21.4941h-14.3301v-54.1533Zm17.3926,87.6367v7.9434h-25.8154v-7.9434h8.1641v-19.9678h-8.1641v-7.9434h25.8154v7.9434h-8.1641v19.9678h8.1641Zm-36.415-87.6367l16.3291,54.1533h-15.1631l-2.6556-11.4971h-14.8495l-2.656,11.4971h-14.6631l16.3291-54.1533h17.3291Zm-27.2178,73.2959v7.9424h-12.6865v6.3984h15.4453v7.9434h-24.9326v-35.8545h24.3809v7.9434h-14.8936v5.627h12.6865ZM55.7465,38.4766h45.4883v11.9971h-15.5791v42.1562h-14.3301v-42.1562h-15.5791v-11.9971Zm-9.4717,59.7256h10.3154c10.2598,0,17.4854,5.0752,17.4854,17.7617s-7.2256,18.0928-16.9346,18.0928h-10.8662v-35.8545Zm12.79,79.1641h-9.4873v-11.8594l-11.3633-23.9951h10.1494l2.9785,7.833c.9375,2.7578,1.9307,5.2949,2.9238,8.1631h.2207c.9922-2.8682,2.041-5.4053,3.0332-8.1631l2.9795-7.833h9.9287l-11.3633,23.9951v11.8594Zm24.5957.6621c-4.6885,0-9.873-1.6553-13.9004-5.1299l5.4062-6.5098c2.7031,2.042,5.9023,3.4756,9.1562,3.4756,2.8682,0,3.9717-.9375,3.9717-2.0957,0-2.0967-1.875-2.5381-5.1846-3.917l-4.4688-1.875c-4.1367-1.5449-7.5566-4.7998-7.5566-9.9844,0-6.123,5.5156-11.1426,13.6797-11.1426,4.2471,0,8.7705,1.5449,12.2461,4.7988l-4.7441,5.958c-2.5928-1.71-4.6338-2.5928-8.0537-2.5928-2.0957,0-3.5303.7725-3.5303,2.4268,0,1.6553,2.041,2.2617,5.627,3.5859l4.1367,1.71c4.7988,1.7646,7.5566,4.8535,7.5566,9.8184,0,6.0674-5.0742,11.4736-14.3418,11.4736Zm46.7324-28.5732h-10.3154v27.9111h-9.4873v-27.9111h-10.3154v-7.9434h30.1182v7.9434Zm-9.0684-14.7363c-4.6885,0-9.873-1.6553-13.9004-5.1299l5.4062-6.5088c2.7031,2.041,5.9023,3.4746,9.1562,3.4746,2.8682,0,3.9717-.9375,3.9717-2.0957,0-2.0957-1.875-2.5371-5.1846-3.916l-4.4688-1.876c-4.1367-1.5439-7.5566-4.7988-7.5566-9.9844,0-6.1221,5.5156-11.1416,13.6797-11.1416,4.2471,0,8.7705,1.5439,12.2461,4.7988l-4.7441,5.957c-2.5928-1.71-4.6338-2.5928-8.0537-2.5928-2.0957,0-3.5303.7725-3.5303,2.4277,0,1.6543,2.041,2.2607,5.627,3.585l4.1367,1.71c4.7988,1.7656,7.5566,4.8545,7.5566,9.8184,0,6.0674-5.0742,11.4736-14.3418,11.4736Zm37.624,42.6475h-24.9326v-35.8545h24.3809v7.9434h-14.8936v5.626h12.6865v7.9434h-12.6865v6.3984h15.4453v7.9434Zm31.6387,0h-7.832v-8.4395c0-4.248.7715-14.0107,1.2129-18.2031h-.165l-3.0342,10.6455-1.875,6.5098h-4.1924l-1.9863-6.5098-2.7578-10.6455h-.2207c.4414,4.1924,1.2139,13.9551,1.2139,18.2031v8.4395h-7.7227v-35.8545h9.6533l2.9238,11.6943.9922,4.6328h.2207l.9932-4.6328,2.9238-11.6943h9.6523v35.8545Zm3.416-47.0605c-2.4268,2.2061-6.8398,4.4131-11.418,4.4131-9.2119,0-16.8242-6.0674-16.8242-18.3135,0-12.1348,7.5576-18.8643,16.8799-18.8643,4.8535,0,8.3291,2.2061,10.7012,4.6328l-5.1855,5.8477c-1.4893-1.4346-2.9238-2.3174-5.5156-2.3174-3.917,0-7.1162,3.8613-7.1162,10.3701,0,6.7295,2.4824,10.4805,7.6123,10.4805.8828,0,1.875-.2207,2.4268-.6621v-4.9639h-4.4678v-7.7227h12.9072v17.0996Z" class="ds-logo-gray" />
      <path shape-rendering="geometricPrecision" d="m64.3676,115.9639c0-8.3838-3.6963-10.1494-8.2744-10.1494h-.3311v20.6299h.3311c4.5781,0,8.2744-2.0957,8.2744-10.4805Z" class="ds-logo-gray" />
      <path shape-rendering="geometricPrecision" d="m31.3168,93.6299c14.1631,0,19.9951-8.498,19.9951-21.9951v-33.1582h-13.8301v34.8252c0,4.665-1.583,7.998-6.165,7.998s-5.999-3.333-5.999-7.998v-32.6902c-5.6223,6.8312-10.4473,14.3434-14.3301,22.3955v8.6277c0,13.4971,6.165,21.9951,20.3291,21.9951Z" class="ds-logo-white" />
      <polygon shape-rendering="geometricPrecision" points="71.3256 92.6299 85.6557 92.6299 85.6557 50.4736 101.2348 50.4736 101.2348 38.4766 55.7465 38.4766 55.7465 50.4736 71.3256 50.4736 71.3256 92.6299" class="ds-logo-white" />
      <path shape-rendering="geometricPrecision" d="m108.9018,92.6299l2.656-11.4971h-5.572v-11.0801h8.1317l.8663-3.75c1.166-5.165,2.582-11.6631,3.749-17.1621h.333c1.166,5.499,2.749,11.9971,3.916,17.1621l.8661,3.75h8.4649v11.0801h-5.9056l2.6556,11.4971h15.1631l-16.3291-54.1533h-17.3291l-16.3291,54.1533h14.6631Z" class="ds-logo-white" />
      <polygon shape-rendering="geometricPrecision" points="105.9858 70.0527 105.9858 81.1328 111.5578 81.1328 114.1175 70.0527 105.9858 70.0527" class="ds-logo-white" />
      <polygon shape-rendering="geometricPrecision" points="132.3129 70.0527 123.848 70.0527 126.4073 81.1328 132.3129 81.1328 132.3129 70.0527" class="ds-logo-white" />
      <polygon shape-rendering="geometricPrecision" points="114.1175 70.0527 111.5578 81.1328 126.4073 81.1328 123.848 70.0527 114.1175 70.0527" class="ds-logo-white" />
      <polygon shape-rendering="geometricPrecision" points="161.2495 71.1357 172.9135 71.1357 172.9135 92.6299 187.2436 92.6299 187.2436 38.4766 172.9135 38.4766 172.9135 58.6387 161.2495 58.6387 161.2495 38.4766 146.9194 38.4766 146.9194 92.6299 161.2495 92.6299 161.2495 71.1357" class="ds-logo-white" />
      <path shape-rendering="geometricPrecision" d="m74.0756,115.9639c0-12.6865-7.2256-17.7617-17.4854-17.7617h-10.3154v35.8545h10.8662c9.709,0,16.9346-5.4053,16.9346-18.0928Zm-18.3135,10.4805v-20.6299h.3311c4.5781,0,8.2744,1.7656,8.2744,10.1494s-3.6963,10.4805-8.2744,10.4805h-.3311Z" class="ds-logo-white" />
      <polygon shape-rendering="geometricPrecision" points="102.8862 106.1455 102.8862 98.2021 78.5053 98.2021 78.5053 134.0566 103.4379 134.0566 103.4379 126.1133 87.9926 126.1133 87.9926 119.7148 100.6791 119.7148 100.6791 111.7725 87.9926 111.7725 87.9926 106.1455 102.8862 106.1455" class="ds-logo-white" />
      <path shape-rendering="geometricPrecision" d="m128.1098,113.4268l-4.1367-1.71c-3.5859-1.3242-5.627-1.9307-5.627-3.585,0-1.6553,1.4346-2.4277,3.5303-2.4277,3.4199,0,5.4609.8828,8.0537,2.5928l4.7441-5.957c-3.4756-3.2549-7.999-4.7988-12.2461-4.7988-8.1641,0-13.6797,5.0195-13.6797,11.1416,0,5.1855,3.4199,8.4404,7.5566,9.9844l4.4688,1.876c3.3096,1.3789,5.1846,1.8203,5.1846,3.916,0,1.1582-1.1035,2.0957-3.9717,2.0957-3.2539,0-6.4531-1.4336-9.1562-3.4746l-5.4062,6.5088c4.0273,3.4746,9.2119,5.1299,13.9004,5.1299,9.2676,0,14.3418-5.4062,14.3418-11.4736,0-4.9639-2.7578-8.0527-7.5566-9.8184Z" class="ds-logo-white" />
      <polygon shape-rendering="geometricPrecision" points="164.312 106.1455 164.312 98.2021 138.4965 98.2021 138.4965 106.1455 146.6606 106.1455 146.6606 126.1133 138.4965 126.1133 138.4965 134.0566 164.312 134.0566 164.312 126.1133 156.1479 126.1133 156.1479 106.1455 164.312 106.1455" class="ds-logo-white" />
      <path shape-rendering="geometricPrecision" d="m181.0961,120.9287h4.4678v4.9639c-.5518.4414-1.5439.6621-2.4268.6621-5.1299,0-7.6123-3.751-7.6123-10.4805,0-6.5088,3.1992-10.3701,7.1162-10.3701,2.5918,0,4.0264.8828,5.5156,2.3174l5.1855-5.8477c-2.3721-2.4268-5.8477-4.6328-10.7012-4.6328-9.3223,0-16.8799,6.7295-16.8799,18.8643,0,12.2461,7.6123,18.3135,16.8242,18.3135,4.5781,0,8.9912-2.207,11.418-4.4131v-17.0996h-12.9072v7.7227Z" class="ds-logo-white" />
      <path shape-rendering="geometricPrecision" d="m221.7921,98.2021h-5.5143v10.3701c0,4.4131.8828,9.8193,1.3242,13.6807h-.2207l-2.9238-8.0537-6.0127-15.9971h-9.5977v35.8545h9.0469v-10.3701c0-4.4131-.8828-9.5977-1.3242-13.6797h.2207l2.9229,7.998,6.0127,16.0518h4.4981c1.5294-7.3526,2.3369-14.9698,2.3369-22.7762,0-4.4254-.2665-8.7879-.7689-13.0783Z" class="ds-logo-white" />
      <path shape-rendering="geometricPrecision" d="m37.6684,166.5547c0-4.9648-2.7578-8.0537-7.5566-9.8184l-4.1367-1.71c-3.5859-1.3242-5.627-1.9307-5.627-3.5859,0-1.6543,1.4346-2.4268,3.5303-2.4268,3.4199,0,5.4609.8828,8.0537,2.5928l4.7441-5.958c-3.4756-3.2539-7.999-4.7988-12.2461-4.7988-8.1641,0-13.6797,5.0195-13.6797,11.1426,0,5.1846,3.4199,8.4395,7.5566,9.9844l4.4688,1.875c3.3096,1.3789,5.1846,1.8203,5.1846,3.917,0,1.1582-1.1035,2.0957-3.9717,2.0957-3.2539,0-6.4531-1.4336-9.1562-3.4756l-.1476.1777c2.2737,3.964,4.7844,7.7744,7.5126,11.4124.3776.0209.757.0495,1.1291.0495,9.2676,0,14.3418-5.4062,14.3418-11.4736Z" class="ds-logo-white" />
      <path shape-rendering="geometricPrecision" d="m60.4995,141.5117l-2.9795,7.833c-.9922,2.7578-2.041,5.2949-3.0332,8.1631h-.2207c-.9932-2.8682-1.9863-5.4053-2.9238-8.1631l-2.9785-7.833h-10.1494l11.3633,23.9951v11.8594h9.4873v-11.8594l11.3633-23.9951h-9.9287Z" class="ds-logo-white" />
      <path shape-rendering="geometricPrecision" d="m90.4457,156.7363l-4.1367-1.71c-3.5859-1.3242-5.627-1.9307-5.627-3.5859,0-1.6543,1.4346-2.4268,3.5303-2.4268,3.4199,0,5.4609.8828,8.0537,2.5928l4.7441-5.958c-3.4756-3.2539-7.999-4.7988-12.2461-4.7988-8.1641,0-13.6797,5.0195-13.6797,11.1426,0,5.1846,3.4199,8.4395,7.5566,9.9844l4.4688,1.875c3.3096,1.3789,5.1846,1.8203,5.1846,3.917,0,1.1582-1.1035,2.0957-3.9717,2.0957-3.2539,0-6.4531-1.4336-9.1562-3.4756l-5.4062,6.5098c4.0273,3.4746,9.2119,5.1299,13.9004,5.1299,9.2676,0,14.3418-5.4062,14.3418-11.4736,0-4.9648-2.7578-8.0537-7.5566-9.8184Z" class="ds-logo-white" />
      <polygon shape-rendering="geometricPrecision" points="100.2748 149.4551 110.5903 149.4551 110.5903 177.3662 120.0776 177.3662 120.0776 149.4551 130.393 149.4551 130.393 141.5117 100.2748 141.5117 100.2748 149.4551" class="ds-logo-white" />
      <polygon shape-rendering="geometricPrecision" points="143.5034 163.0244 156.1899 163.0244 156.1899 155.0811 143.5034 155.0811 143.5034 149.4551 158.3969 149.4551 158.3969 141.5117 134.0161 141.5117 134.0161 177.3662 158.9487 177.3662 158.9487 169.4229 143.5034 169.4229 143.5034 163.0244" class="ds-logo-white" />
      <path shape-rendering="geometricPrecision" d="m178.0112,153.2061l-.9932,4.6328h-.2207l-.9922-4.6328-2.9238-11.6943h-9.6533v35.8545h7.7227v-8.4395c0-4.248-.7725-14.0107-1.2139-18.2031h.2207l2.7578,10.6455,1.9863,6.5098h4.1924l1.875-6.5098,3.0342-10.6455h.165c-.4414,4.1924-1.2129,13.9551-1.2129,18.2031v8.4395h7.832v-35.8545h-9.6523l-2.9238,11.6943Z" class="ds-logo-white" />
    </g>
  </g>
</svg>
