<svg xmlns="http://www.w3.org/2000/svg" viewBox="0 0 368.62 128"><defs><style>.cls-1{fill:#e6e6e6;}.cls-2{fill:#333;}.cls-3{fill:none;}.cls-4{fill:#7d8afe;}.cls-5{fill:#df7900;}.cls-6{fill:#807cfe;}.cls-7{fill:#8034ff;}.cls-8{fill:#813eff;}.cls-9{fill:#8141ff;}.cls-10{fill:#8031ff;}.cls-11{fill:#807bfe;}.cls-12{fill:#816fff;}.cls-13{fill:#8146ff;}.cls-14{fill:#8167ff;}.cls-15{fill:#8149ff;}.cls-16{fill:#8252ff;}.cls-17{fill:#59d1fb;}.cls-18{fill:#5dccfc;}.cls-19{fill:#7c8efe;}.cls-20{fill:#7f84fe;}.cls-21{fill:#8255ff;}.cls-22{fill:#7a96fe;}.cls-23{fill:#72adfd;}.cls-24{fill:#8078ff;}.cls-25{fill:#8169ff;}.cls-26{fill:#7f82fe;}.cls-27{fill:#8258ff;}.cls-28{fill:#5fcafc;}.cls-29{fill:#825bff;}.cls-30{fill:#67c0fc;}.cls-31{fill:#7b93fe;}.cls-32{fill:#8172ff;}.cls-33{fill:#8170ff;}.cls-34{fill:#73abfd;}.cls-35{fill:#789ffe;}.cls-36{fill:#6eb4fd;}.cls-37{fill:#7e88fe;}.cls-38{fill:#6cb9fd;}.cls-39{fill:#7999fe;}.cls-40{fill:#7d8cfe;}.cls-41{fill:#75a6fd;}.cls-42{fill:#6eb6fd;}.cls-43{fill:#7e87fe;}.cls-44{fill:#7d8dfe;}.cls-45{fill:#e28300;}.cls-46{fill:#cd3f00;}.cls-47{fill:#ce4300;}.cls-48{fill:#e48900;}.cls-49{fill:#f1b900;}.cls-50{fill:#e89600;}.cls-51{fill:#e99a00;}.cls-52{fill:#eeae00;}.cls-53{fill:#eca500;}.cls-54{fill:#ca3200;}.cls-55{fill:#d55900;}.cls-56{fill:#d65e00;}.cls-57{fill:#dd7200;}.cls-58{fill:#c92f00;}.cls-59{fill:#c82a00;}.cls-60{fill:#da6b00;}.cls-61{fill:#d14d00;}.cls-62{fill:#d24f00;}.cls-63{fill:#d04a00;}.cls-64{fill:#e38700;}.cls-65{fill:#e99b00;}.cls-66{fill:#f2be00;}.cls-67{fill:#eba100;}.cls-68{fill:#eead00;}.cls-69{fill:#d25100;}.cls-70{fill:#d86200;}.cls-71{fill:#d75f00;}.cls-72{fill:#dc6e00;}.cls-73{fill:#f0b600;}.cls-74{fill:#d55a00;}.cls-75{fill:#e68f00;}.cls-76{fill:#e58d00;}.cls-77{fill:#de7800;}.cls-78{fill:#eba200;}.cls-79{fill:#efb100;}.cls-80{fill:#d86400;}.cls-81{fill:#db6c00;}.cls-82{fill:#ea9f00;}.cls-83{fill:#e79400;}.cls-84{fill:#e18000;}.cls-85{fill:#e99c00;}.cls-86{fill:#e79300;}.cls-87{fill:#dc7000;}.cls-88{fill:#fff;}.cls-89{fill:#c7c7c7;}</style></defs><g id="Layer_2" data-name="Layer 2"><g id="Layer_1-2" data-name="Layer 1"><circle class="cls-1" cx="64" cy="64" r="64"/><circle class="cls-2" cx="64" cy="64" r="59.65"/><polygon class="cls-3" points="28.98 89.65 29.91 95.87 35.2 100.54 42.98 98.67 35.98 90.74 28.98 89.65"/><path class="cls-4" d="M123.65,64a59.55,59.55,0,0,0-3.5-20.15l-16.71-7-9.5-17.53L80.31,25.48l-16-21L39.23,33.13l-8.86-.88L16,40.53,8.18,43A59.47,59.47,0,0,0,4.35,64v.15h119.3Z"/><polygon class="cls-3" points="28.98 89.65 29.91 95.87 35.2 100.54 42.98 98.67 35.98 90.74 28.98 89.65"/><path class="cls-5" d="M4.35,64.15c0,.78,0,1.56.06,2.33A59.54,59.54,0,0,0,8.52,85.92l9.88,2.64L23.22,99.3,36,105.83l8.09-.78,6.25,17,.19,0,28.83-7,9.36-15.5,3-1.12,4.81-3.89,21.87-6.2a59.5,59.5,0,0,0,5.16-21.93c0-.77.06-1.55.06-2.33ZM35.2,100.54l-5.29-4.67L29,89.65l7,1.09,7,7.94Z"/><path class="cls-6" d="M10.67,55.53h0l.12-.12Z"/><path class="cls-6" d="M63.8,53l.12-.24L63.8,53Z"/><path class="cls-6" d="M27.51,62.2l-.1-.27.1.27h0Z"/><path class="cls-6" d="M115.75,45.74h0l-.21,2.3C115.6,47.27,115.67,46.51,115.75,45.74Z"/><path class="cls-7" d="M115.86,44.79v.72a2.6,2.6,0,0,0,.4-.23l2.43-2-2.46-1c-.08.63-.16,1.26-.25,1.88C116,44.33,115.9,44.56,115.86,44.79Z"/><path class="cls-8" d="M118.48,63.29a17.48,17.48,0,0,1-2.7.24,7.32,7.32,0,0,0-1.23.12c-.09,0-.15.15-.23.23l.17.27h9.16V64c0-.41,0-.82,0-1.24l-1.68.17C120.78,63,119.63,63.14,118.48,63.29Z"/><path class="cls-9" d="M115.75,45.74c-.08.77-.15,1.53-.22,2.3,0,.51-.1,1-.13,1.53-.05.67-.08,1.34-.13,2s-.16,1.29-.21,1.94-.1,1.42-.15,2.13c0,.25,0,.5-.07.76-.09.9-.19,1.8-.28,2.7-.07.68-.16,1.37-.22,2s-.09,1.42-.14,2.13v.59h.12c.08-.08.14-.21.23-.23a7.32,7.32,0,0,1,1.23-.12,17.48,17.48,0,0,0,2.7-.24c1.15-.15,2.3-.25,3.46-.36l1.68-.17a60.11,60.11,0,0,0-1.32-11.38L119.5,49C118.24,47.91,117,46.82,115.75,45.74Z"/><path class="cls-10" d="M116.26,45.28a2.6,2.6,0,0,1-.4.23h-.12v.23h0c1.25,1.08,2.49,2.17,3.75,3.24l2.8,2.4a57.52,57.52,0,0,0-2.15-7.53l-1.46-.61Z"/><path class="cls-10" d="M115.75,45.74h0c1.25,1.08,2.49,2.17,3.75,3.24C118.24,47.91,117,46.82,115.75,45.74Z"/><path class="cls-11" d="M64.56,11c.19.24.36.5.54.75v1.43c.25-.42.07-.87.12-1.31l.12-.24h0l.24-.36a1.74,1.74,0,0,1,.14-.38l1.57-2.53L64.35,4.5,61.64,7.58l1.09,1.25C63.35,9.55,64,10.27,64.56,11Z"/><path class="cls-12" d="M65.58,11.27a11.47,11.47,0,0,0,1-.72c.49-.4,1-.81,1.45-1.22l-.74-1-1.57,2.53A1.74,1.74,0,0,0,65.58,11.27Z"/><path class="cls-13" d="M115.45,45.26a2.09,2.09,0,0,1,.17.37h.12v-.12l.12-.72c0-.23.09-.46.12-.7.09-.62.17-1.25.25-1.88l-3.78-1.58,1.87,3C114.68,44.16,115.08,44.7,115.45,45.26Z"/><path class="cls-9" d="M115.74,45.51h.12v-.72Z"/><path class="cls-14" d="M65.58,11.27l-.24.36.16.13a.31.31,0,0,0,.16.1c1.52.3,3,.57,4.57.88l.46.09L68,9.33c-.48.41-1,.82-1.45,1.22A11.47,11.47,0,0,1,65.58,11.27Z"/><path class="cls-14" d="M65.58,11.27l-.24.36h0Z"/><path class="cls-15" d="M114.22,64.15h.27l-.17-.27h-.12Z"/><path class="cls-16" d="M115.62,45.75a12.42,12.42,0,0,1-.75,1c-1,1.16-2,2.3-3.07,3.45-.77.87-1.56,1.72-2.33,2.6s-1.41,1.65-2.12,2.47c-.36.42-.73.82-1.1,1.24l-3,3.31c-.42.48-.85.94-1.27,1.41l-2.5,2.85,0,0H109c.36,0,.73-.09,1.1-.12q.8-.09,1.59-.15c.78-.05,1.57-.08,2.35-.12l.12-.48c0-.71.08-1.42.14-2.13s.15-1.37.22-2c.09-.9.19-1.8.28-2.7,0-.26,0-.51.07-.76,0-.71.09-1.42.15-2.13s.15-1.29.21-1.94.08-1.33.13-2c0-.51.08-1,.13-1.53l.21-2.3v-.11h-.12Z"/><path class="cls-15" d="M114.2,63.88h0v-.59l-.12.48Z"/><path class="cls-17" d="M10.05,56a4.14,4.14,0,0,0,.5-.3c-.51-.12-1-.26-1.55-.35-1.3-.23-2.61-.44-3.91-.66-.21,1.3-.37,2.62-.49,3.94L7.65,57.1Z"/><path class="cls-18" d="M10.55,55.65v-.12c-.44-.43-.87-.86-1.32-1.27-1-.93-2.06-1.84-3.09-2.76l-.39-.36c-.25,1.15-.48,2.32-.66,3.5,1.3.22,2.61.43,3.91.66C9.52,55.39,10,55.53,10.55,55.65Z"/><path class="cls-19" d="M54.55,20.82l.47.12.24.12c-.18-.95-.36-1.9-.53-2.86-.13-.75-.27-1.51-.41-2.27L50.9,19.84l2.34.62Z"/><path class="cls-20" d="M55.26,21.06h.12c.21-.58.73-.87,1.12-1.27.18-.19.39-.33.58-.5l4-3.79L62.68,14c.81-.75,1.62-1.5,2.42-2.26-.18-.25-.35-.51-.54-.75-.61-.73-1.21-1.45-1.83-2.17L61.64,7.58l-7.32,8.35c.14.76.28,1.52.41,2.27C54.9,19.16,55.08,20.11,55.26,21.06Z"/><path class="cls-21" d="M114.2,63.88l-.12-.12c-.78,0-1.57.07-2.35.12q-.8.06-1.59.15c-.37,0-.74.08-1.1.12h5.18Z"/><path class="cls-22" d="M53.64,21.69c.33-.15.66-.27,1-.43a2.64,2.64,0,0,0,.41-.32l-.47-.12-1.31-.36-2.34-.62L46.38,25l2.44-1.07C50.43,23.19,52,22.43,53.64,21.69Z"/><path class="cls-23" d="M30.66,32.28l-.29,0-2.12,1.22,1.68-.81Z"/><path class="cls-24" d="M64.87,16.85c0,1-.07,2.1-.13,3.15,0,.89-.14,1.77-.21,2.66,0,.06,0,.12,0,.18,0,1-.06,2.09-.12,3.14s-.15,1.93-.22,2.9a1.09,1.09,0,0,0,0,.18c0,1.07-.07,2.13-.13,3.2-.06,1.35-.15,2.69-.23,4l-.12,1.9-.12,2.19c0,.47,0,.94,0,1.41a3,3,0,0,1-.12.5v.35c0,.36,0,.72,0,1.08s.09.38.41.31c.69-.15,1.37-.34,2.06-.48,1.33-.28,2.66-.52,4-.8,1-.22,2-.5,3-.72l5.47-1.18c1.21-.26,2.42-.56,3.63-.82,1.49-.33,3-.63,4.5-.93.07,0,.17,0,.26.09.3,0,.36-.23.35-.48-1.09-1.32-2.2-2.64-3.28-4-.92-1.13-1.81-2.29-2.72-3.42s-2-2.41-3-3.61c-.55-.68-1.07-1.38-1.61-2.05s-1-1.2-1.52-1.81c-.79-1-1.57-1.93-2.36-2.9L70.32,18c-.56-.69-1.1-1.39-1.66-2.08l-2-2.43c-.34-.41-.67-.82-1-1.22a4.17,4.17,0,0,0-.43-.41c0,.44.13.89-.12,1.31-.07,1.19-.15,2.37-.22,3.55A.49.49,0,0,0,64.87,16.85Z"/><path class="cls-25" d="M65.66,11.86a.31.31,0,0,1-.16-.1l-.16-.13-.12.24a4.17,4.17,0,0,1,.43.41c.35.4.68.81,1,1.22l2,2.43c.56.69,1.1,1.39,1.66,2.08L72.7,21c.79,1,1.57,1.94,2.36,2.9.5.61,1,1.2,1.52,1.81s1.06,1.37,1.61,2.05c1,1.2,2,2.39,3,3.61s1.8,2.29,2.72,3.42c1.08,1.33,2.19,2.65,3.28,4l.24.36.12-.36a6.25,6.25,0,0,1,.24-.6l3.43-6.44c.42-.79.82-1.58,1.24-2.37,1.15-2.13,2.31-4.25,3.45-6.38l-1.94-3.59L80.31,25.48,70.69,12.83l-.46-.09C68.71,12.43,67.18,12.16,65.66,11.86Z"/><path class="cls-25" d="M65.34,11.63h0l.16.13Z"/><path class="cls-26" d="M58.51,30.27c.37,1.23.87,2.42,1.3,3.63q1,2.74,1.9,5.5l1.44,4.09c0,.11,0,.23.06.35h.12c.05-.4-.13-.82.11-1.2v-.35c0-.47,0-.95,0-1.42a2.88,2.88,0,0,1,.11-.49l.12-2.19.12-1.9c.08-1.34.17-2.68.23-4,.06-1.07.09-2.13.13-3.2a1.09,1.09,0,0,1,0-.18c.07-1,.16-1.93.22-2.9s.08-2.1.12-3.14c0-.06,0-.12,0-.18.07-.89.16-1.77.21-2.66.06-1.05.09-2.1.13-3.15a.49.49,0,0,1,0-.12c.07-1.18.15-2.36.22-3.55V11.75c-.8.76-1.61,1.51-2.42,2.26l-1.6,1.49-4,3.79c-.19.17-.4.31-.58.5-.39.4-.91.69-1.12,1.27.21.74.38,1.49.65,2.22C56.87,25.6,57.79,27.9,58.51,30.27Z"/><path class="cls-27" d="M91.19,31.67l-3.43,6.44a6.25,6.25,0,0,0-.24.6c.08.33.38.3.61.36L93,40.24l6.31,1.53L105,43.15l4.93,1.16,4.24,1c.49.12,1,.26,1.47.4v-.12a2.09,2.09,0,0,0-.17-.37c-.37-.56-.77-1.1-1.13-1.67l-1.87-3-9-3.77L95.88,22.92c-1.14,2.13-2.3,4.25-3.45,6.38C92,30.09,91.61,30.88,91.19,31.67Z"/><path class="cls-28" d="M9.18,64.15c.36-2.06.68-4.12,1-6.18.14-.82.31-1.63.46-2.44h-.12v.12a4.14,4.14,0,0,1-.5.3L7.65,57.1,4.6,58.58c-.16,1.79-.25,3.59-.25,5.42v.15H9.18Z"/><path class="cls-29" d="M91.71,49c.51,1.16,1,2.31,1.54,3.47.63,1.45,1.25,2.91,1.88,4.36.42,1,.87,1.91,1.29,2.86.65,1.48,1.29,3,1.93,4.43h1.16l0,0,2.5-2.85c.42-.47.85-.93,1.27-1.41l3-3.31c.37-.42.74-.82,1.1-1.24.71-.82,1.4-1.66,2.12-2.47s1.56-1.73,2.33-2.6c1-1.15,2.06-2.29,3.07-3.45a12.42,12.42,0,0,0,.75-1c-.49-.14-1-.28-1.47-.4l-4.24-1L105,43.15l-5.67-1.38L93,40.24l-4.87-1.17c-.23-.06-.53,0-.61-.36l-.12.36c.7,1.61,1.41,3.22,2.11,4.84S91,47.33,91.71,49Z"/><path class="cls-30" d="M9.23,54.26c.45.41.88.84,1.32,1.27h.12l.12-.12c.29-1.19.58-2.39.89-3.57.47-1.8,1-3.6,1.43-5.4S14,42.81,14.51,41L8.18,43a58.89,58.89,0,0,0-2.43,8.18l.39.36C7.17,52.42,8.21,53.33,9.23,54.26Z"/><path class="cls-31" d="M47.25,37.07c.74.38,1.47.77,2.2,1.16h.24l1.63-5,2.52-7.75c.48-1.48.95-3,1.42-4.46h0L55,20.94a2.64,2.64,0,0,1-.41.32c-.31.16-.64.28-1,.43-1.61.74-3.21,1.5-4.82,2.22L46.38,25l-7,8,5,2.61Z"/><path class="cls-4" d="M50.44,38.78l2,.79c.59.23,1.17.47,1.75.72.28.11.57.25.86.37.81.33,1.63.65,2.44,1s1.91.83,2.86,1.24l2.83,1.19v-.24c0-.12,0-.24-.06-.35L61.71,39.4q-.95-2.76-1.9-5.5c-.43-1.21-.93-2.4-1.3-3.63-.72-2.37-1.64-4.67-2.48-7-.27-.73-.44-1.48-.65-2.22h-.12c-.47,1.49-.94,3-1.42,4.46l-2.52,7.75-1.63,5,.12.24C50,38.57,50.22,38.69,50.44,38.78Z"/><path class="cls-32" d="M63.8,53.14a2.63,2.63,0,0,1,.48.31c.49.52,1,1,1.45,1.57.12.13.25.25.38.38l6,6.31,2.3,2.44H96.35l-1.55-.53-1.22-.44-3.74-1.29c-.56-.2-1.11-.42-1.67-.61l-3-1-1.61-.58c-1.32-.46-2.65-.9-4-1.37-2.62-.92-5.23-1.87-7.85-2.79-1-.35-2-.67-3-1L64.18,53c-.1,0-.17-.14-.26-.22L63.8,53Z"/><path class="cls-33" d="M86.81,39.19,84,40.89,80.35,43l-3.68,2.15-4,2.38C70.74,48.69,68.85,49.83,67,51c-.89.53-1.79,1-2.67,1.54a2,2,0,0,0-.36.29c.09.08.16.19.26.22l4.52,1.53c1,.34,2,.66,3,1,2.62.92,5.23,1.87,7.85,2.79,1.32.47,2.65.91,4,1.37l1.61.58,3,1c.56.19,1.11.41,1.67.61l3.74,1.29,1.22.44,1.55.53h2c-.64-1.48-1.28-3-1.93-4.43-.42-.95-.87-1.9-1.29-2.86-.63-1.45-1.25-2.91-1.88-4.36-.51-1.16-1-2.31-1.54-3.47-.74-1.7-1.46-3.42-2.2-5.12s-1.41-3.23-2.11-4.84l-.24-.36C87.17,39,87.11,39.16,86.81,39.19Z"/><path class="cls-34" d="M17.65,45.36c.62,1,1.25,2,1.86,3,.72,1.21,1.41,2.43,2.12,3.64.94,1.6,1.9,3.2,2.84,4.8s1.89,3.21,2.82,4.82a1.11,1.11,0,0,1,.12.27l.1.27h.24l.12-.24v-.24l.12-.48c.19-.91.39-1.81.58-2.72.4-1.92.8-3.83,1.19-5.75.32-1.51.62-3,.93-4.53s.7-3.29,1-4.94q.69-3.33,1.36-6.68l.84-4-3.27-.32-.73.38-1.68.81L16,40.53l-1,.31c.3.54.6,1.08.91,1.62C16.49,43.43,17.07,44.4,17.65,45.36Z"/><path class="cls-35" d="M31.73,43.31c-.34,1.65-.7,3.29-1,4.94s-.61,3-.93,4.53c-.39,1.92-.79,3.83-1.19,5.75-.19.91-.39,1.81-.58,2.72l-.12.48V62l.12.47a2.2,2.2,0,0,1,.22-.52c.55-.65,1.1-1.29,1.68-1.92,1.12-1.22,2.26-2.43,3.38-3.65l2.51-2.76,2.8-3.06,2.68-2.93,2.68-2.93c.81-.89,1.61-1.79,2.43-2.68,1-1.05,1.92-2.09,2.87-3.14.17-.17.35-.34.21-.62-.73-.39-1.46-.78-2.2-1.16l-2.88-1.51L39.4,33l-.17.18-5.3-.53-.84,4Q32.42,40,31.73,43.31Z"/><path class="cls-36" d="M11.17,55.79c.93.37,1.86.77,2.79,1.14l3.35,1.34,5.85,2.26c1.17.46,2.34,1,3.51,1.43.23.09.48.16.72.25h.12l-.1-.27a1.11,1.11,0,0,0-.12-.27q-1.39-2.41-2.82-4.82c-.94-1.6-1.9-3.2-2.84-4.8-.71-1.21-1.4-2.43-2.12-3.64-.61-1-1.24-2-1.86-3s-1.16-1.93-1.73-2.9c-.31-.54-.61-1.08-.91-1.62l-.5.15c-.47,1.82-.93,3.64-1.4,5.45s-1,3.6-1.43,5.4c-.31,1.18-.6,2.38-.89,3.57C10.8,55.65,11,55.72,11.17,55.79Z"/><path class="cls-6" d="M63.56,51l.12,1L63.8,53l.12-.24a2,2,0,0,1,.36-.29c.88-.52,1.78-1,2.67-1.54,1.9-1.12,3.79-2.26,5.69-3.39l4-2.38L80.35,43,84,40.89l2.84-1.7c-.09,0-.19-.11-.26-.09-1.51.3-3,.6-4.5.93-1.21.26-2.42.56-3.63.82L73,42c-1,.22-2,.5-3,.72-1.33.28-2.66.52-4,.8-.69.14-1.37.33-2.06.48-.32.07-.4,0-.41-.31s0-.72,0-1.08c-.24.38-.06.8-.11,1.2,0,1.4.07,2.8.12,4.2C63.48,49,63.52,50,63.56,51Z"/><path class="cls-6" d="M63.56,40.38a2.88,2.88,0,0,0-.11.49c0,.47,0,1,0,1.42a3,3,0,0,0,.12-.5C63.57,41.32,63.56,40.85,63.56,40.38Z"/><path class="cls-37" d="M62,45c-1.45,1-2.92,1.95-4.39,2.91-.39.26-.82.46-1.23.7a1.46,1.46,0,0,0-.77.68l2.44,1,4.11,1.78,1.39.64V51c0-1-.08-2-.11-3-.05-1.4-.08-2.8-.12-4.2h-.12v.24A3.59,3.59,0,0,1,62,45Z"/><path class="cls-38" d="M25.05,64.15l.67-.46c.51-.34,1-.68,1.54-1,.22-.13.26-.28.13-.48s-.49-.16-.72-.25c-1.17-.47-2.34-1-3.51-1.43l-5.85-2.26L14,56.93c-.93-.37-1.86-.77-2.79-1.14-.2-.07-.37-.14-.38-.38l-.12.12c-.15.81-.32,1.62-.46,2.44-.35,2.06-.67,4.12-1,6.18H25.05Z"/><path class="cls-39" d="M33.08,64.15H54.66c0-.08,0-.16,0-.23.07-1.05.15-2.09.23-3.13v-.12c0-1.22.07-2.45.13-3.67s.15-2.17.22-3.25a.49.49,0,0,0,0-.12c0-1.2.07-2.41.12-3.61a5.38,5.38,0,0,1,.12-.7h0L52.19,43c-.58-1.1-1.17-2.19-1.75-3.3-.22-.41-.42-.84-.63-1.26l-.12-.24h-.24c.14.28,0,.45-.21.62-1,1-1.92,2.09-2.87,3.14-.82.89-1.62,1.79-2.43,2.68L41.26,47.6l-2.68,2.93-2.8,3.06-2.51,2.76C32.15,57.57,31,58.78,29.89,60c-.58.63-1.13,1.27-1.68,1.92a2.2,2.2,0,0,0-.22.52l2.85,1Z"/><path class="cls-40" d="M56.39,48.64c.41-.24.84-.44,1.23-.7C59.09,47,60.56,46,62,45a3.59,3.59,0,0,0,1.2-1l-2.83-1.19c-1-.41-1.9-.84-2.86-1.24s-1.63-.66-2.44-1c-.29-.12-.58-.26-.86-.37-.58-.25-1.16-.49-1.75-.72l-2-.79c-.22-.09-.42-.21-.63-.31.21.42.41.85.63,1.26.58,1.11,1.17,2.2,1.75,3.3l3.31,6.29h.12A1.46,1.46,0,0,1,56.39,48.64Z"/><path class="cls-40" d="M55.5,49.32h0L52.19,43Z"/><path class="cls-41" d="M29.85,64.15h3.23l-2.24-.73-2.85-1L27.87,62l-.12.24c0,.64,0,1.29-.05,1.94Z"/><path class="cls-42" d="M27.75,62.21h-.36c.13.2.09.35-.13.48-.52.32-1,.66-1.54,1l-.67.46H27.7C27.74,63.5,27.76,62.85,27.75,62.21Z"/><path class="cls-6" d="M66.11,55.4c-.13-.13-.26-.25-.38-.38-.48-.52-1-1.05-1.45-1.57a2.63,2.63,0,0,0-.48-.31Q65,56,66.12,58.87l2.17,5.28h6.15l-2.3-2.44Z"/><path class="cls-43" d="M63.8,53.14V53h0L63.68,52l-.12-1v1.79a7.55,7.55,0,0,1-.35.94c-.85,1.73-1.7,3.45-2.57,5.17-.66,1.3-1.37,2.59-2,3.89-.16.31-.28.66-.44,1-.06.14-.13.27-.19.4H68.29l-2.17-5.28Q65,56,63.8,53.14Z"/><path class="cls-43" d="M63.8,53,63.68,52,63.8,53Z"/><path class="cls-44" d="M58.16,63.75c.16-.31.28-.66.44-1,.67-1.3,1.38-2.59,2-3.89.87-1.72,1.72-3.44,2.57-5.17a7.55,7.55,0,0,0,.35-.94l-1.39-.64-4.11-1.78-2.44-1H55.5a5.38,5.38,0,0,0-.12.7c-.05,1.2-.08,2.41-.12,3.61a.49.49,0,0,1,0,.12c-.07,1.08-.17,2.16-.22,3.25s-.09,2.45-.13,3.67v.12c-.08,1-.16,2.08-.23,3.13,0,.07,0,.15,0,.23H58C58,64,58.1,63.89,58.16,63.75Z"/><polygon class="cls-3" points="35.98 90.74 28.98 89.65 29.24 91.41 29.91 95.87 35.2 100.54 35.77 100.41 42.98 98.67 40.53 95.9 36.05 90.82 35.98 90.74"/><path class="cls-45" d="M84.07,90.5v0Z"/><path class="cls-45" d="M23.48,71.56c-.13-1.17-.25-2.34-.38-3.51.13,1.17.25,2.34.38,3.51h0Z"/><path class="cls-45" d="M81.38,105l.14-.57-.14.57Z"/><path class="cls-45" d="M65.81,72.7l-.14.57.14-.57c-.51-1.37-1-2.74-1.54-4.1C64.78,70,65.3,71.33,65.81,72.7Z"/><path class="cls-45" d="M118,88.52c0-.29.11-.58.16-.87l.61-.07h0l-.61.07C118.14,87.94,118.08,88.23,118,88.52Z"/><path class="cls-46" d="M115.86,73.56c-.89-.85-1.77-1.7-2.67-2.53-.34-.32-.72-.6-1.09-.9.3.93.58,1.85.9,2.77.4,1.18.84,2.36,1.26,3.54l3.21,9.25c.21.61.39,1.22.58,1.82l.14.14.61-.07a58.89,58.89,0,0,0,2.9-8.42l-2.77-2.66Z"/><path class="cls-47" d="M118,88.52l.4-.11c.12-.28.25-.55.37-.83l-.61.07C118.14,87.94,118.08,88.23,118,88.52Z"/><path class="cls-45" d="M64.27,68.6c-.56-1.49-1.11-3-1.67-4.45H45.52l-.9.74L42.05,67l-3.95,3.2a3.8,3.8,0,0,0-.46.52c.32,0,.64.12,1,.14q1.68.15,3.36.27l2.32.16,3.36.27L50,71.7l3.08.26c.72.06,1.45.16,2.17.16a28.61,28.61,0,0,1,3.58.27c.88.11,1.78.1,2.66.17s1.82.17,2.73.25q.5,0,1,0a.37.37,0,0,1,.43.43l.14-.57C65.3,71.33,64.78,70,64.27,68.6Z"/><path class="cls-48" d="M42.05,67l2.57-2.09.9-.74h-7l-.57,3.7L37.5,70.7l.14.15V70.7a3.8,3.8,0,0,1,.46-.52Z"/><path class="cls-49" d="M4.35,64.15c0,.39,0,.79,0,1.18l.37-1.18Z"/><path class="cls-50" d="M38.49,64.15H29.85l-.51.59Q27.45,67,25.58,69.23l-2,2.33h.85l3.64-.27h.21l3.44-.15,4.41-.29c.4,0,.79-.09,1.18-.14h.15l.42-2.85Z"/><path class="cls-51" d="M23.62,71.56l2-2.33q1.88-2.25,3.76-4.49l.51-.59H22.7c.07.74.14,1.48.22,2.22,0,.56.12,1.12.18,1.68.13,1.17.25,2.34.38,3.51Z"/><path class="cls-52" d="M10,72.55c1.29-.08,2.58-.18,3.87-.27.91-.06,1.83-.09,2.74-.15l3.58-.27,3.17-.16v-.14c-.69-.61-1.37-1.22-2.06-1.81-1-.87-2.05-1.72-3.08-2.58l-3.64-3H4.75l-.37,1.18A60.53,60.53,0,0,0,5,72.88l2.44-.17Z"/><path class="cls-53" d="M23.48,71.56c-.13-1.17-.25-2.34-.38-3.51-.06-.56-.13-1.12-.18-1.68-.08-.74-.15-1.48-.22-2.22H14.56l3.64,3c1,.86,2.06,1.71,3.08,2.58.69.59,1.37,1.2,2.06,1.81Z"/><path class="cls-54" d="M119,69.41c-.93.06-1.87.09-2.81.16s-1.68.17-2.52.24a2.88,2.88,0,0,1-1.59-.1v-.15l-.14.15.14.42c.37.3.75.58,1.09.9.9.83,1.78,1.68,2.67,2.53l3.07,2.94,2.77,2.66a59,59,0,0,0,1.72-10.1l-1,.08C121.32,69.23,120.17,69.33,119,69.41Z"/><path class="cls-55" d="M98.6,64.15H87.86L83.79,71c0,.06-.1.11-.14.16a3.06,3.06,0,0,0,.71.27c1.11.12,2.23.19,3.35.31s2,.25,2.92.36c.72.08,1.44.13,2.16.2l2.16.25c.7.07,1.4.12,2.1.18l1.46.14,1,.14h0c0,.29.1.57.14.86l.15.85V73.13c-.19-1.5-.38-3-.58-4.48S98.79,65.65,98.6,64.15Z"/><path class="cls-56" d="M87.86,64.15H82.75l.45,3.6c.11.94.2,1.87.31,2.81l.14.57s.1-.1.14-.16Z"/><path class="cls-57" d="M68.9,68.66l3.24-4.51H62.6c.56,1.48,1.11,3,1.67,4.45s1,2.73,1.54,4.1H66l.14-.14Z"/><path class="cls-58" d="M112.1,69.71c.18-.07.36-.12.53-.2L119.69,66l3.54-1.81h-8.59c-.84,1.8-1.69,3.61-2.54,5.41Z"/><path class="cls-47" d="M109,64.15h-1.23c.42.57.84,1.14,1.25,1.72.93,1.27,1.84,2.56,2.76,3.84H112l.14-.15c.85-1.8,1.7-3.61,2.54-5.41H109Z"/><path class="cls-59" d="M119.69,66l-7.06,3.55c-.17.08-.35.13-.53.2a2.88,2.88,0,0,0,1.59.1c.84-.07,1.68-.18,2.52-.24s1.88-.1,2.81-.16c1.15-.08,2.3-.18,3.44-.27l1-.08c.14-1.62.22-3.26.23-4.91h-.42Z"/><path class="cls-60" d="M82.75,64.15H72.14L68.9,68.66l-2.81,3.9c.08.32.34.29.57.28.63,0,1.25-.12,1.88-.18l1-.1,2.73-.26,2.1-.17,2.72-.26c.56-.05,1.12-.12,1.68-.16.89-.06,1.78-.08,2.67-.16.67-.06,1.34-.18,2-.28v-.71c-.11-.94-.2-1.87-.31-2.81Z"/><path class="cls-61" d="M99.21,68.65c.2,1.49.39,3,.58,4.48h.14c.07-.09.12-.23.21-.26,1.13-.3,2.27-.58,3.41-.87l4.24-1.06c1.2-.3,2.41-.61,3.61-.93.16,0,.28-.2.42-.3-.92-1.28-1.83-2.57-2.76-3.84-.41-.58-.83-1.15-1.25-1.72H98.6C98.79,65.65,99,67.15,99.21,68.65Z"/><path class="cls-62" d="M118.05,87.51h-.14a10.81,10.81,0,0,1-1.34.4c-1.86.35-3.74.67-5.6,1-1.62.28-3.24.58-4.85.85l-5.42.9c-.12,0-.23.18-.35.27l2.28,2L118,88.52c0-.29.11-.58.16-.87Z"/><path class="cls-63" d="M111.4,70c-1.2.32-2.41.63-3.61.93L103.55,72c-1.14.29-2.28.57-3.41.87-.09,0-.14.17-.21.26,2.19,1.75,4.37,3.5,6.57,5.24l5.71,4.51,5.62,4.51a1.25,1.25,0,0,1,.08.12h.14c-.19-.6-.37-1.21-.58-1.82l-3.21-9.25c-.42-1.18-.86-2.36-1.26-3.54-.32-.92-.6-1.84-.9-2.77l-.14-.42h-.14C111.68,69.81,111.56,70,111.4,70Z"/><path class="cls-64" d="M63.87,76.31l1.8-3a.37.37,0,0,0-.43-.43q-.49,0-1,0c-.91-.08-1.82-.18-2.73-.25s-1.78-.06-2.66-.17a28.61,28.61,0,0,0-3.58-.27c-.72,0-1.45-.1-2.17-.16L50,71.7l-2.38-.16-3.36-.27L42,71.11q-1.68-.12-3.36-.27c-.33,0-.65-.09-1-.14v.15h0l3.07,2.59,3.8,3.15L47.37,79l2.23,1.86c1,.86,2,1.74,3.06,2.61.65.54,1.31,1.07,2,1.62s1.51,1.33,2.27,2l.43.15h.14c.82-1.41,1.63-2.82,2.46-4.22Z"/><path class="cls-5" d="M63.13,88.05c1.13.08,2.23.29,3.35.43,1.48.2,3,.3,4.47.46.56.07,1.1.21,1.66.28.86.11,1.73.17,2.58.28,1.67.23,3.34.54,5,.68a31.32,31.32,0,0,1,3.35.44c.11,0,.25-.08.38-.12h0L83.5,90a6.33,6.33,0,0,0-.44-.46c-.66-.64-1.35-1.25-2-1.89-2.36-2.31-4.71-4.64-7.07-7l-4.61-4.5-3-2.89A4.6,4.6,0,0,1,66,72.7h-.14l-.14.57-1.8,3L59.92,83c-.83,1.4-1.64,2.81-2.46,4.22l.14.28a2.23,2.23,0,0,1,.66-.11C59.89,87.61,61.5,87.92,63.13,88.05Z"/><path class="cls-65" d="M36,90.74l.07.08.43,0,2.65-.27c.77-.06,1.55-.09,2.32-.16s1.62-.19,2.44-.25c1-.08,2-.12,3-.18-.1-.24-.18-.48-.29-.72L40,75.91c-.74-1.53-1.47-3.06-2.21-4.6a4.19,4.19,0,0,1-.16-.46h0l-.14-.15h-.15a4.74,4.74,0,0,1-1.1,1.72c-1.17,1.65-2.39,3.27-3.61,4.9-1.05,1.42-2.13,2.82-3.18,4.24-1.95,2.63-3.88,5.28-5.82,7.92-.46.63-.92,1.26-1.39,1.88a4.9,4.9,0,0,1-.47.43c.08.32.34.29.57.28l2-.17,2.58-.26,2.35-.23L29,89.65Z"/><path class="cls-66" d="M12.93,85.35c1.34-1.73,2.7-3.45,4-5.19,1.12-1.45,2.23-2.92,3.35-4.38l2.8-3.65a2.48,2.48,0,0,0,.22-.43l-3.17.16-3.58.27c-.91.06-1.83.09-2.74.15-1.29.09-2.58.19-3.87.27l-2.53.16L5,72.88a59.71,59.71,0,0,0,3.51,13l3.3.88Z"/><path class="cls-67" d="M23.64,89.48c1.94-2.64,3.87-5.29,5.82-7.92,1.05-1.42,2.13-2.82,3.18-4.24,1.22-1.63,2.44-3.25,3.61-4.9a4.74,4.74,0,0,0,1.1-1.72c-.39,0-.78.11-1.18.14l-4.41.29-3.44.15h-.21l-3.64.27a.68.68,0,0,1-.85,0h-.14c-.07.77-.15,1.55-.22,2.32l-.06.63c-.09.87-.17,1.74-.25,2.6-.06.61-.12,1.22-.17,1.83-.14,1.48-.29,3-.42,4.43-.06.73-.09,1.46-.16,2.19S22,87.15,22,88c0,.25,0,.51,0,.77s0,.53,0,.79c0,.76-.09,1.52-.14,2.28a4.9,4.9,0,0,0,.47-.43C22.72,90.74,23.18,90.11,23.64,89.48Z"/><path class="cls-51" d="M24.47,71.56h-.85A.68.68,0,0,0,24.47,71.56Z"/><path class="cls-68" d="M21.5,92.21h.14c.05-.82.1-1.64.16-2.46a.9.9,0,0,1,.12-.24h0c0-.26,0-.52,0-.79s0-.52,0-.77c.06-.8.17-1.6.24-2.39s.1-1.46.16-2.19c.13-1.48.28-3,.42-4.43,0-.61.11-1.22.17-1.83.08-.86.16-1.73.25-2.6l.06-.63c.07-.77.15-1.55.22-2.32h-.14v.14a2.48,2.48,0,0,1-.22.43l-2.8,3.65c-1.12,1.46-2.23,2.93-3.35,4.38-1.34,1.74-2.7,3.46-4,5.19L11.82,86.8l6.58,1.76L20,92.08A3.43,3.43,0,0,1,21.5,92.21Z"/><path class="cls-68" d="M21.92,89.51h0c0-.26,0-.52,0-.79C21.93,89,21.93,89.25,21.92,89.51Z"/><path class="cls-69" d="M112.21,82.88l-5.71-4.51c-2.2-1.74-4.38-3.49-6.57-5.24h-.14v1.56c0,2.63,0,5.26.17,7.88.12,1.89,0,3.78.11,5.67,0,.9.09,1.79.14,2.69h.14c.12-.09.23-.25.35-.27l5.42-.9c1.61-.27,3.23-.57,4.85-.85,1.86-.33,3.74-.65,5.6-1a10.81,10.81,0,0,0,1.34-.4,1.25,1.25,0,0,0-.08-.12Z"/><path class="cls-70" d="M85.18,90.65h-.75a1.67,1.67,0,0,1,.58-1c1.68-1.91,3.39-3.8,5.07-5.7,1.39-1.57,2.76-3.16,4.14-4.73l3.07-3.51c.63-.73,1.27-1.45,1.9-2.19A3.6,3.6,0,0,0,99.5,73h0l-1-.14-1.46-.14c-.7-.06-1.4-.11-2.1-.18l-2.16-.25c-.72-.07-1.44-.12-2.16-.2-1-.11-1.95-.26-2.92-.36s-2.24-.19-3.35-.31a3.06,3.06,0,0,1-.71-.27l-.14-.57v.71a3.42,3.42,0,0,1,.13.62c.06,2.23.1,4.45.15,6.68,0,2,0,4,.17,6,.14,1.74.05,3.46.11,5.19.05.33.1.67.14,1H88.6a3.8,3.8,0,0,0-.67-.14C87,90.64,86.1,90.65,85.18,90.65Z"/><path class="cls-71" d="M100,82.57c-.17-2.62-.13-5.25-.17-7.88l-.15-.85c0-.29-.09-.57-.14-.86a3.6,3.6,0,0,1-.31.54c-.63.74-1.27,1.46-1.9,2.19l-3.07,3.51c-1.38,1.57-2.75,3.16-4.14,4.73-1.68,1.9-3.39,3.79-5.07,5.7a1.67,1.67,0,0,0-.58,1h.75c.92,0,1.83,0,2.75,0a3.8,3.8,0,0,1,.67.14H99.06c1.06,0,1-.07,1,1l.14-.86c0-.9-.11-1.79-.14-2.69C100,86.35,100.08,84.46,100,82.57Z"/><path class="cls-72" d="M78.82,71.71c-.56,0-1.12.11-1.68.16l-2.72.26-2.1.17-2.73.26-1,.1c-.63.06-1.25.13-1.88.18-.23,0-.49,0-.57-.28L66,72.7a4.6,4.6,0,0,0,.42.63l3,2.89L74,80.72c2.36,2.32,4.71,4.65,7.07,7,.65.64,1.34,1.25,2,1.89a6.33,6.33,0,0,1,.44.46l.43.47h.14v-.71c-.06-1.73,0-3.45-.11-5.19-.17-2-.13-4-.17-6-.05-2.23-.09-4.45-.15-6.68a3.42,3.42,0,0,0-.13-.62c-.68.1-1.35.22-2,.28C80.6,71.63,79.71,71.65,78.82,71.71Z"/><path class="cls-72" d="M83.93,90.5h0L83.5,90Z"/><path class="cls-73" d="M21.5,92.21H20l.45,1,.49-.43A5.8,5.8,0,0,0,21.5,92.21Z"/><path class="cls-74" d="M100.21,90.93l-.14.86-.21,1.88,2.77-.78-2.28-2Z"/><path class="cls-45" d="M60.71,104.61c2.7,0,5.42,0,8.11.17,2,.13,4.06,0,6.07.13s3.76.08,5.64.12c.23,0,.49,0,.57.29l.14-.29c-.8-.61-1.59-1.24-2.4-1.84L70.5,97c-1-.75-2.08-1.47-3.1-2.23-2.08-1.53-4.16-3.08-6.24-4.62L57.6,87.51l-.14-.28h-.14v.28l-.15,1.28-.24,2.39-.18,1.9c-.14,1.52-.29,3-.41,4.56-.11,1.32-.19,2.63-.3,3.94-.08,1-.19,1.92-.28,2.88l.14.14C57.5,104.6,59.11,104.59,60.71,104.61Z"/><path class="cls-75" d="M52.66,83.47c-1-.87-2-1.75-3.06-2.61L47.37,79l-2.86-2.41-3.8-3.15-3.07-2.59a4.19,4.19,0,0,0,.16.46c.74,1.54,1.47,3.07,2.21,4.6l6.54,13.3c.11.24.19.48.29.72H47l3.8-1c.61-.16,1.23-.29,1.84-.45l2.72-.7c.43-.11.87-.19,1.3-.3.18,0,.37-.13.25-.4-.76-.66-1.51-1.34-2.27-2S53.31,84,52.66,83.47Z"/><path class="cls-76" d="M56.34,97.64c.12-1.52.27-3,.41-4.56l.18-1.9.24-2.39.15-1.28v-.28l-.43-.15c.12.27-.07.35-.25.4-.43.11-.87.19-1.3.3l-2.72.7c-.61.16-1.23.29-1.84.45l-3.8,1h0v.29c.39.59.78,1.17,1.15,1.76.77,1.22,1.52,2.45,2.26,3.68s1.62,2.7,2.44,4,1.54,2.49,2.29,3.74c.2.32.33.67.5,1h.14c.09-1,.2-1.92.28-2.88C56.15,100.27,56.23,99,56.34,97.64Z"/><path class="cls-77" d="M84.07,90.5h-.14c-.13,0-.27.14-.38.12a31.32,31.32,0,0,0-3.35-.44c-1.67-.14-3.34-.45-5-.68-.85-.11-1.72-.17-2.58-.28-.56-.07-1.1-.21-1.66-.28-1.49-.16-3-.26-4.47-.46-1.12-.14-2.22-.35-3.35-.43-1.63-.13-3.24-.44-4.87-.65a2.23,2.23,0,0,0-.66.11l3.56,2.66c2.08,1.54,4.16,3.09,6.24,4.62,1,.76,2.07,1.48,3.1,2.23l8.34,6.17c.81.6,1.6,1.23,2.4,1.84h.14l.14-.57c.21-1.11.4-2.23.62-3.34.5-2.57,1-5.13,1.51-7.7.17-.88.37-1.75.56-2.63h0Z"/><path class="cls-78" d="M46.84,89.93c-1,.06-2,.1-3,.18-.82.06-1.63.18-2.44.25s-1.55.1-2.32.16l-2.65.27-.43,0,4.49,5.08,2.71-2.57,2.36-2.24,1.23-1.16Z"/><path class="cls-78" d="M35.77,100.41l-.57.13-5.29-4.67-.67-4.46-2.35.23-2.58.26-2,.17c-.23,0-.49,0-.57-.28,0-.76.1-1.52.14-2.28a.9.9,0,0,0-.12.24c-.06.82-.11,1.64-.16,2.46.12.23.24.46.35.69l1.58,3.48c.62,1.35,1.23,2.69,1.84,4l6.74,3.45,1.75-1.7Z"/><polygon class="cls-78" points="46.84 89.93 46.84 89.93 46.84 89.93 46.84 89.93"/><path class="cls-79" d="M22,92.9c-.11-.23-.23-.46-.35-.69H21.5a5.8,5.8,0,0,1-.52.58l-.49.43,2.73,6.08,2.19,1.12c-.61-1.35-1.22-2.69-1.84-4Z"/><path class="cls-79" d="M21.5,92.21A3.43,3.43,0,0,0,20,92.08l.06.13Z"/><path class="cls-80" d="M99.06,90.79H84.35c.2.31.38.65.6.94.76,1,1.54,2,2.31,2.94,1.12,1.42,2.24,2.83,3.35,4.25l1.14-.42,4.81-3.89,3.3-.94.21-1.88C100.07,90.72,100.12,90.79,99.06,90.79Z"/><path class="cls-81" d="M85,91.73c-.22-.29-.4-.63-.6-.94h-.14c-.19.88-.39,1.75-.56,2.63-.51,2.57-1,5.13-1.51,7.7-.22,1.11-.41,2.23-.62,3.34.07.61.06.63.62.75l2.84.58,3.72-6.17,1.91-.7c-1.11-1.42-2.23-2.83-3.35-4.25C86.49,93.69,85.71,92.72,85,91.73Z"/><path class="cls-81" d="M84.21,90.79c0-.33-.09-.67-.14-1v.71Z"/><path class="cls-82" d="M45,104.6c-.53-.32-1.07,0-1.58.06-1.76.29-3.51.63-5.27,1l5.92-.57,1.43,3.88c-.11-.88-.23-1.76-.33-2.63C45.1,105.73,45.06,105.17,45,104.6Z"/><path class="cls-64" d="M72.8,114.3c1.39-1.48,2.77-3,4.15-4.46,1-1.14,2.09-2.29,3.14-3.44l1-1.08c-.08-.33-.34-.28-.57-.29-1.88,0-3.76,0-5.64-.12s-4,0-6.07-.13c-2.69-.17-5.41-.14-8.11-.17-1.6,0-3.21,0-4.81,0v.86c.08.8.16,1.59.25,2.39.1,1.08.21,2.16.32,3.24,0,.47.09.94.14,1.41.18,1.52.37,3,.54,4.57.12,1.08.2,2.16.31,3.24,0,0,0,.07,0,.11l12.54-3c.77-.85,1.53-1.71,2.3-2.57C72.47,114.64,72.64,114.48,72.8,114.3Z"/><path class="cls-83" d="M57.46,120.31c-.11-1.08-.19-2.16-.31-3.24-.17-1.52-.36-3-.54-4.57,0-.47-.1-.94-.14-1.41-.11-1.08-.22-2.16-.32-3.24-.09-.8-.17-1.59-.25-2.39l-.14-1H52.64a4.94,4.94,0,0,0,.75.14c.61,0,1.22,0,1.84,0,.29,0,.38.13.25.4s-.17.35-.25.52q-3.16,6.34-6.31,12.71l1.4,3.82.19,0,7-1.68S57.46,120.35,57.46,120.31Z"/><path class="cls-84" d="M81.53,106.37c-.07-.44-.1-.89-.15-1.34h-.14l-.14.29-1,1.08c-1,1.15-2.09,2.3-3.14,3.44-1.38,1.5-2.76,3-4.15,4.46-.16.18-.33.34-.49.51-.77.86-1.53,1.72-2.3,2.57l9.33-2.26,2.83-4.68c0-.26-.09-.52-.13-.79C81.86,108.56,81.69,107.46,81.53,106.37Z"/><path class="cls-76" d="M55.76,104.46l.14,1v-.86Z"/><path class="cls-85" d="M45,104.6l.14-1.28c.11-.91.2-1.82.32-2.73.17-1.21.36-2.42.53-3.63l.45-3.42c.13-1,.26-2,.4-2.93a1.82,1.82,0,0,1,.14-.39v-.29h-.14l-1.23,1.16-2.36,2.24L40.54,95.9,43,98.68l-7.21,1.73-1.87,1.76-1.75,1.7,3.83,2,2.17-.21c1.76-.33,3.51-.67,5.27-1C43.93,104.57,44.47,104.28,45,104.6Z"/><path class="cls-85" d="M47,89.93h0v0Z"/><path class="cls-86" d="M52.83,99.71c-.82-1.35-1.62-2.7-2.44-4S48.9,93.2,48.13,92c-.37-.59-.76-1.17-1.15-1.76a1.82,1.82,0,0,0-.14.39c-.14,1-.27,2-.4,2.93L46,97c-.17,1.21-.36,2.42-.53,3.63-.12.91-.21,1.82-.32,2.73,0,1.26-.11,1.14,1.15,1.14h9.33c-.17-.34-.3-.69-.5-1C54.37,102.2,53.59,101,52.83,99.71Z"/><path class="cls-87" d="M81.52,104.46l-.14.57c.05.45.08.9.15,1.34.16,1.09.33,2.19.51,3.28,0,.27.09.53.13.79L85,105.79l-2.84-.58C81.58,105.09,81.59,105.07,81.52,104.46Z"/><path class="cls-50" d="M45.14,103.32,45,104.6c.06.57.1,1.13.17,1.7.1.87.22,1.75.33,2.63l3.42,9.31q3.15-6.36,6.31-12.71c.08-.17.17-.34.25-.52s0-.4-.25-.4c-.62,0-1.23,0-1.84,0a4.94,4.94,0,0,1-.75-.14H46.29C45,104.46,45.15,104.58,45.14,103.32Z"/><path class="cls-88" d="M44.86,64.15v11.2c0,5-2.68,7.3-7.5,7.3A11,11,0,0,1,30.8,80.8L32.34,78a8,8,0,0,0,4.72,1.52c2.74,0,3.93-1.25,3.93-3.67v-.58A5.49,5.49,0,0,1,36.76,77a6.5,6.5,0,1,1,0-13,5.36,5.36,0,0,1,4.43,1.92V64.15ZM41,70.45a3.26,3.26,0,0,0-3.51-3.3,3.31,3.31,0,1,0,0,6.6A3.26,3.26,0,0,0,41,70.45Z"/><path class="cls-88" d="M46.72,70.87c0-4.05,3.1-6.92,7.35-6.92s7.33,2.87,7.33,6.92-3.08,6.93-7.33,6.93S46.72,74.92,46.72,70.87Zm10.76,0a3.43,3.43,0,1,0-3.41,3.73A3.39,3.39,0,0,0,57.48,70.87Z"/><path class="cls-88" d="M76.24,64.15,70.59,77.6h-4L61,64.15h4l3.7,9.15,3.83-9.15Z"/><path class="cls-88" d="M76,71.07a6.49,6.49,0,1,1,6.48,6.63A6.34,6.34,0,0,1,76,71.07Zm11.7,0a5.22,5.22,0,1,0-5.22,5.5A5.17,5.17,0,0,0,87.67,71.07Z"/><path class="cls-88" d="M103.85,71.07a6.29,6.29,0,0,1-6.41,6.63,5.8,5.8,0,0,1-5.26-3.08v7.83H90.93V64.55h1.2v3.07a5.78,5.78,0,0,1,5.31-3.17A6.3,6.3,0,0,1,103.85,71.07Zm-1.24,0a5.24,5.24,0,1,0-5.24,5.5A5.18,5.18,0,0,0,102.61,71.07Z"/><path class="cls-88" d="M105.17,76l.57-1a7.54,7.54,0,0,0,4.68,1.58c2.73,0,3.82-1,3.82-2.45,0-3.8-8.59-1-8.59-6.13,0-2,1.63-3.57,4.91-3.57A8,8,0,0,1,115,65.72l-.57,1a6.64,6.64,0,0,0-3.9-1.17c-2.53,0-3.65,1-3.65,2.45,0,3.92,8.59,1.15,8.59,6.12,0,2.13-1.81,3.58-5.11,3.58A8.12,8.12,0,0,1,105.17,76Z"/><path class="cls-88" d="M25.54,50.7V64.15H21.86v-1.6a5.41,5.41,0,0,1-4.15,1.8c-3.35,0-5.71-1.9-5.71-6V50.7h3.87v7c0,2.25,1,3.25,2.71,3.25s3.08-1.15,3.08-3.62V50.7Z"/><path class="cls-88" d="M37.76,63.5a5.56,5.56,0,0,1-3.16.85c-3.15,0-5-1.63-5-4.83V54H27.55V51h2.06V47.72h3.88V51h3.33v3H33.49v5.47a1.57,1.57,0,0,0,1.66,1.78,2.67,2.67,0,0,0,1.57-.5Z"/><path class="cls-88" d="M51.52,56.47v7.68H47.89V62.47c-.72,1.23-2.11,1.88-4.08,1.88-3.13,0-5-1.75-5-4.08s1.66-4,5.74-4h3.08c0-1.68-1-2.65-3.08-2.65a6.36,6.36,0,0,0-3.85,1.25l-1.39-2.73a10.19,10.19,0,0,1,5.76-1.62C49.15,50.5,51.52,52.4,51.52,56.47ZM47.64,59.9V58.52H45c-1.81,0-2.38.68-2.38,1.58s.81,1.62,2.18,1.62A2.87,2.87,0,0,0,47.64,59.9Z"/><path class="cls-88" d="M68.43,56.45v7.7H64.55v-7.1c0-2.18-1-3.18-2.71-3.18s-3.2,1.15-3.2,3.63v6.65H54.76V45.6h3.88v6.5a5.84,5.84,0,0,1,4.25-1.6C66,50.5,68.43,52.35,68.43,56.45Z"/><path class="cls-88" d="M156.37,52.34h-8.64V47.25h23.51v5.09h-8.63V74.23h-6.24Z"/><path class="cls-88" d="M189.89,65.56H174.2c.58,2.58,2.78,4.16,5.94,4.16a7,7,0,0,0,5.2-2l3.2,3.47c-1.93,2.2-4.82,3.35-8.56,3.35-7.17,0-11.83-4.51-11.83-10.68s4.74-10.67,11.06-10.67c6.09,0,10.8,4.08,10.8,10.75C190,64.4,189.93,65.06,189.89,65.56Zm-15.77-3.51h10.22a5.18,5.18,0,0,0-10.22,0Z"/><path class="cls-88" d="M191.23,63.86c0-6.24,4.82-10.67,11.57-10.67,4.35,0,7.78,1.88,9.29,5.28L207.42,61a5.17,5.17,0,0,0-4.66-2.85c-3,0-5.44,2.12-5.44,5.74s2.39,5.75,5.44,5.75a5.1,5.1,0,0,0,4.66-2.85l4.67,2.54c-1.51,3.31-4.94,5.24-9.29,5.24C196.05,74.54,191.23,70.11,191.23,63.86Z"/><path class="cls-88" d="M235.37,62.36V74.23h-6V63.29c0-3.36-1.54-4.9-4.2-4.9-2.89,0-5,1.77-5,5.59V74.23h-6V45.63h6v10a9.1,9.1,0,0,1,6.59-2.46C231.67,53.19,235.37,56,235.37,62.36Z"/><path class="cls-88" d="M260.4,62.36V74.23h-6V63.29c0-3.36-1.54-4.9-4.2-4.9-2.89,0-5,1.77-5,5.59V74.23h-6V53.49h5.75v2.43a9.08,9.08,0,0,1,6.86-2.73C256.69,53.19,260.4,56,260.4,62.36Z"/><path class="cls-88" d="M262.75,63.86c0-6.24,4.82-10.67,11.41-10.67s11.38,4.43,11.38,10.67-4.78,10.68-11.38,10.68S262.75,70.11,262.75,63.86Zm16.7,0c0-3.58-2.28-5.74-5.29-5.74s-5.31,2.16-5.31,5.74,2.31,5.75,5.31,5.75S279.45,67.45,279.45,63.86Z"/><path class="cls-88" d="M288.15,45.63h6v28.6h-6Z"/><path class="cls-88" d="M296.74,63.86c0-6.24,4.82-10.67,11.41-10.67s11.37,4.43,11.37,10.67-4.78,10.68-11.37,10.68S296.74,70.11,296.74,63.86Zm16.69,0c0-3.58-2.27-5.74-5.28-5.74s-5.32,2.16-5.32,5.74,2.32,5.75,5.32,5.75S313.43,67.45,313.43,63.86Z"/><path class="cls-88" d="M343.69,53.49V70.76c0,7.71-4.17,11.26-11.64,11.26-3.94,0-7.75-1-10.18-2.85l2.39-4.32a12.35,12.35,0,0,0,7.32,2.35c4.24,0,6.09-1.93,6.09-5.66v-.89a8.54,8.54,0,0,1-6.55,2.58c-5.74,0-10.37-4-10.37-10s4.63-10,10.37-10a8.33,8.33,0,0,1,6.86,3V53.49Zm-5.94,9.72c0-3.05-2.27-5.09-5.43-5.09s-5.48,2-5.48,5.09,2.31,5.09,5.48,5.09S337.75,66.25,337.75,63.21Z"/><path class="cls-88" d="M368.62,53.49l-9.37,22c-2,5-4.85,6.51-8.59,6.51a9.2,9.2,0,0,1-5.79-1.89l2.2-4.28a5.34,5.34,0,0,0,3.39,1.31c1.66,0,2.59-.73,3.4-2.58l.07-.19-9-20.9h6.21L357,67.56l5.86-14.07Z"/><path class="cls-88" d="M147.29,112.15l2.12-4.7a15.9,15.9,0,0,0,8.9,2.81c3.7,0,5.21-1.23,5.21-2.89,0-5.05-15.69-1.58-15.69-11.6,0-4.59,3.7-8.41,11.37-8.41a18.07,18.07,0,0,1,9.36,2.39l-1.92,4.75a15.22,15.22,0,0,0-7.48-2.12c-3.7,0-5.13,1.38-5.13,3.08,0,5,15.69,1.54,15.69,11.45,0,4.51-3.74,8.36-11.45,8.36C154,115.27,149.68,114,147.29,112.15Z"/><path class="cls-88" d="M192.72,106.14H177c.58,2.58,2.77,4.16,5.93,4.16a7,7,0,0,0,5.21-2l3.2,3.47c-1.93,2.2-4.82,3.36-8.56,3.36-7.17,0-11.84-4.51-11.84-10.68S175.72,93.76,182,93.76c6.09,0,10.79,4.09,10.79,10.76C192.83,105,192.75,105.63,192.72,106.14ZM177,102.63h10.21a5.18,5.18,0,0,0-10.21,0Z"/><path class="cls-88" d="M208.27,93.76v5.55c-.5,0-.88-.07-1.35-.07-3.31,0-5.51,1.81-5.51,5.78v9.79h-6V94.07h5.74v2.74C202.61,94.8,205.07,93.76,208.27,93.76Z"/><path class="cls-88" d="M232.29,94.07l-8.75,20.74h-6.21l-8.71-20.74h6.21l5.74,14.11,5.94-14.11Z"/><path class="cls-88" d="M232.78,87.83a3.45,3.45,0,0,1,3.74-3.36c2.24,0,3.74,1.39,3.74,3.24a3.76,3.76,0,0,1-7.48.12Zm.74,6.24h6v20.74h-6Z"/><path class="cls-88" d="M241.93,104.44c0-6.24,4.82-10.68,11.56-10.68,4.36,0,7.79,1.89,9.29,5.28l-4.66,2.51a5.17,5.17,0,0,0-4.66-2.85c-3.05,0-5.44,2.12-5.44,5.74s2.39,5.74,5.44,5.74a5.09,5.09,0,0,0,4.66-2.85l4.66,2.55c-1.5,3.31-4.93,5.24-9.29,5.24C246.75,115.12,241.93,110.68,241.93,104.44Z"/><path class="cls-88" d="M284.94,106.14H269.25c.58,2.58,2.77,4.16,5.94,4.16a7,7,0,0,0,5.2-2l3.2,3.47c-1.93,2.2-4.82,3.36-8.56,3.36-7.17,0-11.83-4.51-11.83-10.68s4.74-10.68,11.06-10.68c6.09,0,10.79,4.09,10.79,10.76C285.05,105,285,105.63,284.94,106.14Zm-15.77-3.51h10.22a5.18,5.18,0,0,0-10.22,0Z"/><path class="cls-88" d="M285.85,112.88l2-4.32a14.16,14.16,0,0,0,7.21,2c2.78,0,3.82-.73,3.82-1.89,0-3.39-12.53.08-12.53-8.21,0-3.93,3.54-6.71,9.6-6.71a17.15,17.15,0,0,1,8,1.81l-2,4.28a12,12,0,0,0-6-1.54c-2.7,0-3.86.85-3.86,1.93,0,3.54,12.53.11,12.53,8.29,0,3.85-3.58,6.59-9.79,6.59A17.79,17.79,0,0,1,285.85,112.88Z"/><path class="cls-89" d="M162.86,13.89V33H159v-1.6a5.36,5.36,0,0,1-4.34,1.81,6.75,6.75,0,0,1-6.94-7.15A6.75,6.75,0,0,1,154.67,19a5.33,5.33,0,0,1,4.16,1.68V13.89Zm-4,12.21a3.56,3.56,0,1,0-7.1,0,3.56,3.56,0,1,0,7.1,0Z"/><path class="cls-89" d="M165.76,15a2.3,2.3,0,0,1,2.51-2.24,2.26,2.26,0,0,1,2.5,2.17,2.52,2.52,0,0,1-5,.07Zm.49,4.19h4V33h-4Z"/><path class="cls-89" d="M187.65,19.16,181.79,33h-4.15L171.8,19.16H176l3.84,9.44,4-9.44Z"/><path class="cls-89" d="M188.7,15a2.3,2.3,0,0,1,2.5-2.24,2.26,2.26,0,0,1,2.5,2.17,2.51,2.51,0,0,1-5,.07Zm.49,4.19h4V33h-4Z"/><path class="cls-89" d="M195.45,31.75l1.34-2.89a9.53,9.53,0,0,0,4.83,1.34c1.86,0,2.56-.49,2.56-1.26,0-2.27-8.39,0-8.39-5.5,0-2.63,2.37-4.49,6.42-4.49a11.51,11.51,0,0,1,5.35,1.21L206.22,23a8,8,0,0,0-4-1c-1.8,0-2.58.57-2.58,1.3,0,2.37,8.39.07,8.39,5.54,0,2.59-2.4,4.42-6.55,4.42A12,12,0,0,1,195.45,31.75Z"/><path class="cls-89" d="M209.83,15a2.3,2.3,0,0,1,2.51-2.24,2.26,2.26,0,0,1,2.5,2.17,2.52,2.52,0,0,1-5,.07Zm.5,4.19h4V33h-4Z"/><path class="cls-89" d="M216.68,26.1c0-4.18,3.23-7.15,7.64-7.15s7.62,3,7.62,7.15-3.2,7.15-7.62,7.15S216.68,30.28,216.68,26.1Zm11.18,0a3.56,3.56,0,1,0-7.1,0,3.56,3.56,0,1,0,7.1,0Z"/><path class="cls-89" d="M248.57,25.09v8h-4V25.71c0-2.24-1-3.28-2.81-3.28s-3.33,1.19-3.33,3.75V33h-4V19.16h3.85v1.62A6.06,6.06,0,0,1,242.81,19C246.09,19,248.57,20.86,248.57,25.09Z"/><path class="cls-89" d="M258.49,26.1c0-4.18,3.22-7.15,7.64-7.15s7.61,3,7.61,7.15-3.2,7.15-7.61,7.15S258.49,30.28,258.49,26.1Zm11.17,0c0-2.4-1.52-3.85-3.53-3.85a3.53,3.53,0,0,0-3.57,3.85,3.56,3.56,0,1,0,7.1,0Z"/><path class="cls-89" d="M280.71,19.47h3.56v3.09h-3.46V33h-4V22.56h-2.14V19.47h2.14v-.62c0-3.13,1.91-5.17,5.37-5.17a5.78,5.78,0,0,1,3.07.75l-1.06,2.92a2.83,2.83,0,0,0-1.63-.49c-1.18,0-1.83.64-1.83,2Z"/></g></g></svg>